<!DOCTYPE svg PUBLIC "-//W3C//DTD SVG 20010904//EN" "http://www.w3.org/TR/2001/REC-SVG-20010904/DTD/svg10.dtd">
<svg version="1.0" xmlns="http://www.w3.org/2000/svg" width="524px" height="1200px" viewBox="0 0 5240 12000" preserveAspectRatio="xMidYMid meet">
<g id="layer101" fill="#132644" stroke="none">
<path d="M0 6000 l0 -6000 2620 0 2620 0 0 6000 0 6000 -2620 0 -2620 0 0 -6000z"/>
</g>
<g id="layer102" fill="#233862" stroke="none">
<path d="M0 6000 l0 -6000 2620 0 2620 0 0 6000 0 6000 -2620 0 -2620 0 0 -6000z m2384 -4245 c34 -136 63 -181 139 -221 45 -23 63 -27 137 -26 47 0 139 7 205 16 208 28 316 20 372 -28 l27 -24 13 25 c9 18 13 79 13 215 0 118 4 187 10 183 5 -3 9 -18 8 -33 0 -15 8 -72 20 -127 11 -55 23 -136 27 -180 4 -44 11 -85 17 -92 5 -6 8 -29 6 -49 l-3 -38 -95 -32 c-230 -78 -516 -99 -732 -56 -131 26 -286 87 -300 118 -18 39 9 202 49 294 4 8 8 20 8 25 1 6 4 17 7 25 3 8 16 60 29 115 l24 100 6 -90 c3 -49 9 -103 13 -120z"/>
</g>
<g id="layer103" fill="#3b425e" stroke="none">
<path d="M0 6000 l0 -6000 2620 0 2620 0 0 6000 0 6000 -642 -2 c-535 -3 -643 -5 -640 -17 1 -7 -1 -18 -6 -25 -5 -6 -12 -40 -16 -75 -3 -35 -12 -77 -20 -92 -8 -16 -17 -43 -21 -61 -4 -18 -13 -40 -20 -48 -7 -8 -15 -24 -17 -35 -3 -19 -12 -20 -219 -23 l-217 -2 -6 45 c-4 24 -11 47 -17 50 -5 4 -7 11 -3 16 3 5 1 16 -5 23 -7 8 -11 18 -10 22 1 5 1 57 0 117 l-1 107 -560 0 -560 0 0 -102 c-1 -97 -30 -259 -53 -295 -6 -10 -60 -13 -213 -13 -123 0 -203 4 -199 9 3 5 -3 24 -14 43 -11 18 -25 53 -32 78 -7 25 -18 52 -24 60 -16 21 -35 112 -35 171 l0 49 -845 0 -845 0 0 -6000z m1525 125 c15 -110 31 -240 36 -290 6 -49 26 -211 44 -360 19 -148 50 -396 69 -550 60 -483 97 -769 103 -795 4 -17 2 -22 -4 -15 -6 6 -23 62 -38 125 -15 63 -38 156 -50 205 -13 50 -28 115 -35 145 -14 62 -76 307 -122 480 -17 63 -36 140 -43 170 -31 133 -143 495 -181 584 -72 166 -122 266 -161 323 -24 35 -43 65 -43 67 0 2 12 7 27 11 15 3 61 22 102 41 40 19 81 34 90 34 9 0 30 7 46 16 17 9 50 21 75 28 38 10 46 9 52 -4 4 -8 19 -105 33 -215z m2900 -408 c31 -17 48 -37 73 -87 50 -99 47 -105 -88 -168 -25 -12 -56 -28 -70 -36 -14 -7 -44 -22 -67 -31 -24 -10 -43 -21 -43 -25 0 -5 -19 -15 -42 -25 -23 -9 -64 -31 -92 -48 -28 -18 -65 -40 -82 -50 l-31 -17 -7 38 c-22 135 26 322 102 395 59 57 108 74 212 75 79 0 102 -3 135 -21z m-2041 -3962 c34 -136 63 -181 139 -221 45 -23 62 -26 142 -26 49 1 141 8 204 16 203 28 313 19 368 -28 l27 -24 13 25 c9 18 13 80 13 216 0 116 4 187 9 181 5 -5 12 -32 15 -59 3 -28 14 -98 26 -155 11 -58 20 -128 20 -157 0 -28 5 -55 10 -58 12 -7 13 -92 2 -99 -13 -7 -226 -66 -297 -81 -90 -20 -306 -28 -430 -16 -78 7 -142 20 -220 46 -125 41 -173 67 -181 99 -12 48 17 202 53 286 4 8 8 20 8 25 1 6 4 17 7 25 3 8 16 60 29 115 l24 100 6 -90 c3 -49 9 -103 13 -120z m1050 -433 c10 -3 44 -20 74 -39 31 -18 61 -33 68 -33 7 0 39 -16 71 -35 32 -19 64 -35 71 -35 7 0 41 -18 74 -40 34 -22 68 -40 74 -40 7 0 41 -17 75 -37 49 -30 58 -39 43 -43 -10 -3 -30 -13 -44 -22 -14 -9 -45 -24 -70 -34 -25 -9 -52 -23 -61 -31 -8 -7 -19 -13 -23 -13 -8 0 -112 -47 -136 -61 -8 -5 -26 -14 -40 -20 -57 -23 -110 -51 -116 -60 -3 -5 -13 -9 -22 -9 -10 0 -42 -13 -72 -30 -30 -16 -62 -32 -70 -35 -30 -12 -127 -57 -191 -91 -37 -19 -73 -34 -80 -34 -8 0 -40 -16 -72 -35 -32 -19 -66 -35 -75 -35 -9 0 -30 -8 -47 -18 -28 -18 -31 -17 -90 5 -33 13 -72 30 -87 38 -14 8 -35 15 -46 15 -11 0 -25 7 -32 15 -7 8 -20 15 -29 15 -9 0 -47 16 -85 35 -39 19 -75 35 -81 35 -6 0 -33 11 -60 25 -27 13 -52 22 -56 20 -4 -3 -12 2 -19 10 -7 8 -26 19 -44 24 -72 23 -138 49 -149 60 -6 6 -17 11 -24 11 -7 0 -21 4 -31 9 -51 29 -126 61 -138 61 -9 0 -35 11 -60 25 -25 14 -53 25 -63 25 -10 0 -24 7 -31 15 -7 8 -20 15 -29 15 -9 0 -25 6 -36 14 -11 7 -34 17 -52 20 -30 7 -38 26 -17 45 16 15 125 71 137 71 7 0 37 15 68 34 30 18 73 39 94 46 21 7 59 26 84 41 25 16 51 29 59 29 8 0 36 13 62 29 26 16 64 34 84 40 l37 10 -6 -72 c-12 -134 48 -246 152 -287 32 -13 63 -27 68 -31 20 -15 201 -60 300 -75 119 -17 236 -8 360 30 102 31 112 35 166 70 86 55 106 109 108 295 1 75 3 82 19 76 9 -4 25 -10 36 -13z"/>
</g>
<g id="layer104" fill="#942525" stroke="none">
<path d="M0 6000 l0 -6000 2620 0 2620 0 0 5995 0 5995 -640 0 c-352 0 -640 -2 -640 -4 0 -27 -24 -163 -29 -171 -5 -5 -16 -32 -26 -60 -9 -27 -21 -59 -26 -70 -5 -11 -13 -32 -19 -47 l-10 -28 -213 0 -214 0 -22 79 c-12 44 -21 83 -20 88 1 4 1 54 0 111 l-1 102 -560 0 -560 0 0 -97 c0 -85 -14 -172 -46 -290 -3 -10 -53 -13 -211 -13 l-208 0 -33 88 c-19 48 -40 105 -49 127 -8 22 -17 72 -20 111 l-6 71 -630 6 c-347 4 -726 7 -844 7 l-213 0 0 -6000z m2520 4630 c-52 -4 -149 -7 -215 -7 l-120 1 135 6 c74 3 171 6 215 6 l80 1 -95 -7z m1311 -78 c-18 -2 -37 0 -42 5 -5 5 11 6 34 3 41 -4 41 -5 8 -8z m-2306 -4427 c15 -110 31 -240 36 -290 6 -49 26 -211 44 -360 19 -148 50 -396 69 -550 60 -483 97 -769 103 -795 4 -17 2 -22 -4 -15 -6 6 -23 62 -38 125 -15 63 -38 156 -50 205 -13 50 -28 115 -35 145 -14 62 -76 307 -122 480 -17 63 -36 140 -43 170 -31 133 -143 495 -181 584 -72 166 -122 266 -162 324 -24 36 -40 68 -35 72 4 5 29 15 56 24 26 9 75 28 110 43 34 14 96 37 137 49 69 20 76 21 82 6 4 -10 19 -107 33 -217z m2912 -414 c43 -31 97 -134 91 -173 -2 -17 -36 -39 -153 -99 -82 -42 -193 -100 -245 -129 -159 -89 -144 -84 -151 -52 -12 48 -9 155 5 212 30 121 79 194 163 246 33 21 51 23 144 24 101 0 108 -1 146 -29z m54 -604 c-10 -9 -11 -8 -5 6 3 10 9 15 12 12 3 -3 0 -11 -7 -18z m-314 -264 c-4 -3 -10 -3 -14 0 -3 4 0 7 7 7 7 0 10 -3 7 -7z m-622 -213 c-3 -5 -12 -10 -18 -10 -7 0 -6 4 3 10 19 12 23 12 15 0z m-827 -145 c-6 -14 -13 -23 -15 -21 -5 5 15 46 22 46 3 0 -1 -11 -7 -25z m582 11 c0 -3 -5 -8 -12 -12 -7 -4 -8 -3 -4 4 7 12 16 16 16 8z m-193 -98 c2 -17 0 -19 -7 -8 -5 8 -6 18 -4 22 8 12 10 10 11 -14z m-471 -89 c-9 -19 -15 -29 -16 -22 0 15 22 64 27 60 2 -2 -3 -19 -11 -38z m521 -76 c-4 -3 -7 0 -7 7 0 7 3 10 7 7 3 -4 3 -10 0 -14z m10 -30 c-4 -3 -7 0 -7 7 0 7 3 10 7 7 3 -4 3 -10 0 -14z m10 -30 c-4 -3 -7 0 -7 7 0 7 3 10 7 7 3 -4 3 -10 0 -14z m-600 -10 c-4 -3 -7 0 -7 7 0 7 3 10 7 7 3 -4 3 -10 0 -14z m-10 -30 c-4 -3 -7 0 -7 7 0 7 3 10 7 7 3 -4 3 -10 0 -14z m660 -125 c-3 -8 -6 -5 -6 6 -1 11 2 17 5 13 3 -3 4 -12 1 -19z m-720 -35 c-4 -3 -7 0 -7 7 0 7 3 10 7 7 3 -4 3 -10 0 -14z m743 -27 c0 -26 -6 -18 -14 19 -5 22 -4 26 4 15 5 -8 10 -24 10 -34z m-747 -1 c-3 -9 -8 -14 -10 -11 -3 3 -2 9 2 15 9 16 15 13 8 -4z m-16 -42 c-4 -3 -7 0 -7 7 0 7 3 10 7 7 3 -4 3 -10 0 -14z m810 -140 c-4 -3 -7 0 -7 7 0 7 3 10 7 7 3 -4 3 -10 0 -14z m-867 -40 c-11 -17 -11 -17 -6 0 3 10 6 24 7 30 0 9 2 9 5 0 3 -7 0 -20 -6 -30z m878 -4 c-3 -8 -7 -3 -11 10 -4 17 -3 21 5 13 5 -5 8 -16 6 -23z m-891 -41 c-3 -8 -6 -5 -6 6 -1 11 2 17 5 13 3 -3 4 -12 1 -19z m900 -10 c-3 -7 -5 -2 -5 12 0 14 2 19 5 13 2 -7 2 -19 0 -25z m-910 -30 c-3 -8 -6 -5 -6 6 -1 11 2 17 5 13 3 -3 4 -12 1 -19z m-52 -198 c-9 -41 -17 -33 -9 9 4 17 9 30 11 27 3 -2 2 -19 -2 -36z m1043 -190 c0 -14 -6 7 -14 45 -7 39 -13 81 -12 95 0 14 6 -6 14 -45 7 -38 13 -81 12 -95z m-1061 128 c-3 -8 -6 -5 -6 6 -1 11 2 17 5 13 3 -3 4 -12 1 -19z m-52 -228 c-9 -41 -17 -33 -9 9 4 17 9 30 11 27 3 -2 2 -19 -2 -36z m-18 -72 c-3 -7 -5 -2 -5 12 0 14 2 19 5 13 2 -7 2 -19 0 -25z m111 -1338 c27 -99 60 -153 119 -193 72 -47 129 -51 363 -21 205 25 324 15 380 -32 33 -28 40 15 41 243 1 206 8 236 23 98 3 -27 17 -108 31 -180 29 -154 42 -280 28 -288 -13 -8 -223 -66 -298 -82 -90 -20 -306 -28 -430 -16 -152 14 -371 87 -408 135 -11 15 2 144 19 185 13 32 67 213 96 326 l13 50 6 -90 c3 -49 11 -110 17 -135z m1239 -512 c131 -67 272 -138 313 -159 l75 -38 -160 -76 c-88 -42 -212 -101 -275 -131 -63 -30 -146 -70 -185 -89 -38 -19 -126 -61 -195 -93 -69 -33 -174 -83 -235 -112 -60 -29 -121 -53 -136 -53 -14 0 -55 14 -92 32 -38 17 -85 38 -105 45 -20 8 -91 37 -157 66 -66 29 -136 58 -156 66 -20 7 -71 29 -112 49 -42 19 -80 35 -85 35 -6 0 -42 16 -81 35 -39 19 -75 35 -81 35 -5 0 -38 13 -72 29 -35 16 -90 40 -123 54 -161 67 -170 72 -170 92 0 10 11 25 25 32 31 16 293 142 465 224 72 34 134 64 138 66 5 3 6 -30 2 -73 -12 -142 46 -252 152 -294 32 -13 63 -27 68 -31 20 -15 201 -60 300 -75 119 -17 236 -8 360 30 102 31 112 35 166 70 87 55 106 109 108 299 1 48 3 87 5 87 3 0 112 -55 243 -122z"/>
</g>
<g id="layer105" fill="#1c468a" stroke="none">
<path d="M0 6000 l0 -6000 2620 0 2620 0 0 5995 0 5995 -640 0 c-352 0 -640 -2 -640 -4 0 -27 -24 -163 -29 -171 -5 -5 -16 -32 -26 -60 -9 -27 -21 -59 -26 -70 -5 -11 -13 -32 -19 -47 l-10 -28 -213 0 -214 0 -22 79 c-12 44 -21 83 -20 88 1 4 1 54 0 111 l-1 102 -560 0 -560 0 0 -97 c0 -85 -14 -172 -46 -290 -3 -10 -53 -13 -211 -13 l-208 0 -33 88 c-19 48 -40 105 -49 127 -8 22 -17 72 -20 111 l-6 71 -630 6 c-347 4 -726 7 -844 7 l-213 0 0 -6000z m2520 4630 c-52 -4 -149 -7 -215 -7 l-120 1 135 6 c74 3 171 6 215 6 l80 1 -95 -7z m1311 -78 c-18 -2 -37 0 -42 5 -5 5 11 6 34 3 41 -4 41 -5 8 -8z m-2306 -4427 c15 -110 31 -240 36 -290 6 -49 26 -211 44 -360 19 -148 50 -396 69 -550 60 -483 97 -769 103 -795 4 -17 2 -22 -4 -15 -6 6 -23 62 -38 125 -15 63 -38 156 -50 205 -13 50 -28 115 -35 145 -14 62 -76 307 -122 480 -17 63 -36 140 -43 170 -31 133 -143 495 -181 584 -72 166 -122 266 -162 324 -24 36 -40 68 -35 72 4 5 29 15 56 24 26 9 75 28 110 43 34 14 96 37 137 49 69 20 76 21 82 6 4 -10 19 -107 33 -217z m1269 -250 c20 -38 36 -70 36 -71 0 -1 -19 -12 -42 -24 -24 -12 -48 -28 -54 -36 -9 -12 -16 -7 -38 26 -14 22 -23 40 -20 40 4 0 0 8 -8 18 -8 9 -25 34 -38 55 l-23 39 46 -7 c44 -7 46 -6 62 25 21 40 28 34 79 -65z m169 51 c15 -32 18 -34 56 -29 23 3 41 3 41 0 0 -11 -72 -137 -81 -143 -5 -3 -24 3 -42 14 -17 11 -44 22 -58 26 l-27 6 42 80 c22 44 43 80 46 80 4 0 14 -15 23 -34z m-27 -200 c30 -30 34 -40 34 -87 0 -40 -6 -60 -26 -86 -23 -30 -29 -33 -80 -33 -88 0 -134 45 -134 132 0 75 36 106 124 107 42 1 52 -3 82 -33z m1501 -15 c43 -31 97 -134 91 -173 -2 -17 -36 -39 -153 -99 -82 -42 -193 -100 -245 -129 -159 -89 -144 -84 -151 -52 -12 48 -9 155 5 212 30 121 79 194 163 246 33 21 51 23 144 24 101 0 108 -1 146 -29z m54 -604 c-10 -9 -11 -8 -5 6 3 10 9 15 12 12 3 -3 0 -11 -7 -18z m-314 -264 c-4 -3 -10 -3 -14 0 -3 4 0 7 7 7 7 0 10 -3 7 -7z m-622 -213 c-3 -5 -12 -10 -18 -10 -7 0 -6 4 3 10 19 12 23 12 15 0z m-827 -145 c-6 -14 -13 -23 -15 -21 -5 5 15 46 22 46 3 0 -1 -11 -7 -25z m582 11 c0 -3 -5 -8 -12 -12 -7 -4 -8 -3 -4 4 7 12 16 16 16 8z m-193 -98 c2 -17 0 -19 -7 -8 -5 8 -6 18 -4 22 8 12 10 10 11 -14z m-471 -89 c-9 -19 -15 -29 -16 -22 0 15 22 64 27 60 2 -2 -3 -19 -11 -38z m521 -76 c-4 -3 -7 0 -7 7 0 7 3 10 7 7 3 -4 3 -10 0 -14z m10 -30 c-4 -3 -7 0 -7 7 0 7 3 10 7 7 3 -4 3 -10 0 -14z m10 -30 c-4 -3 -7 0 -7 7 0 7 3 10 7 7 3 -4 3 -10 0 -14z m-600 -10 c-4 -3 -7 0 -7 7 0 7 3 10 7 7 3 -4 3 -10 0 -14z m-10 -30 c-4 -3 -7 0 -7 7 0 7 3 10 7 7 3 -4 3 -10 0 -14z m660 -125 c-3 -8 -6 -5 -6 6 -1 11 2 17 5 13 3 -3 4 -12 1 -19z m-720 -35 c-4 -3 -7 0 -7 7 0 7 3 10 7 7 3 -4 3 -10 0 -14z m743 -27 c0 -26 -6 -18 -14 19 -5 22 -4 26 4 15 5 -8 10 -24 10 -34z m-747 -1 c-3 -9 -8 -14 -10 -11 -3 3 -2 9 2 15 9 16 15 13 8 -4z m-16 -42 c-4 -3 -7 0 -7 7 0 7 3 10 7 7 3 -4 3 -10 0 -14z m810 -140 c-4 -3 -7 0 -7 7 0 7 3 10 7 7 3 -4 3 -10 0 -14z m-867 -40 c-11 -17 -11 -17 -6 0 3 10 6 24 7 30 0 9 2 9 5 0 3 -7 0 -20 -6 -30z m878 -4 c-3 -8 -7 -3 -11 10 -4 17 -3 21 5 13 5 -5 8 -16 6 -23z m-891 -41 c-3 -8 -6 -5 -6 6 -1 11 2 17 5 13 3 -3 4 -12 1 -19z m900 -10 c-3 -7 -5 -2 -5 12 0 14 2 19 5 13 2 -7 2 -19 0 -25z m-910 -30 c-3 -8 -6 -5 -6 6 -1 11 2 17 5 13 3 -3 4 -12 1 -19z m-52 -198 c-9 -41 -17 -33 -9 9 4 17 9 30 11 27 3 -2 2 -19 -2 -36z m1043 -190 c0 -14 -6 7 -14 45 -7 39 -13 81 -12 95 0 14 6 -6 14 -45 7 -38 13 -81 12 -95z m-1061 128 c-3 -8 -6 -5 -6 6 -1 11 2 17 5 13 3 -3 4 -12 1 -19z m-52 -228 c-9 -41 -17 -33 -9 9 4 17 9 30 11 27 3 -2 2 -19 -2 -36z m-18 -72 c-3 -7 -5 -2 -5 12 0 14 2 19 5 13 2 -7 2 -19 0 -25z m111 -1338 c27 -99 60 -153 119 -193 72 -47 129 -51 363 -21 205 25 324 15 380 -32 33 -28 40 15 41 243 1 206 8 236 23 98 3 -27 17 -108 31 -180 29 -154 42 -280 28 -288 -13 -8 -223 -66 -298 -82 -90 -20 -306 -28 -430 -16 -152 14 -371 87 -408 135 -11 15 2 144 19 185 13 32 67 213 96 326 l13 50 6 -90 c3 -49 11 -110 17 -135z m1239 -512 c131 -67 272 -138 313 -159 l75 -38 -160 -76 c-88 -42 -212 -101 -275 -131 -63 -30 -146 -70 -185 -89 -38 -19 -126 -61 -195 -93 -69 -33 -174 -83 -235 -112 -60 -29 -121 -53 -136 -53 -14 0 -55 14 -92 32 -38 17 -85 38 -105 45 -20 8 -91 37 -157 66 -66 29 -136 58 -156 66 -20 7 -71 29 -112 49 -42 19 -80 35 -85 35 -6 0 -42 16 -81 35 -39 19 -75 35 -81 35 -5 0 -38 13 -72 29 -35 16 -90 40 -123 54 -161 67 -170 72 -170 92 0 10 11 25 25 32 31 16 293 142 465 224 72 34 134 64 138 66 5 3 6 -30 2 -73 -12 -142 46 -252 152 -294 32 -13 63 -27 68 -31 20 -15 201 -60 300 -75 119 -17 236 -8 360 30 102 31 112 35 166 70 87 55 106 109 108 299 1 48 3 87 5 87 3 0 112 -55 243 -122z"/>
</g>
<g id="layer106" fill="#bc3f3f" stroke="none">
<path d="M0 6000 l0 -6000 2620 0 2620 0 0 5995 0 5995 -640 0 c-352 0 -640 -2 -640 -4 0 -27 -24 -163 -29 -171 -5 -5 -16 -32 -26 -60 -9 -27 -21 -59 -26 -70 -5 -11 -13 -32 -19 -47 l-10 -28 -213 0 -214 0 -22 79 c-12 44 -21 83 -20 88 1 4 1 54 0 111 l-1 102 -560 0 -560 0 0 -97 c0 -85 -14 -172 -46 -290 -3 -10 -53 -13 -211 -13 l-208 0 -33 88 c-19 48 -40 105 -49 127 -8 22 -17 72 -20 111 l-6 71 -630 6 c-347 4 -726 7 -844 7 l-213 0 0 -6000z m2915 4630 c138 -6 322 -17 410 -25 88 -7 219 -19 290 -25 72 -6 218 -25 325 -42 107 -16 222 -34 256 -39 97 -13 317 -75 353 -99 l23 -15 -12 -185 c-19 -324 -137 -1422 -266 -2475 -19 -159 -36 -301 -36 -315 0 -14 -15 -140 -34 -280 -18 -140 -35 -284 -37 -320 -3 -36 -21 -191 -41 -345 -80 -629 -101 -805 -97 -805 3 0 36 19 74 41 l69 41 122 -4 c112 -5 126 -8 186 -38 110 -56 161 -115 223 -260 68 -161 103 -526 65 -665 -9 -33 -19 -71 -21 -85 -6 -30 -71 -205 -102 -275 -72 -157 -262 -534 -283 -560 -5 -6 -28 -46 -51 -90 -24 -44 -55 -102 -70 -130 -118 -216 -137 -252 -170 -328 -12 -27 -26 -54 -31 -60 -6 -7 -26 -37 -46 -67 -48 -72 -135 -162 -204 -208 -30 -20 -61 -43 -68 -49 -7 -7 -30 -17 -50 -22 -20 -5 -85 -23 -144 -39 -92 -25 -108 -27 -108 -14 0 59 -24 313 -36 387 -9 49 -19 123 -24 165 -5 41 -23 134 -40 205 -18 72 -34 144 -37 160 -2 17 -20 80 -39 140 -19 61 -34 115 -34 121 0 6 -26 89 -58 185 -32 96 -61 181 -63 189 -3 12 9 16 52 20 47 4 63 12 105 47 27 22 62 55 78 72 24 25 38 31 72 31 31 0 43 4 46 18 5 16 78 48 136 58 14 3 44 13 66 23 23 10 66 26 96 36 30 10 90 30 132 46 42 16 83 29 90 29 7 0 54 15 103 33 50 19 119 44 155 57 151 53 186 66 196 72 18 11 74 241 94 383 9 68 14 195 6 195 -7 0 -313 -158 -405 -209 -51 -29 -103 -57 -115 -64 -11 -7 -23 -15 -26 -18 -3 -3 -34 -23 -70 -43 -36 -21 -81 -50 -100 -64 -19 -15 -42 -31 -52 -37 -55 -31 -203 -144 -258 -195 -18 -17 -36 -30 -41 -30 -5 0 -9 277 -9 655 l0 655 -605 0 -605 0 0 -800 0 -800 260 0 260 0 -55 -109 c-30 -60 -55 -111 -55 -115 0 -3 -16 -40 -35 -82 -19 -41 -35 -80 -35 -85 0 -6 -15 -47 -34 -92 -19 -46 -36 -96 -39 -112 -3 -17 -19 -70 -36 -120 -17 -49 -38 -117 -47 -150 -9 -33 -27 -94 -40 -135 -13 -41 -24 -83 -24 -93 0 -10 -16 -74 -35 -143 -19 -68 -35 -132 -35 -141 0 -15 -31 -153 -72 -315 -5 -21 -13 -38 -17 -38 -5 0 -48 11 -95 25 -47 14 -93 25 -101 25 -42 0 -335 135 -418 192 -39 28 -95 116 -156 248 -29 63 -62 132 -72 153 -10 21 -19 42 -19 47 0 6 -17 52 -38 103 -33 79 -71 179 -121 317 -7 19 -30 85 -51 145 -21 61 -64 182 -95 270 -31 88 -58 171 -60 185 -2 14 -20 68 -39 120 -20 52 -36 101 -36 109 0 7 -16 61 -35 120 -178 546 -230 849 -180 1046 11 43 58 108 102 142 47 35 138 80 176 87 27 5 103 34 287 109 41 17 109 41 150 53 60 18 75 26 73 41 0 10 -15 106 -32 213 -16 107 -46 303 -66 435 -20 132 -52 341 -72 465 -20 124 -37 245 -39 270 -2 25 -19 146 -38 270 -38 245 -99 668 -115 795 -6 44 -23 166 -39 270 -16 105 -30 207 -31 228 -1 21 -15 127 -32 234 -16 108 -34 251 -39 319 -6 68 -15 156 -20 196 -5 40 -10 103 -10 140 0 73 7 85 80 139 71 52 286 149 331 149 11 0 28 4 37 9 28 15 249 58 382 75 406 51 702 63 1135 46z m495 -5265 l0 -745 -144 0 c-79 0 -151 3 -160 6 -43 17 -2 24 134 24 l150 0 0 725 0 725 -530 0 -530 0 0 -725 0 -725 270 0 c233 0 270 -2 270 -15 0 -13 -38 -15 -285 -15 l-285 0 0 745 0 745 555 0 555 0 0 -745z m-616 510 c20 -38 36 -70 36 -71 0 -1 -19 -12 -42 -24 -24 -12 -48 -28 -54 -36 -9 -12 -16 -7 -38 26 -14 22 -23 40 -20 40 4 0 0 8 -8 18 -8 9 -25 34 -38 55 l-23 39 46 -7 c44 -7 46 -6 62 25 21 40 28 34 79 -65z m169 51 c15 -32 18 -34 56 -29 23 3 41 3 41 0 0 -11 -72 -137 -81 -143 -5 -3 -24 3 -42 14 -17 11 -44 22 -58 26 l-27 6 42 80 c22 44 43 80 46 80 4 0 14 -15 23 -34z m-27 -200 c30 -30 34 -40 34 -87 0 -40 -6 -60 -26 -86 -23 -30 -29 -33 -80 -33 -88 0 -134 45 -134 132 0 75 36 106 124 107 42 1 52 -3 82 -33z m244 0 c0 -8 20 -26 45 -40 25 -15 45 -31 45 -36 0 -14 -9 -12 -46 10 l-32 21 -13 -36 c-14 -37 -26 -44 -35 -20 -4 8 -12 15 -19 15 -7 0 -15 14 -18 30 -10 48 -30 37 -22 -11 6 -33 4 -40 -6 -37 -27 9 -23 108 4 108 7 0 27 -13 45 -30 18 -16 35 -30 38 -30 3 0 2 16 -2 35 -4 23 -2 35 5 35 6 0 11 -6 11 -14z m35 -421 c0 -6 -128 -11 -357 -13 -315 -2 -358 0 -358 13 0 13 43 15 358 13 229 -2 357 -7 357 -13z m0 -55 c0 -13 -47 -15 -349 -18 -205 -1 -354 2 -359 7 -28 28 11 31 356 29 305 -3 352 -5 352 -18z m0 -50 c0 -13 -46 -15 -355 -15 -331 0 -355 1 -358 18 -3 16 17 17 355 15 310 -3 358 -5 358 -18z m0 -55 c0 -6 -128 -11 -357 -13 -315 -2 -358 0 -358 13 0 13 43 15 358 13 229 -2 357 -7 357 -13z m-115 -350 c0 -11 -11 -15 -36 -15 -31 0 -35 -3 -29 -20 6 -20 2 -20 -180 -20 -181 0 -187 1 -182 19 4 16 -1 20 -26 23 -17 2 -32 9 -35 16 -3 9 50 12 242 12 212 0 246 -2 246 -15z m-712 -3055 c27 -99 60 -153 119 -193 72 -47 129 -51 363 -21 205 25 324 15 380 -32 33 -28 40 15 41 243 1 206 8 236 23 98 3 -27 17 -108 31 -180 14 -71 28 -169 32 -217 l6 -86 181 -91 c100 -51 241 -123 315 -161 l135 -69 -160 -76 c-87 -42 -211 -101 -274 -131 -63 -30 -146 -70 -185 -89 -38 -19 -126 -61 -195 -93 -69 -33 -174 -83 -235 -112 -60 -29 -121 -53 -136 -53 -14 0 -55 14 -92 32 -38 17 -85 38 -105 45 -20 8 -91 37 -157 66 -66 29 -136 58 -156 66 -20 7 -71 29 -112 49 -42 19 -80 35 -85 35 -6 0 -42 16 -81 35 -39 19 -75 35 -81 35 -5 0 -38 13 -72 29 -35 16 -90 40 -123 54 -161 67 -170 72 -170 92 0 10 11 25 25 32 28 14 259 125 473 228 114 55 137 69 137 88 3 115 11 190 24 222 15 35 67 212 98 330 l13 50 6 -90 c3 -49 11 -110 17 -135z"/>
<path d="M2781 5711 c-36 -33 -41 -73 -14 -111 30 -43 57 -59 96 -60 55 0 87 35 87 95 0 96 -100 140 -169 76z"/>
</g>
<g id="layer107" fill="#82b378" stroke="none">
<path d="M0 6000 l0 -6000 2620 0 2620 0 0 5995 0 5995 -640 0 c-352 0 -640 -2 -640 -4 0 -27 -24 -163 -29 -171 -5 -5 -16 -32 -26 -60 -9 -27 -21 -59 -26 -70 -5 -11 -13 -32 -19 -47 l-10 -28 -213 0 -214 0 -22 79 c-12 44 -21 83 -20 88 1 4 1 54 0 111 l-1 102 -560 0 -560 0 0 -97 c0 -85 -14 -172 -46 -290 -3 -10 -53 -13 -211 -13 l-208 0 -33 88 c-19 48 -40 105 -49 127 -8 22 -17 72 -20 111 l-6 71 -630 6 c-347 4 -726 7 -844 7 l-213 0 0 -6000z m2915 4630 c138 -6 322 -17 410 -25 88 -7 219 -19 290 -25 72 -6 218 -25 325 -42 107 -16 222 -34 256 -39 97 -13 317 -75 353 -99 l23 -15 -12 -185 c-19 -324 -137 -1422 -266 -2475 -19 -159 -36 -301 -36 -315 0 -14 -15 -140 -34 -280 -18 -140 -35 -284 -37 -320 -3 -36 -21 -191 -41 -345 -80 -629 -101 -805 -97 -805 3 0 36 19 74 41 l69 41 122 -4 c112 -5 126 -8 186 -38 110 -56 161 -115 223 -260 68 -161 103 -526 65 -665 -9 -33 -19 -71 -21 -85 -6 -30 -71 -205 -102 -275 -72 -157 -262 -534 -283 -560 -5 -6 -28 -46 -51 -90 -24 -44 -55 -102 -70 -130 -118 -216 -137 -252 -170 -328 -12 -27 -26 -54 -31 -60 -6 -7 -26 -37 -46 -67 -48 -72 -135 -162 -204 -208 -30 -20 -61 -43 -68 -49 -7 -7 -30 -17 -50 -22 -20 -5 -82 -22 -137 -37 -55 -15 -118 -28 -140 -30 -22 -2 -64 -8 -93 -14 -52 -9 -55 -9 -93 22 l-39 31 0 122 c0 139 -22 366 -51 535 -11 63 -24 142 -29 175 -15 115 -120 489 -166 593 -36 81 -47 102 -53 102 -18 0 -158 -362 -186 -480 -7 -30 -24 -93 -37 -140 -53 -179 -167 -694 -176 -793 l-5 -58 -75 -50 -76 -50 -68 6 c-38 3 -107 17 -154 30 -46 14 -91 25 -99 25 -42 0 -335 135 -418 192 -39 28 -95 116 -156 248 -29 63 -62 132 -72 153 -10 21 -19 42 -19 47 0 6 -17 52 -38 103 -33 79 -71 179 -121 317 -7 19 -30 85 -51 145 -21 61 -64 182 -95 270 -31 88 -58 171 -60 185 -2 14 -20 68 -39 120 -20 52 -36 101 -36 109 0 7 -16 61 -35 120 -178 546 -230 849 -180 1046 11 43 58 108 102 142 47 35 138 80 176 87 27 5 103 34 287 109 41 17 109 41 150 53 60 18 75 26 73 41 0 10 -15 106 -32 213 -16 107 -46 303 -66 435 -20 132 -52 341 -72 465 -20 124 -37 245 -39 270 -2 25 -19 146 -38 270 -38 245 -99 668 -115 795 -6 44 -23 166 -39 270 -16 105 -30 207 -31 228 -1 21 -15 127 -32 234 -16 108 -34 251 -39 319 -6 68 -15 156 -20 196 -5 40 -10 103 -10 140 0 73 7 85 80 139 71 52 286 149 331 149 11 0 28 4 37 9 28 15 249 58 382 75 406 51 702 63 1135 46z m-527 -8890 c27 -99 60 -153 119 -193 72 -47 129 -51 363 -21 205 25 324 15 380 -32 33 -28 40 15 41 243 1 206 8 236 23 98 3 -27 17 -108 31 -180 14 -71 28 -169 32 -217 l6 -86 181 -91 c100 -51 241 -123 315 -161 l135 -69 -160 -76 c-87 -42 -211 -101 -274 -131 -63 -30 -146 -70 -185 -89 -38 -19 -126 -61 -195 -93 -69 -33 -174 -83 -235 -112 -60 -29 -121 -53 -136 -53 -14 0 -55 14 -92 32 -38 17 -85 38 -105 45 -20 8 -91 37 -157 66 -66 29 -136 58 -156 66 -20 7 -71 29 -112 49 -42 19 -80 35 -85 35 -6 0 -42 16 -81 35 -39 19 -75 35 -81 35 -5 0 -38 13 -72 29 -35 16 -90 40 -123 54 -161 67 -170 72 -170 92 0 10 11 25 25 32 28 14 259 125 473 228 114 55 137 69 137 88 3 115 11 190 24 222 15 35 67 212 98 330 l13 50 6 -90 c3 -49 11 -110 17 -135z"/>
<path d="M2250 5371 l0 -798 329 -5 330 -5 54 -56 c71 -73 101 -87 181 -87 63 0 67 1 123 49 32 26 69 60 82 75 19 20 34 26 67 26 31 0 43 4 46 18 5 16 78 48 136 58 14 3 44 13 66 23 23 10 66 26 96 36 30 10 90 30 132 46 42 16 83 29 90 29 7 0 54 15 103 33 50 19 119 44 155 57 151 53 186 66 196 72 18 11 74 241 94 383 9 68 14 195 6 195 -7 0 -313 -158 -405 -209 -51 -29 -103 -57 -115 -64 -11 -7 -23 -15 -26 -18 -3 -3 -34 -23 -70 -43 -36 -21 -81 -50 -100 -64 -19 -15 -42 -31 -52 -37 -55 -31 -203 -144 -258 -195 -18 -17 -36 -30 -41 -30 -5 0 -9 277 -9 655 l0 655 -605 0 -605 0 0 -799z m1160 -6 l0 -745 -144 0 c-79 0 -151 3 -160 6 -43 17 -2 24 134 24 l150 0 0 725 0 725 -530 0 -530 0 0 -725 0 -725 270 0 c233 0 270 -2 270 -15 0 -13 -38 -15 -285 -15 l-285 0 0 745 0 745 555 0 555 0 0 -745z m-631 538 c19 -38 40 -76 49 -85 14 -16 16 -16 31 5 9 12 30 48 46 79 17 32 33 58 36 58 3 0 13 -15 22 -34 15 -32 18 -34 56 -29 23 3 41 3 41 -1 0 -10 -61 -119 -78 -138 -12 -15 -12 -20 2 -40 11 -15 16 -44 16 -86 0 -59 -2 -65 -38 -103 -32 -35 -43 -41 -82 -42 -92 -3 -169 63 -178 152 -2 26 1 57 7 68 9 17 3 34 -34 98 -24 43 -49 83 -55 89 -20 20 -9 27 34 21 42 -7 45 -6 60 24 9 17 20 31 24 31 5 0 23 -30 41 -67z m401 -177 c0 -8 20 -26 45 -40 25 -15 45 -31 45 -36 0 -14 -9 -12 -46 10 l-32 21 -13 -36 c-14 -37 -26 -44 -35 -20 -4 8 -12 15 -19 15 -7 0 -15 14 -18 30 -10 48 -30 37 -22 -11 6 -33 4 -40 -6 -37 -27 9 -23 108 4 108 7 0 27 -13 45 -30 18 -16 35 -30 38 -30 3 0 2 16 -2 35 -4 23 -2 35 5 35 6 0 11 -6 11 -14z m35 -421 c0 -6 -128 -11 -357 -13 -315 -2 -358 0 -358 13 0 13 43 15 358 13 229 -2 357 -7 357 -13z m0 -55 c0 -13 -47 -15 -349 -18 -205 -1 -354 2 -359 7 -28 28 11 31 356 29 305 -3 352 -5 352 -18z m0 -50 c0 -13 -46 -15 -355 -15 -331 0 -355 1 -358 18 -3 16 17 17 355 15 310 -3 358 -5 358 -18z m0 -55 c0 -6 -128 -11 -357 -13 -315 -2 -358 0 -358 13 0 13 43 15 358 13 229 -2 357 -7 357 -13z m-115 -350 c0 -11 -11 -15 -36 -15 -31 0 -35 -3 -29 -20 6 -20 2 -20 -180 -20 -181 0 -187 1 -182 19 4 16 -1 20 -26 23 -17 2 -32 9 -35 16 -3 9 50 12 242 12 212 0 246 -2 246 -15z"/>
</g>
<g id="layer108" fill="#ee984a" stroke="none">
<path d="M820 11964 c-19 -13 -43 -31 -54 -40 -40 -34 -185 -103 -278 -133 -115 -36 -236 -52 -335 -42 l-72 7 -23 -56 c-13 -30 -23 -57 -23 -60 -1 -3 -9 -19 -18 -37 -16 -30 -17 -381 -17 -5818 l0 -5785 2620 0 2620 0 0 5995 0 5995 -640 0 c-352 0 -640 -2 -640 -4 0 -27 -24 -163 -29 -171 -5 -5 -16 -32 -26 -60 -9 -27 -21 -59 -26 -70 -5 -11 -13 -32 -19 -47 l-10 -28 -213 0 -214 0 -22 79 c-12 44 -21 83 -20 88 1 4 1 54 0 111 l-1 102 -560 0 -560 0 0 -97 c0 -85 -14 -172 -46 -290 -3 -10 -53 -13 -211 -13 l-208 0 -33 88 c-19 48 -40 105 -49 127 -8 22 -17 73 -20 113 l-6 72 -416 0 -416 -1 -35 -25z m2095 -1334 c138 -6 322 -17 410 -25 88 -7 219 -19 290 -25 72 -6 218 -25 325 -42 107 -16 222 -34 256 -39 97 -13 317 -75 353 -99 l23 -15 -12 -185 c-19 -324 -137 -1422 -266 -2475 -19 -159 -36 -301 -36 -315 0 -14 -15 -140 -34 -280 -18 -140 -35 -284 -37 -320 -3 -36 -21 -191 -41 -345 -80 -629 -101 -805 -97 -805 3 0 36 19 74 41 l69 41 122 -4 c112 -5 126 -8 186 -38 110 -56 161 -115 223 -260 68 -161 103 -526 65 -665 -9 -33 -19 -71 -21 -85 -6 -30 -71 -205 -102 -275 -72 -157 -262 -534 -283 -560 -5 -6 -28 -46 -51 -90 -24 -44 -55 -102 -70 -130 -118 -216 -137 -252 -170 -328 -12 -27 -26 -54 -31 -60 -6 -7 -26 -37 -46 -67 -48 -72 -135 -162 -204 -208 -30 -20 -61 -43 -68 -49 -7 -7 -30 -17 -50 -22 -20 -5 -82 -22 -137 -37 -55 -15 -118 -28 -140 -30 -22 -2 -64 -8 -93 -14 -52 -9 -55 -9 -93 22 l-39 31 0 122 c0 139 -22 366 -51 535 -11 63 -24 142 -29 175 -15 115 -120 489 -166 593 -36 81 -47 102 -53 102 -18 0 -158 -362 -186 -480 -7 -30 -24 -93 -37 -140 -53 -178 -167 -694 -176 -792 -5 -58 -5 -58 -65 -99 -75 -52 -125 -73 -140 -61 -7 5 -28 10 -47 10 -19 1 -74 13 -123 27 -48 14 -94 25 -102 25 -42 0 -335 135 -418 192 -39 28 -95 116 -156 248 -29 63 -62 132 -72 153 -10 21 -19 42 -19 47 0 6 -17 52 -38 103 -33 79 -71 179 -121 317 -7 19 -30 85 -51 145 -21 61 -64 182 -95 270 -31 88 -58 171 -60 185 -2 14 -20 68 -39 120 -20 52 -36 101 -36 109 0 7 -16 61 -35 120 -178 546 -230 849 -180 1046 26 100 137 186 315 245 65 21 180 64 275 103 28 11 84 31 125 43 60 18 75 26 73 41 0 10 -15 106 -32 213 -16 107 -46 303 -66 435 -20 132 -52 341 -72 465 -20 124 -37 245 -39 270 -2 25 -19 146 -38 270 -38 245 -99 668 -115 795 -6 44 -23 166 -39 270 -16 105 -30 207 -31 228 -1 21 -15 127 -32 234 -16 108 -34 251 -39 319 -6 68 -15 156 -20 196 -5 40 -10 103 -10 140 0 73 7 85 80 139 71 52 286 149 331 149 11 0 28 4 37 9 28 15 249 58 382 75 406 51 702 63 1135 46z m-535 -8743 c0 -122 8 -163 47 -247 20 -44 37 -64 81 -93 71 -47 129 -51 362 -21 205 25 324 15 381 -33 31 -26 39 25 40 250 1 201 8 230 23 92 3 -27 17 -108 31 -180 14 -71 28 -169 32 -217 l6 -86 181 -91 c100 -51 241 -123 315 -161 l135 -69 -160 -76 c-87 -42 -211 -101 -274 -131 -63 -30 -146 -70 -185 -89 -38 -19 -126 -61 -195 -93 -69 -33 -174 -83 -235 -112 -60 -29 -121 -53 -136 -53 -14 0 -55 14 -92 32 -38 17 -85 38 -105 45 -20 8 -91 37 -157 66 -66 29 -136 58 -156 66 -20 7 -71 29 -112 49 -42 19 -80 35 -85 35 -6 0 -42 16 -81 35 -39 19 -75 35 -81 35 -5 0 -38 13 -72 29 -35 16 -90 40 -123 54 -161 67 -170 72 -170 92 0 10 11 25 25 32 28 14 259 125 473 228 114 55 137 69 137 88 3 115 11 190 25 223 27 64 96 315 102 371 10 88 23 48 23 -70z"/>
<path d="M2250 5371 l0 -798 329 -5 330 -5 54 -56 c68 -70 102 -87 170 -87 68 0 103 18 182 91 55 52 68 59 103 59 29 0 41 5 44 18 4 14 71 46 120 56 7 2 20 6 28 9 106 40 214 77 228 77 10 0 22 4 28 9 5 4 54 23 109 41 55 19 114 39 130 46 17 7 62 22 100 35 223 73 255 92 255 150 0 10 4 27 9 37 12 23 49 191 61 277 13 98 13 185 -2 185 -14 0 -268 -128 -360 -181 -36 -22 -70 -39 -74 -39 -4 0 -21 -11 -38 -24 -17 -12 -47 -31 -66 -41 -63 -32 -344 -222 -390 -264 -25 -22 -48 -41 -51 -41 -4 0 -21 -13 -39 -30 -18 -16 -36 -30 -41 -30 -5 0 -9 277 -9 655 l0 655 -605 0 -605 0 0 -799z m1160 -6 l0 -745 -139 0 c-143 0 -201 6 -201 21 0 5 72 9 160 9 l160 0 0 725 0 725 -530 0 -530 0 0 -725 0 -725 270 0 c233 0 270 -2 270 -15 0 -13 -38 -15 -285 -15 l-285 0 0 745 0 745 555 0 555 0 0 -745z m-631 538 c19 -38 40 -76 49 -85 14 -16 16 -16 31 5 9 12 30 48 46 79 17 32 33 58 36 58 3 0 13 -15 22 -34 15 -32 18 -34 56 -29 23 3 41 3 41 -1 0 -10 -61 -119 -78 -138 -12 -15 -12 -20 2 -40 11 -15 16 -44 16 -86 0 -59 -2 -65 -38 -103 -32 -35 -43 -41 -82 -42 -92 -3 -169 63 -178 152 -2 26 1 57 7 68 9 17 3 34 -34 98 -24 43 -49 83 -55 89 -20 20 -9 27 34 21 42 -7 45 -6 60 24 9 17 20 31 24 31 5 0 23 -30 41 -67z m401 -177 c0 -8 20 -26 45 -40 25 -15 45 -31 45 -36 0 -14 -9 -12 -46 10 l-32 21 -13 -36 c-14 -37 -26 -44 -35 -20 -4 8 -12 15 -19 15 -7 0 -15 14 -18 30 -10 48 -30 37 -22 -11 6 -33 4 -40 -6 -37 -27 9 -23 108 4 108 7 0 27 -13 45 -30 18 -16 35 -30 38 -30 3 0 2 16 -2 35 -4 23 -2 35 5 35 6 0 11 -6 11 -14z m35 -421 c0 -6 -128 -11 -357 -13 -315 -2 -358 0 -358 13 0 13 43 15 358 13 229 -2 357 -7 357 -13z m0 -55 c0 -13 -47 -15 -349 -18 -205 -1 -354 2 -359 7 -28 28 11 31 356 29 305 -3 352 -5 352 -18z m0 -50 c0 -13 -46 -15 -355 -15 -331 0 -355 1 -358 18 -3 16 17 17 355 15 310 -3 358 -5 358 -18z m0 -55 c0 -6 -128 -11 -357 -13 -315 -2 -358 0 -358 13 0 13 43 15 358 13 229 -2 357 -7 357 -13z m-115 -350 c0 -11 -11 -15 -36 -15 -31 0 -35 -3 -29 -20 6 -20 2 -20 -180 -20 -181 0 -187 1 -182 19 4 16 -1 20 -26 23 -17 2 -32 9 -35 16 -3 9 50 12 242 12 212 0 246 -2 246 -15z"/>
</g>
<g id="layer109" fill="#f09c65" stroke="none">
<path d="M820 11964 c-19 -13 -43 -31 -54 -40 -40 -34 -185 -103 -278 -133 -115 -36 -236 -52 -335 -42 l-72 7 -23 -56 c-13 -30 -23 -57 -23 -60 -1 -3 -9 -19 -18 -37 -16 -30 -17 -381 -17 -5818 l0 -5785 2620 0 2620 0 0 5995 0 5995 -640 0 c-352 0 -640 -3 -640 -7 -1 -46 -25 -157 -40 -189 -10 -23 -22 -55 -26 -70 -4 -16 -10 -33 -14 -39 -4 -5 -12 -25 -18 -42 l-11 -33 95 0 94 0 0 -52 c0 -29 5 -274 12 -544 l12 -491 49 -12 c27 -6 61 -11 75 -11 52 0 324 -75 361 -100 l23 -15 -12 -185 c-19 -324 -137 -1422 -266 -2475 -19 -159 -36 -301 -36 -315 0 -14 -15 -140 -34 -280 -18 -140 -35 -284 -37 -320 -3 -36 -21 -191 -41 -345 -80 -629 -101 -805 -97 -805 3 0 36 19 74 41 l69 41 122 -4 c112 -5 126 -8 186 -38 110 -56 161 -115 223 -260 68 -161 103 -526 65 -665 -9 -33 -19 -71 -21 -85 -6 -30 -71 -205 -102 -275 -72 -157 -262 -534 -283 -560 -5 -6 -28 -46 -51 -90 -24 -44 -55 -102 -70 -130 -118 -216 -137 -252 -170 -328 -12 -27 -26 -54 -31 -60 -6 -7 -26 -37 -46 -67 -48 -72 -135 -162 -204 -208 -30 -20 -61 -43 -68 -49 -7 -7 -30 -17 -50 -22 -20 -5 -82 -22 -137 -37 -55 -15 -118 -28 -140 -30 -22 -2 -64 -8 -93 -14 -52 -9 -55 -9 -93 22 l-39 31 0 122 c0 139 -22 366 -51 535 -11 63 -24 142 -29 175 -15 113 -119 488 -164 590 -35 79 -49 105 -55 105 -18 0 -158 -362 -186 -480 -7 -30 -24 -93 -37 -140 -53 -178 -167 -694 -176 -792 -5 -58 -5 -58 -65 -99 -75 -52 -125 -73 -140 -61 -7 5 -28 10 -47 10 -19 1 -74 13 -123 27 -48 14 -94 25 -102 25 -42 0 -335 135 -418 192 -39 28 -95 116 -156 248 -29 63 -62 132 -72 153 -10 21 -19 42 -19 47 0 6 -17 52 -38 103 -33 79 -71 179 -121 317 -7 19 -30 85 -51 145 -21 61 -64 182 -95 270 -31 88 -58 171 -60 185 -2 14 -20 68 -39 120 -20 52 -36 101 -36 109 0 7 -16 61 -35 120 -178 546 -230 849 -180 1046 26 100 137 186 315 245 65 21 180 64 275 103 28 11 84 31 125 43 60 18 75 26 73 41 0 10 -15 106 -32 213 -16 107 -46 303 -66 435 -20 132 -52 341 -72 465 -20 124 -37 245 -39 270 -2 25 -19 146 -38 270 -38 245 -99 668 -115 795 -6 44 -23 166 -39 270 -16 105 -30 207 -31 228 -1 21 -15 127 -32 234 -16 108 -34 251 -39 319 -6 68 -15 156 -20 196 -5 40 -10 103 -10 140 0 73 7 85 80 139 68 51 243 131 325 149 22 5 84 20 138 34 54 14 117 28 140 31 l42 6 -3 75 c-2 40 6 185 18 321 12 137 22 275 22 308 -1 32 3 64 8 70 5 6 12 61 16 123 l7 111 28 3 27 3 -35 90 c-62 159 -65 169 -70 243 l-6 72 -416 0 -416 -1 -35 -25z m1560 -10077 c0 -122 8 -163 47 -247 20 -44 37 -64 81 -93 71 -47 129 -51 362 -21 205 25 324 15 381 -33 31 -26 39 25 40 250 1 201 8 230 23 92 3 -27 17 -108 31 -180 14 -71 28 -169 32 -217 l6 -86 181 -91 c100 -51 241 -123 315 -161 l135 -69 -160 -76 c-87 -42 -211 -101 -274 -131 -63 -30 -146 -70 -185 -89 -38 -19 -126 -61 -195 -93 -69 -33 -174 -83 -235 -112 -60 -29 -121 -53 -136 -53 -14 0 -55 14 -92 32 -38 17 -85 38 -105 45 -20 8 -91 37 -157 66 -66 29 -136 58 -156 66 -20 7 -71 29 -112 49 -42 19 -80 35 -85 35 -6 0 -42 16 -81 35 -39 19 -75 35 -81 35 -5 0 -38 13 -72 29 -35 16 -90 40 -123 54 -161 67 -170 72 -170 92 0 10 11 25 25 32 28 14 259 125 473 228 114 55 137 69 137 88 3 115 11 190 25 223 27 64 96 315 102 371 10 88 23 48 23 -70z"/>
<path d="M2260 11893 c0 -92 -27 -248 -51 -295 -7 -14 -5 -18 10 -18 11 0 23 5 26 10 9 15 230 13 243 -2 12 -16 52 -314 89 -673 l28 -270 105 -6 c58 -4 174 -9 258 -12 l152 -5 0 41 c0 23 18 159 39 302 22 143 53 346 68 450 l28 190 83 3 c45 2 82 6 82 9 0 4 -9 39 -20 79 -11 40 -20 76 -19 81 1 4 1 54 0 111 l-1 102 -560 0 -560 0 0 -97z"/>
<path d="M2250 5370 l0 -800 260 -2 c143 -1 292 -3 331 -3 l72 0 61 -63 c63 -65 98 -81 177 -82 50 0 90 22 164 91 55 52 68 59 103 59 29 0 41 5 44 18 4 14 71 46 120 56 7 2 20 6 28 9 106 40 214 77 228 77 10 0 22 4 28 9 5 4 54 23 109 41 55 19 114 39 130 46 17 7 62 22 100 35 223 73 255 92 255 150 0 10 4 27 9 37 12 23 49 191 61 277 13 98 13 185 -2 185 -14 0 -268 -128 -360 -181 -36 -22 -70 -39 -74 -39 -4 0 -21 -11 -38 -24 -17 -12 -47 -31 -66 -41 -63 -32 -344 -222 -390 -264 -25 -22 -48 -41 -51 -41 -4 0 -21 -13 -39 -30 -18 -16 -36 -30 -41 -30 -5 0 -9 277 -9 655 l0 655 -605 0 -605 0 0 -800z m1160 -5 l0 -745 -139 0 c-143 0 -201 6 -201 21 0 5 72 9 160 9 l160 0 0 725 0 725 -530 0 -530 0 0 -725 0 -725 270 0 c233 0 270 -2 270 -15 0 -13 -38 -15 -285 -15 l-285 0 0 745 0 745 555 0 555 0 0 -745z m-631 538 c19 -38 40 -76 49 -85 14 -16 16 -16 31 5 9 12 30 48 46 79 17 32 33 58 36 58 3 0 13 -15 22 -34 15 -32 18 -34 56 -29 23 3 41 3 41 -1 0 -10 -61 -119 -78 -138 -12 -15 -12 -20 2 -40 11 -15 16 -44 16 -86 0 -59 -2 -65 -38 -103 -32 -35 -43 -41 -82 -42 -92 -3 -169 63 -178 152 -2 26 1 57 7 68 9 17 3 34 -34 98 -24 43 -49 83 -55 89 -20 20 -9 27 34 21 42 -7 45 -6 60 24 9 17 20 31 24 31 5 0 23 -30 41 -67z m401 -177 c0 -8 20 -26 45 -40 25 -15 45 -31 45 -36 0 -14 -9 -12 -46 10 l-32 21 -13 -36 c-14 -37 -26 -44 -35 -20 -4 8 -12 15 -19 15 -7 0 -15 14 -18 30 -10 48 -30 37 -22 -11 6 -33 4 -40 -6 -37 -27 9 -23 108 4 108 7 0 27 -13 45 -30 18 -16 35 -30 38 -30 3 0 2 16 -2 35 -4 23 -2 35 5 35 6 0 11 -6 11 -14z m35 -421 c0 -6 -128 -11 -357 -13 -315 -2 -358 0 -358 13 0 13 43 15 358 13 229 -2 357 -7 357 -13z m0 -55 c0 -13 -47 -15 -349 -18 -205 -1 -354 2 -359 7 -28 28 11 31 356 29 305 -3 352 -5 352 -18z m0 -50 c0 -13 -46 -15 -355 -15 -331 0 -355 1 -358 18 -3 16 17 17 355 15 310 -3 358 -5 358 -18z m0 -55 c0 -6 -128 -11 -357 -13 -315 -2 -358 0 -358 13 0 13 43 15 358 13 229 -2 357 -7 357 -13z m-115 -350 c0 -11 -11 -15 -36 -15 -31 0 -35 -3 -29 -20 6 -20 2 -20 -180 -20 -181 0 -187 1 -182 19 4 16 -1 20 -26 23 -17 2 -32 9 -35 16 -3 9 50 12 242 12 212 0 246 -2 246 -15z"/>
</g>
<g id="layer110" fill="#ffb27d" stroke="none">
<path d="M820 11964 c-19 -13 -43 -31 -54 -40 -40 -34 -185 -103 -278 -133 -115 -36 -236 -52 -335 -42 l-72 7 -23 -56 c-13 -30 -23 -57 -23 -60 -1 -3 -9 -19 -18 -37 -16 -30 -17 -381 -17 -5818 l0 -5785 2620 0 2620 0 0 5995 0 5995 -640 0 c-352 0 -640 -3 -640 -7 -1 -46 -25 -157 -40 -189 -10 -23 -22 -55 -26 -70 -4 -16 -10 -33 -14 -39 -4 -5 -12 -25 -18 -42 l-11 -33 95 0 94 0 0 -52 c0 -29 5 -274 12 -544 l12 -491 49 -12 c27 -6 61 -11 75 -11 52 0 324 -75 361 -100 l23 -15 -12 -185 c-19 -324 -137 -1422 -266 -2475 -19 -159 -36 -301 -36 -315 0 -14 -15 -140 -34 -280 -18 -140 -35 -284 -37 -320 -3 -36 -21 -191 -41 -345 -80 -629 -101 -805 -97 -805 3 0 36 19 74 41 l69 41 122 -4 c112 -5 126 -8 186 -38 110 -56 161 -115 223 -260 68 -161 103 -526 65 -665 -9 -33 -19 -71 -21 -85 -6 -30 -71 -205 -102 -275 -72 -157 -262 -534 -283 -560 -5 -6 -28 -46 -51 -90 -24 -44 -55 -102 -70 -130 -118 -216 -137 -252 -170 -328 -12 -27 -26 -54 -31 -60 -6 -7 -26 -37 -46 -67 -48 -72 -135 -162 -204 -208 -30 -20 -61 -43 -68 -49 -7 -7 -30 -17 -50 -22 -20 -5 -86 -23 -147 -40 -208 -56 -265 -60 -316 -19 l-36 29 -12 222 c-14 254 -23 343 -57 514 -13 68 -24 133 -24 146 0 13 -16 82 -36 153 -20 71 -40 146 -44 166 -14 70 -117 328 -132 328 -4 0 -11 -12 -14 -27 -4 -16 -20 -55 -36 -87 -17 -33 -32 -70 -34 -84 -3 -14 -13 -44 -23 -66 -11 -23 -26 -63 -35 -91 -33 -101 -79 -260 -81 -277 -1 -10 -4 -21 -8 -24 -4 -4 -7 -17 -7 -28 0 -12 -13 -66 -29 -122 -16 -55 -31 -124 -35 -153 -4 -30 -8 -57 -11 -61 -7 -11 -65 -279 -63 -287 1 -5 -4 -43 -11 -86 l-14 -78 -61 -42 c-34 -22 -67 -47 -75 -55 -17 -17 -64 -11 -201 25 -52 14 -113 29 -135 33 -84 19 -328 131 -418 193 -39 27 -95 115 -156 247 -29 63 -62 132 -72 153 -10 21 -19 42 -19 47 0 6 -17 52 -38 103 -33 79 -71 179 -121 317 -7 19 -30 85 -51 145 -21 61 -64 182 -95 270 -31 88 -58 171 -60 185 -2 14 -20 68 -39 120 -20 52 -36 101 -36 109 0 7 -16 61 -35 120 -178 546 -230 849 -180 1046 11 43 58 108 102 142 45 34 146 83 223 108 59 19 60 20 165 63 56 23 213 76 293 98 7 2 11 12 8 21 -5 21 -50 308 -101 648 -20 132 -52 341 -72 465 -20 124 -37 245 -39 270 -2 25 -19 146 -38 270 -38 245 -99 668 -115 795 -6 44 -23 166 -39 270 -16 105 -30 207 -31 228 -1 21 -15 127 -32 234 -16 108 -34 251 -39 319 -6 68 -15 156 -20 196 -5 40 -10 103 -10 140 0 73 7 85 80 139 69 51 244 131 325 149 22 5 74 18 115 28 41 11 101 26 133 32 50 10 57 14 57 34 0 13 12 158 26 322 14 165 26 327 25 361 0 34 4 65 9 68 6 4 10 37 10 74 0 38 3 89 6 115 6 40 10 46 30 46 32 0 31 14 -12 118 -44 107 -64 182 -64 245 l0 47 -417 0 -418 -1 -35 -25z m2166 -9422 c53 -33 101 -91 128 -156 22 -52 20 -63 -6 -40 -85 75 -194 124 -274 124 -77 0 -204 -61 -286 -138 -37 -34 -35 -21 6 47 47 75 119 144 186 176 47 22 65 25 125 22 57 -3 80 -10 121 -35z m-599 -499 c-4 -3 -10 -3 -14 0 -3 4 0 7 7 7 7 0 10 -3 7 -7z m-4 -150 c9 -184 19 -222 75 -300 29 -39 96 -73 145 -73 20 0 39 -5 42 -10 5 -7 11 -8 19 -1 6 5 110 15 231 22 232 13 319 7 355 -26 9 -8 20 -12 23 -8 4 3 7 107 7 230 0 260 11 292 35 98 3 -22 16 -98 30 -170 14 -71 28 -169 32 -217 l6 -86 181 -91 c100 -51 241 -123 315 -161 l135 -69 -160 -76 c-87 -42 -211 -101 -274 -131 -63 -30 -146 -70 -185 -89 -38 -19 -126 -61 -195 -93 -69 -33 -174 -83 -235 -112 -60 -29 -121 -53 -136 -53 -14 0 -55 14 -92 32 -38 17 -85 38 -105 45 -20 8 -91 37 -157 66 -66 29 -136 58 -156 66 -20 7 -71 29 -112 49 -42 19 -80 35 -85 35 -6 0 -42 16 -81 35 -39 19 -75 35 -81 35 -5 0 -38 13 -72 29 -35 16 -90 40 -123 54 -161 67 -170 72 -170 92 0 10 11 25 25 32 28 14 259 125 473 228 114 55 137 69 137 88 3 115 11 190 25 223 27 65 96 315 102 372 3 28 9 52 13 52 4 0 10 -53 13 -117z"/>
<path d="M2260 11890 c0 -66 -6 -125 -19 -173 -29 -112 -32 -137 -18 -137 7 0 18 5 23 10 7 7 57 10 130 8 l119 -3 27 -185 c15 -102 32 -248 38 -325 6 -77 19 -207 28 -290 l17 -150 105 -6 c58 -4 171 -9 251 -12 l146 -5 41 272 c23 149 51 339 63 421 11 83 26 183 32 223 l11 72 83 0 c46 0 83 3 83 7 0 4 -9 39 -20 79 -11 40 -20 76 -19 81 1 4 1 54 0 111 l-1 102 -560 0 -560 0 0 -100z"/>
<path d="M2250 5370 l0 -800 329 0 330 0 55 -59 c42 -43 69 -62 107 -75 100 -32 146 -17 251 84 46 44 57 50 95 50 32 0 43 4 43 15 0 9 12 20 28 26 42 17 299 108 377 134 39 13 142 49 230 79 88 31 201 70 250 87 91 32 105 41 105 71 0 9 5 29 11 45 7 15 13 35 14 43 1 8 12 51 23 95 12 48 23 134 28 213 l7 132 -34 -14 c-30 -13 -156 -77 -309 -158 -83 -43 -254 -146 -355 -213 -49 -32 -97 -64 -106 -70 -20 -12 -112 -82 -193 -147 -33 -27 -64 -48 -68 -48 -4 0 -8 295 -8 655 l0 655 -605 0 -605 0 0 -800z m1160 -5 l0 -745 -154 0 c-85 0 -161 3 -170 6 -44 17 -1 24 144 24 l160 0 0 725 0 725 -530 0 -530 0 0 -725 0 -725 270 0 c233 0 270 -2 270 -15 0 -13 -38 -15 -285 -15 l-285 0 0 745 0 745 555 0 555 0 0 -745z m-650 578 c34 -62 75 -131 81 -138 4 -3 16 14 28 37 38 73 66 118 74 118 4 0 13 -13 18 -30 10 -29 13 -30 60 -26 27 2 49 1 49 -3 0 -3 -9 -17 -20 -31 -11 -14 -20 -28 -20 -33 0 -4 -13 -28 -29 -53 l-29 -47 20 -34 c34 -57 9 -162 -47 -199 -34 -22 -116 -22 -149 -1 -14 9 -31 17 -38 17 -7 1 -24 23 -37 50 -20 42 -23 58 -17 111 5 57 3 66 -26 118 -17 31 -40 67 -50 80 -28 37 -23 44 27 36 45 -6 46 -6 60 29 9 20 17 36 20 36 2 0 14 -17 25 -37z m420 -217 c0 -8 20 -26 45 -40 25 -15 45 -31 45 -36 0 -14 -9 -12 -46 10 l-32 21 -13 -36 c-14 -37 -26 -44 -35 -20 -4 8 -12 15 -19 15 -7 0 -15 14 -18 30 -10 48 -30 37 -22 -11 6 -33 4 -40 -6 -37 -27 9 -23 108 4 108 7 0 27 -13 45 -30 18 -16 35 -30 38 -30 3 0 2 16 -2 35 -4 23 -2 35 5 35 6 0 11 -6 11 -14z m35 -421 c0 -6 -128 -11 -357 -13 -315 -2 -358 0 -358 13 0 13 43 15 358 13 229 -2 357 -7 357 -13z m0 -55 c0 -13 -47 -15 -349 -18 -205 -1 -354 2 -359 7 -28 28 11 31 356 29 305 -3 352 -5 352 -18z m0 -50 c0 -13 -46 -15 -355 -15 -331 0 -355 1 -358 18 -3 16 17 17 355 15 310 -3 358 -5 358 -18z m0 -55 c0 -6 -128 -11 -357 -13 -315 -2 -358 0 -358 13 0 13 43 15 358 13 229 -2 357 -7 357 -13z m-115 -350 c0 -11 -11 -15 -36 -15 -31 0 -35 -3 -29 -20 6 -20 2 -20 -180 -20 -181 0 -187 1 -182 19 4 16 -1 20 -26 23 -17 2 -32 9 -35 16 -3 9 50 12 242 12 212 0 246 -2 246 -15z"/>
</g>
<g id="layer111" fill="#d6e5f8" stroke="none">
<path d="M820 11964 c-19 -13 -43 -31 -54 -40 -40 -34 -185 -103 -278 -133 -115 -36 -236 -52 -335 -42 l-72 7 -23 -56 c-13 -30 -23 -57 -23 -60 -1 -3 -9 -19 -18 -37 -16 -30 -17 -381 -17 -5818 l0 -5785 2620 0 2620 0 0 5995 0 5995 -640 0 c-352 0 -640 -3 -640 -7 -1 -46 -25 -157 -40 -189 -10 -23 -22 -55 -26 -70 -4 -16 -10 -33 -14 -39 -4 -5 -12 -25 -18 -42 l-11 -33 95 0 94 0 0 -52 c0 -29 5 -274 12 -544 l12 -491 49 -12 c27 -6 61 -11 75 -11 52 0 324 -75 361 -100 l23 -15 -12 -185 c-19 -324 -137 -1422 -266 -2475 -19 -159 -36 -301 -36 -315 0 -14 -15 -140 -34 -280 -18 -140 -35 -284 -37 -320 -3 -36 -21 -191 -41 -345 -80 -629 -101 -805 -97 -805 3 0 36 19 74 41 l69 41 122 -4 c112 -5 126 -8 186 -38 110 -56 161 -115 223 -260 68 -161 103 -526 65 -665 -9 -33 -19 -71 -21 -85 -6 -30 -71 -205 -102 -275 -72 -157 -262 -534 -283 -560 -5 -6 -28 -46 -51 -90 -24 -44 -55 -102 -70 -130 -118 -216 -137 -252 -170 -328 -12 -27 -26 -54 -31 -60 -6 -7 -26 -37 -46 -67 -48 -72 -135 -162 -204 -208 -30 -20 -61 -43 -68 -49 -7 -7 -30 -17 -50 -22 -20 -5 -86 -23 -147 -40 -208 -56 -265 -60 -316 -19 l-36 29 -12 222 c-14 265 -23 345 -63 542 -17 83 -32 166 -35 185 -2 19 -14 67 -25 105 -11 39 -26 95 -33 125 -15 62 -44 150 -55 165 -4 6 -13 28 -19 50 -19 62 -53 135 -64 135 -6 0 -8 -3 -4 -6 3 -4 -12 -43 -34 -87 -23 -44 -43 -92 -45 -105 -3 -14 -13 -44 -23 -66 -11 -23 -26 -63 -35 -91 -41 -130 -79 -263 -82 -287 -2 -15 -19 -83 -38 -150 -19 -68 -37 -141 -40 -163 -3 -22 -21 -108 -41 -192 -19 -84 -34 -156 -33 -160 1 -4 -4 -43 -11 -86 l-14 -78 -61 -42 c-34 -22 -67 -47 -75 -55 -17 -17 -64 -11 -201 25 -52 14 -113 29 -135 33 -84 19 -328 131 -418 193 -39 27 -95 115 -156 247 -29 63 -62 132 -72 153 -10 21 -19 42 -19 47 0 6 -17 52 -38 103 -33 79 -71 179 -121 317 -7 19 -30 85 -51 145 -21 61 -64 182 -95 270 -31 88 -58 171 -60 185 -2 14 -20 68 -39 120 -20 52 -36 101 -36 109 0 7 -16 61 -35 120 -178 546 -230 849 -180 1046 17 65 104 161 163 180 19 5 22 12 18 33 -3 15 -12 106 -20 202 -52 588 -46 542 -75 576 -14 17 -60 53 -101 80 -41 27 -87 59 -102 72 -26 22 -99 148 -105 181 -16 86 -16 101 1 101 23 0 60 -25 126 -83 30 -27 78 -60 105 -74 28 -14 57 -31 65 -38 8 -8 28 -17 44 -21 l29 -7 -40 56 c-43 60 -54 122 -22 122 21 0 164 -160 193 -217 21 -41 22 -53 14 -100 -9 -51 -7 -59 28 -134 21 -43 39 -84 40 -90 1 -6 13 -35 27 -65 14 -30 36 -81 50 -114 39 -94 92 -215 117 -268 17 -36 27 -46 39 -42 14 6 157 52 189 61 7 2 11 12 8 21 -5 21 -50 308 -101 648 -20 132 -52 341 -72 465 -20 124 -37 245 -39 270 -2 25 -19 146 -38 270 -38 245 -99 668 -115 795 -6 44 -23 166 -39 270 -16 105 -30 207 -31 228 -1 21 -15 127 -32 234 -16 108 -34 251 -39 319 -6 68 -15 156 -20 196 -5 40 -10 103 -10 140 0 73 7 85 80 139 69 51 244 131 325 149 22 5 74 18 115 28 41 11 101 26 133 32 50 10 57 14 57 34 0 13 11 156 24 317 14 162 25 316 25 344 0 27 8 114 17 192 16 139 18 143 40 143 13 0 24 5 24 10 0 6 -16 50 -36 98 -44 107 -64 182 -64 245 l0 47 -417 0 -418 -1 -35 -25z m2044 -9109 c25 -24 194 -148 261 -192 18 -12 36 -27 40 -32 3 -6 -1 -57 -10 -115 -25 -169 -22 -190 29 -256 58 -73 95 -166 106 -264 5 -43 12 -86 14 -95 3 -9 7 -38 10 -66 3 -27 17 -108 31 -180 14 -71 28 -169 32 -217 l6 -86 181 -91 c100 -51 241 -123 315 -161 l135 -69 -160 -76 c-87 -42 -211 -101 -274 -131 -63 -30 -146 -70 -185 -89 -38 -19 -126 -61 -195 -93 -69 -33 -174 -83 -235 -112 -60 -29 -121 -53 -136 -53 -14 0 -55 14 -92 32 -38 17 -85 38 -105 45 -20 8 -91 37 -157 66 -66 29 -136 58 -156 66 -20 7 -71 29 -112 49 -42 19 -80 35 -85 35 -6 0 -42 16 -81 35 -39 19 -75 35 -81 35 -5 0 -38 13 -72 29 -35 16 -90 40 -123 54 -121 50 -180 77 -172 77 5 0 2 6 -6 14 -21 21 -29 133 -17 238 9 78 18 108 56 185 25 50 63 111 85 135 22 23 47 55 56 69 19 31 79 57 96 40 8 -8 1 -19 -23 -41 -18 -16 -40 -30 -47 -30 -7 0 -16 0 -20 0 -18 -2 -76 -69 -113 -130 -53 -88 -80 -195 -80 -312 0 -51 3 -102 6 -114 6 -24 -10 -30 239 92 72 34 192 93 268 129 114 55 137 69 137 88 3 115 11 190 25 223 27 64 95 314 105 386 15 105 74 242 132 304 16 18 19 36 19 110 0 49 -5 123 -11 164 -10 72 -10 76 12 93 13 9 41 32 63 50 63 51 248 187 255 187 4 0 19 -11 34 -25z"/>
<path d="M2260 11890 c0 -58 -6 -123 -15 -157 -9 -32 -19 -76 -24 -98 l-7 -40 123 4 c165 4 173 2 173 -52 0 -23 16 -161 35 -307 20 -146 36 -292 36 -325 0 -33 6 -107 12 -165 l12 -105 105 -6 c58 -4 171 -9 251 -12 l145 -5 31 202 c17 110 31 210 31 222 0 11 15 110 33 220 17 109 33 226 35 259 3 33 6 66 9 73 3 8 31 12 90 12 47 0 85 3 85 7 0 4 -9 39 -20 79 -11 40 -20 76 -19 81 1 4 1 54 0 111 l-1 102 -560 0 -560 0 0 -100z"/>
</g>
<g id="layer112" fill="#fcecdb" stroke="none">
<path d="M845 11977 c-11 -7 -24 -18 -28 -24 -4 -7 -14 -13 -21 -13 -7 0 -26 -11 -42 -25 -33 -29 -224 -125 -248 -125 -9 0 -51 -10 -93 -22 -61 -16 -107 -22 -208 -22 l-129 -1 -6 -30 c-4 -16 -21 -57 -38 -89 l-32 -59 0 -5783 0 -5784 2620 0 2620 0 0 5995 0 5995 -639 0 -639 0 -7 -52 c-10 -86 -26 -150 -53 -208 -14 -30 -31 -70 -37 -87 l-13 -33 93 0 92 0 6 -257 c4 -142 10 -385 14 -540 4 -208 9 -283 18 -283 7 0 26 -7 44 -16 18 -9 41 -14 52 -11 11 3 32 2 47 -3 15 -4 63 -16 107 -25 44 -10 87 -20 95 -23 8 -2 24 -6 36 -7 12 -2 44 -15 73 -30 50 -27 51 -28 51 -74 0 -26 -4 -51 -9 -57 -6 -5 -13 -74 -16 -154 -3 -80 -14 -223 -25 -317 -11 -95 -20 -204 -20 -242 0 -40 -5 -73 -11 -77 -7 -4 -9 -21 -6 -40 3 -19 1 -36 -4 -39 -5 -4 -9 -32 -9 -64 0 -31 -7 -109 -15 -172 -8 -63 -20 -177 -26 -254 -5 -77 -14 -144 -19 -150 -5 -6 -14 -70 -19 -141 -6 -71 -17 -178 -26 -238 -8 -60 -15 -138 -15 -172 0 -35 -5 -66 -11 -70 -6 -3 -9 -19 -5 -35 3 -15 1 -31 -4 -34 -6 -3 -10 -28 -10 -54 0 -27 -9 -115 -20 -196 -11 -81 -20 -176 -20 -211 0 -35 -5 -66 -11 -70 -6 -3 -9 -19 -5 -35 3 -15 1 -31 -4 -34 -5 -3 -9 -27 -9 -53 1 -26 -9 -112 -20 -191 -12 -80 -21 -171 -21 -202 0 -32 -5 -61 -11 -65 -7 -4 -9 -21 -6 -40 3 -19 1 -36 -5 -40 -5 -3 -8 -17 -5 -30 2 -14 -4 -79 -14 -147 -11 -67 -24 -183 -30 -257 -5 -74 -15 -140 -21 -147 -6 -7 -7 -24 -4 -37 3 -14 2 -28 -4 -31 -5 -3 -9 -25 -8 -48 0 -23 -9 -108 -21 -189 -11 -82 -21 -175 -21 -207 0 -33 -5 -63 -10 -66 -13 -8 -13 -36 0 -55 9 -13 12 -13 21 3 5 9 18 17 29 17 10 0 26 8 36 18 26 25 274 25 319 0 17 -9 42 -19 56 -22 46 -10 169 -141 169 -180 0 -7 9 -25 20 -39 11 -14 20 -31 20 -39 0 -7 9 -37 20 -66 11 -29 20 -65 20 -82 0 -16 5 -32 10 -35 6 -3 7 -17 4 -31 -3 -13 -1 -31 6 -38 17 -21 20 -397 3 -418 -7 -8 -10 -18 -7 -21 3 -3 2 -12 -2 -19 -4 -7 -9 -19 -10 -28 -1 -8 -11 -40 -23 -70 -12 -30 -21 -61 -21 -69 0 -8 -15 -46 -34 -85 -19 -39 -39 -88 -46 -108 -6 -20 -18 -42 -26 -48 -7 -7 -14 -17 -14 -22 0 -19 -32 -87 -95 -203 -23 -44 -58 -111 -78 -150 -19 -38 -44 -81 -56 -94 -11 -13 -21 -32 -21 -41 0 -10 -22 -50 -50 -90 -27 -41 -52 -86 -55 -102 -4 -15 -10 -28 -15 -28 -4 0 -13 -12 -19 -28 -7 -15 -27 -56 -46 -92 -19 -36 -35 -71 -35 -78 0 -7 -7 -15 -15 -18 -8 -4 -15 -13 -15 -21 0 -17 -48 -120 -58 -125 -11 -5 -48 -61 -56 -83 -7 -25 -114 -129 -175 -172 -57 -40 -140 -83 -162 -83 -9 0 -30 -7 -45 -15 -16 -8 -39 -15 -51 -15 -13 0 -55 -9 -95 -20 -40 -11 -102 -21 -138 -23 l-65 -4 -105 85 c-58 47 -116 97 -130 111 -32 32 -92 79 -105 81 -5 1 -31 -40 -57 -91 -37 -74 -48 -90 -53 -74 -14 41 -76 165 -84 165 -12 0 -353 -231 -379 -257 -7 -7 -19 -13 -25 -13 -32 0 -235 44 -259 56 -14 8 -38 14 -52 14 -15 0 -44 9 -66 20 -22 11 -50 20 -63 20 -13 0 -36 9 -50 20 -14 11 -29 20 -34 20 -4 1 -26 9 -48 20 -22 11 -45 19 -52 20 -7 0 -16 6 -20 14 -4 8 -29 24 -56 36 -45 21 -97 70 -97 91 0 6 -14 31 -31 55 -17 25 -35 60 -40 79 -5 18 -20 48 -33 67 -13 20 -29 53 -36 74 -6 22 -23 61 -37 87 -14 27 -22 51 -19 54 3 4 0 13 -7 22 -7 9 -21 41 -32 71 -10 30 -27 71 -37 90 -10 19 -18 43 -18 53 0 10 -9 37 -20 59 -11 23 -20 52 -20 64 0 12 -6 27 -14 33 -7 6 -16 26 -19 44 -3 17 -13 50 -23 72 -10 22 -19 47 -20 55 -1 8 -9 29 -18 45 -9 17 -16 38 -16 48 0 10 -13 49 -29 85 -16 37 -32 81 -36 97 -4 17 -16 57 -28 90 -11 33 -21 69 -23 81 -1 11 -6 29 -12 40 -16 31 -53 147 -56 174 -1 14 -7 34 -13 45 -14 26 -57 165 -58 186 0 9 -5 22 -12 30 -6 8 -16 40 -22 72 -6 31 -14 65 -19 75 -5 9 -13 35 -17 57 -4 22 -11 45 -16 51 -5 7 -9 16 -8 20 1 5 0 16 -3 24 -3 8 -11 42 -17 75 -7 33 -18 87 -26 120 -7 33 -11 65 -8 71 2 7 0 15 -5 18 -5 3 -7 26 -4 51 3 29 0 56 -8 71 -11 20 -11 28 0 48 7 13 10 39 8 57 -3 18 1 44 8 58 8 14 14 36 14 47 0 12 7 27 15 34 8 7 15 18 15 24 0 16 99 101 128 110 15 5 21 13 18 24 -2 9 -11 98 -20 197 -51 586 -46 547 -75 581 -14 17 -60 53 -101 80 -41 27 -87 59 -102 72 -26 22 -99 148 -105 181 -16 86 -16 101 1 101 23 0 60 -25 126 -83 30 -27 78 -60 105 -74 28 -14 57 -31 65 -38 8 -8 28 -17 44 -21 l29 -7 -40 56 c-43 60 -54 122 -22 122 21 0 164 -160 193 -217 21 -41 22 -53 14 -100 -9 -51 -7 -59 28 -134 21 -43 39 -84 40 -90 1 -6 13 -35 27 -65 14 -30 36 -81 50 -114 56 -135 136 -315 141 -315 8 0 114 44 123 52 7 5 17 7 22 4 5 -4 12 -2 16 4 3 5 18 10 32 10 20 0 23 3 15 13 -6 7 -9 22 -6 34 3 11 1 24 -5 27 -6 4 -11 29 -11 56 0 26 -7 84 -15 127 -9 43 -20 120 -25 172 -5 52 -14 99 -19 104 -6 6 -11 31 -11 57 0 25 -9 99 -21 165 -11 66 -22 146 -23 177 -2 32 -8 64 -14 71 -6 7 -9 22 -6 34 3 11 1 24 -5 27 -6 4 -11 26 -11 49 0 23 -10 98 -21 167 -12 69 -21 140 -21 158 0 17 -4 34 -9 37 -4 3 -6 19 -3 34 4 16 1 32 -5 35 -6 4 -11 27 -11 50 0 24 -9 97 -19 162 -11 66 -22 148 -25 184 -4 35 -11 69 -16 74 -6 6 -10 33 -10 61 0 27 -7 88 -15 134 -8 47 -18 117 -21 155 -4 39 -11 76 -16 82 -4 6 -6 19 -2 28 3 9 2 22 -4 29 -6 6 -13 46 -17 87 -3 41 -16 138 -27 215 -12 77 -21 154 -20 172 1 18 -2 35 -8 38 -5 3 -7 19 -4 34 4 16 1 32 -5 35 -6 4 -11 33 -11 64 0 31 -7 98 -15 147 -8 50 -20 151 -26 225 -6 74 -15 139 -20 144 -5 6 -9 68 -9 138 0 119 2 129 21 146 12 9 38 31 57 49 20 17 48 35 62 38 14 4 45 19 70 35 25 15 61 31 80 35 19 4 47 14 62 21 15 8 40 14 56 14 16 0 35 7 42 15 7 8 24 15 39 15 23 0 213 38 217 43 2 3 52 650 53 687 0 19 8 101 17 183 16 143 17 147 40 147 29 0 30 15 4 55 -11 17 -20 40 -20 53 0 12 -10 42 -22 65 -12 23 -24 55 -25 72 -2 16 -8 34 -13 39 -6 6 -10 34 -10 63 l0 53 -407 -1 c-297 0 -413 -3 -428 -12z m2019 -9122 c25 -24 194 -148 261 -192 18 -12 36 -27 40 -32 3 -6 -1 -57 -10 -115 -25 -169 -22 -190 29 -256 57 -72 95 -165 106 -260 5 -41 13 -96 18 -122 5 -27 7 -48 5 -48 -2 0 -1 -6 4 -12 4 -7 8 -31 9 -52 1 -21 7 -49 12 -60 11 -24 42 -252 42 -311 0 -39 2 -41 58 -68 31 -15 64 -32 72 -37 8 -5 40 -21 70 -35 30 -14 62 -30 70 -35 8 -5 42 -22 75 -39 123 -62 200 -103 215 -112 8 -5 29 -14 45 -20 28 -10 28 -12 12 -23 -11 -6 -42 -26 -70 -44 -28 -17 -60 -32 -72 -32 -11 0 -45 -16 -75 -35 -30 -19 -60 -35 -68 -35 -8 0 -44 -15 -81 -34 -36 -19 -88 -45 -116 -57 -27 -12 -57 -26 -65 -30 -61 -34 -140 -69 -153 -69 -9 0 -18 -4 -21 -9 -6 -9 -59 -37 -116 -60 -14 -6 -32 -15 -40 -20 -26 -15 -107 -51 -115 -51 -5 0 -16 -6 -24 -14 -9 -7 -46 -25 -82 -39 -70 -28 -103 -26 -155 8 -13 8 -32 15 -42 15 -11 0 -25 7 -32 15 -7 8 -15 13 -19 10 -4 -2 -29 7 -56 20 -27 14 -54 25 -60 25 -6 0 -42 16 -81 35 -38 19 -76 35 -85 35 -9 0 -22 7 -29 15 -7 8 -20 15 -29 15 -9 0 -28 6 -43 14 -14 8 -43 19 -65 26 -21 7 -68 28 -104 46 -36 19 -72 34 -81 34 -9 0 -21 7 -28 15 -7 8 -18 15 -25 15 -12 0 -73 24 -140 55 -56 26 -128 55 -136 55 -16 0 -100 42 -95 47 3 3 -1 11 -8 18 -20 20 -28 134 -16 237 9 78 18 108 56 185 25 50 63 111 85 135 22 23 47 55 56 69 19 31 79 57 96 40 8 -8 1 -19 -23 -41 -18 -16 -40 -30 -47 -30 -7 0 -16 0 -20 0 -18 -2 -76 -69 -113 -130 -53 -88 -80 -195 -80 -312 0 -51 3 -103 6 -114 l6 -21 41 23 c23 13 49 26 57 30 8 3 38 17 67 30 28 13 55 24 59 24 4 0 15 6 23 14 9 7 43 24 76 37 33 13 64 29 68 36 4 7 14 13 21 13 7 0 31 9 54 20 22 11 45 20 50 20 6 0 12 7 16 15 3 8 14 15 24 15 35 0 82 30 82 53 1 123 26 281 50 312 12 16 50 151 50 178 0 13 7 38 16 55 8 18 13 36 10 41 -9 14 33 151 65 216 17 33 44 77 60 98 28 35 30 43 30 125 0 48 -5 121 -11 162 -10 72 -10 76 12 93 13 9 41 32 63 50 63 51 248 187 255 187 4 0 19 -11 34 -25z"/>
<path d="M2725 2209 c-19 -17 -35 -35 -35 -39 0 -13 179 -22 238 -13 l53 8 -34 38 c-34 37 -36 37 -111 37 -70 0 -78 -2 -111 -31z"/>
<path d="M2258 11846 c-4 -96 -11 -155 -21 -177 -34 -77 -39 -74 100 -70 165 4 173 2 173 -52 0 -23 16 -161 35 -307 20 -146 36 -292 36 -325 0 -33 6 -107 12 -165 l12 -105 105 -7 c58 -3 171 -8 251 -11 l146 -4 30 201 c17 111 31 210 31 222 0 11 15 110 33 220 17 109 33 226 35 259 3 33 6 66 9 73 3 8 31 12 90 12 47 0 85 3 85 8 0 4 -9 39 -21 77 -16 54 -20 95 -19 183 l1 112 -559 0 -559 0 -5 -144z"/>
<path d="M2250 5370 l0 -800 330 0 330 0 -22 25 -22 25 -283 0 -283 0 0 745 0 745 555 0 555 0 0 -745 0 -745 -142 -1 -143 0 50 -24 c44 -21 64 -24 168 -25 l117 0 0 800 0 800 -605 0 -605 0 0 -800z"/>
<path d="M2330 5375 l0 -725 266 0 c223 0 268 2 280 15 19 19 44 19 114 0 38 -10 107 -15 228 -15 l172 0 0 725 0 725 -530 0 -530 0 0 -725z m448 538 c12 -19 32 -53 43 -75 l21 -41 29 49 c15 27 36 64 45 82 22 39 29 40 46 5 12 -25 19 -28 61 -27 26 0 47 -2 47 -5 0 -3 -9 -17 -20 -31 -11 -14 -20 -28 -20 -33 0 -4 -13 -28 -29 -54 l-29 -46 19 -31 c24 -39 24 -89 0 -143 -25 -53 -59 -75 -119 -76 -121 0 -180 67 -168 193 6 66 5 70 -28 119 -19 28 -32 51 -30 51 3 0 -4 12 -15 26 -31 40 -27 47 24 39 45 -6 46 -6 62 32 14 34 17 36 27 19 6 -10 21 -34 34 -53z m402 -187 c0 -8 20 -26 45 -40 25 -15 45 -31 45 -36 0 -14 -9 -12 -46 10 l-32 21 -13 -36 c-14 -37 -26 -44 -35 -20 -4 8 -12 15 -19 15 -7 0 -15 14 -18 30 -10 48 -30 37 -22 -11 6 -33 4 -40 -6 -37 -27 9 -23 108 4 108 7 0 27 -13 45 -30 18 -16 35 -30 38 -30 3 0 2 16 -2 35 -4 23 -2 35 5 35 6 0 11 -6 11 -14z m35 -421 c0 -6 -128 -11 -357 -13 -315 -2 -358 0 -358 13 0 13 43 15 358 13 229 -2 357 -7 357 -13z m0 -55 c0 -13 -47 -15 -349 -18 -205 -1 -354 2 -359 7 -28 28 11 31 356 29 305 -3 352 -5 352 -18z m0 -50 c0 -13 -46 -15 -355 -15 -331 0 -355 1 -358 18 -3 16 17 17 355 15 310 -3 358 -5 358 -18z m0 -55 c0 -6 -128 -11 -357 -13 -315 -2 -358 0 -358 13 0 13 43 15 358 13 229 -2 357 -7 357 -13z m-115 -350 c0 -11 -11 -15 -36 -15 -31 0 -35 -3 -29 -20 6 -20 2 -20 -180 -20 -181 0 -187 1 -182 19 4 16 -1 20 -26 23 -17 2 -32 9 -35 16 -3 9 50 12 242 12 212 0 246 -2 246 -15z"/>
<path d="M2883 4394 c3 -4 -12 -43 -34 -87 -23 -44 -43 -92 -45 -105 -3 -14 -13 -44 -23 -66 -11 -23 -26 -63 -35 -91 -41 -130 -79 -263 -82 -287 -2 -15 -19 -83 -38 -150 -19 -68 -37 -141 -40 -163 -3 -22 -19 -98 -36 -170 -17 -71 -33 -152 -36 -180 -3 -27 -9 -67 -13 -87 -9 -37 0 -51 16 -25 8 14 185 144 207 153 13 5 39 -27 76 -93 l23 -42 18 23 c10 13 30 47 44 75 15 28 30 49 36 46 5 -4 66 -57 136 -120 70 -63 128 -113 131 -111 5 6 -16 366 -29 476 -6 52 -24 163 -41 245 -17 83 -32 166 -35 185 -2 19 -14 67 -25 105 -11 39 -26 95 -33 125 -15 62 -44 150 -55 165 -4 6 -13 28 -19 50 -19 62 -53 135 -64 135 -6 0 -8 -3 -4 -6z m-23 -459 c0 -13 -6 -25 -12 -28 -22 -7 -38 4 -38 28 0 13 6 25 13 28 21 7 37 -4 37 -28z m-2 -298 c3 -23 0 -27 -22 -27 -21 0 -26 5 -26 23 0 13 3 27 7 31 15 14 38 0 41 -27z m0 -284 c-2 -20 -9 -29 -25 -31 -18 -3 -23 1 -23 21 0 29 7 37 32 37 15 0 19 -6 16 -27z"/>
</g>
<g id="layer113" fill="#eef5fb" stroke="none">
<path d="M845 11977 c-11 -7 -24 -18 -28 -24 -4 -7 -14 -13 -21 -13 -7 0 -26 -11 -42 -25 -33 -29 -224 -125 -248 -125 -9 0 -51 -10 -93 -22 -61 -16 -107 -22 -208 -22 l-129 -1 -6 -30 c-4 -16 -21 -57 -38 -89 l-32 -59 0 -5783 0 -5784 2620 0 2620 0 0 5995 0 5995 -639 0 -639 0 -7 -52 c-10 -90 -26 -151 -55 -213 -52 -112 -55 -105 52 -105 l93 0 -3 -156 c-2 -86 0 -163 3 -172 4 -10 6 -101 5 -204 -1 -121 3 -188 9 -193 7 -4 11 -70 11 -183 l0 -177 42 -18 c23 -10 50 -16 60 -13 11 2 31 1 46 -4 15 -4 63 -16 107 -25 44 -10 87 -20 95 -23 8 -2 24 -6 36 -7 12 -2 44 -15 73 -30 50 -27 51 -28 51 -74 0 -26 -4 -51 -9 -57 -6 -5 -13 -74 -16 -154 -3 -80 -14 -223 -25 -317 -11 -95 -20 -204 -20 -242 0 -40 -5 -73 -11 -77 -7 -4 -9 -21 -6 -40 3 -19 1 -36 -4 -39 -5 -4 -9 -32 -9 -64 0 -31 -7 -109 -15 -172 -8 -63 -20 -177 -26 -254 -5 -77 -14 -144 -19 -150 -5 -6 -14 -70 -19 -141 -6 -71 -17 -178 -26 -238 -8 -60 -15 -138 -15 -172 0 -35 -5 -66 -11 -70 -6 -3 -9 -19 -5 -35 3 -15 1 -31 -4 -34 -6 -3 -10 -28 -10 -54 0 -27 -9 -115 -20 -196 -11 -81 -20 -176 -20 -211 0 -35 -5 -66 -11 -70 -6 -3 -9 -19 -5 -35 3 -15 1 -31 -4 -34 -5 -3 -9 -27 -9 -53 1 -26 -9 -112 -20 -191 -12 -80 -21 -171 -21 -202 0 -32 -5 -61 -11 -65 -7 -4 -9 -21 -6 -40 3 -19 1 -36 -5 -40 -5 -3 -8 -17 -5 -30 2 -14 -4 -79 -14 -147 -11 -67 -24 -183 -30 -257 -5 -74 -15 -140 -21 -147 -6 -7 -7 -24 -4 -37 3 -14 2 -28 -4 -31 -5 -3 -9 -25 -8 -48 0 -23 -9 -108 -21 -189 -11 -82 -21 -175 -21 -207 0 -33 -5 -63 -10 -66 -13 -8 -13 -36 0 -55 9 -13 12 -13 21 3 5 9 18 17 29 17 10 0 26 8 36 18 26 25 274 25 319 0 17 -9 42 -19 56 -22 46 -10 169 -141 169 -180 0 -7 9 -25 20 -39 11 -14 20 -31 20 -39 0 -7 9 -37 20 -66 11 -29 20 -65 20 -82 0 -16 5 -32 10 -35 6 -3 7 -17 4 -31 -3 -13 -1 -31 6 -38 17 -21 20 -397 3 -418 -7 -8 -10 -18 -7 -21 3 -3 2 -12 -2 -19 -4 -7 -9 -19 -10 -28 -1 -8 -11 -40 -23 -70 -12 -30 -21 -61 -21 -69 0 -8 -15 -46 -34 -85 -19 -39 -39 -88 -46 -108 -6 -20 -18 -42 -26 -48 -7 -7 -14 -17 -14 -22 0 -19 -32 -87 -95 -203 -23 -44 -58 -111 -78 -150 -19 -38 -44 -81 -56 -94 -11 -13 -21 -32 -21 -41 0 -10 -22 -50 -50 -90 -27 -41 -52 -86 -55 -102 -4 -15 -10 -28 -15 -28 -4 0 -13 -12 -19 -28 -7 -15 -27 -56 -46 -92 -19 -36 -35 -71 -35 -78 0 -7 -7 -15 -15 -18 -8 -4 -15 -13 -15 -21 0 -17 -48 -120 -58 -125 -11 -5 -48 -61 -56 -83 -7 -25 -114 -129 -175 -172 -57 -40 -140 -83 -162 -83 -9 0 -30 -7 -45 -15 -16 -8 -39 -15 -51 -15 -13 0 -55 -9 -95 -20 -40 -11 -102 -21 -138 -23 -68 -4 -77 0 -145 61 -11 10 -45 38 -75 62 -30 24 -66 55 -80 69 -33 33 -92 79 -105 81 -5 1 -31 -40 -57 -91 -37 -74 -48 -90 -53 -74 -14 42 -76 165 -84 165 -13 0 -193 -121 -269 -182 -40 -32 -80 -58 -88 -58 -8 0 -14 -4 -14 -9 0 -21 -46 -21 -152 -1 -62 12 -125 29 -140 36 -14 8 -38 14 -52 14 -15 0 -44 9 -66 20 -22 11 -50 20 -63 20 -13 0 -36 9 -50 20 -14 11 -29 20 -34 20 -4 1 -26 9 -48 20 -22 11 -45 19 -52 20 -7 0 -16 6 -20 14 -4 8 -29 24 -56 36 -45 21 -97 70 -97 91 0 6 -14 31 -31 55 -17 25 -35 60 -40 79 -5 18 -20 48 -33 67 -13 20 -29 53 -36 74 -6 22 -23 61 -37 87 -14 27 -22 51 -19 54 3 4 0 13 -7 22 -7 9 -21 41 -32 71 -10 30 -27 71 -37 90 -10 19 -18 43 -18 53 0 10 -9 37 -20 59 -11 23 -20 52 -20 64 0 12 -6 27 -14 33 -7 6 -16 26 -19 44 -3 17 -13 50 -23 72 -10 22 -19 47 -20 55 -1 8 -9 29 -18 45 -9 17 -16 38 -16 48 0 10 -13 49 -29 85 -16 37 -32 81 -36 97 -4 17 -16 57 -28 90 -11 33 -21 69 -23 81 -1 11 -6 29 -12 40 -16 31 -53 147 -56 174 -1 14 -7 34 -13 45 -14 26 -57 165 -58 186 0 9 -5 22 -12 30 -6 8 -16 40 -22 72 -6 31 -14 65 -19 75 -5 9 -13 35 -17 57 -4 22 -11 45 -16 51 -5 7 -9 16 -8 20 1 5 0 16 -3 24 -3 8 -11 42 -17 75 -7 33 -18 87 -26 120 -7 33 -11 65 -8 71 2 7 0 15 -5 18 -5 3 -7 26 -4 51 3 29 0 56 -8 71 -11 20 -11 28 0 48 7 13 10 39 8 57 -3 18 1 44 8 58 8 14 14 36 14 47 0 12 7 27 15 34 8 7 15 18 15 25 0 13 92 94 125 110 l21 10 -18 170 c-10 94 -19 199 -19 235 0 36 -5 70 -10 76 -5 6 -12 71 -15 145 -4 74 -12 140 -18 148 -14 18 -154 121 -164 121 -12 0 -112 104 -112 117 0 7 -14 36 -30 67 -38 69 -50 143 -26 152 10 4 28 1 41 -6 29 -16 100 -75 134 -112 14 -16 29 -28 32 -28 4 0 35 -16 69 -35 34 -19 66 -35 72 -35 5 0 -8 31 -28 68 -39 71 -40 102 -6 102 26 0 192 -180 192 -208 0 -5 7 -15 15 -22 18 -15 21 -100 4 -117 -9 -9 -8 -21 5 -46 9 -19 16 -38 16 -42 0 -4 16 -39 35 -76 19 -38 35 -74 35 -80 0 -6 18 -48 40 -94 22 -46 40 -88 40 -95 0 -6 9 -28 19 -48 11 -20 27 -55 37 -77 9 -22 21 -48 25 -57 5 -10 9 -23 9 -30 0 -7 7 -21 14 -30 12 -16 16 -16 67 3 30 12 59 25 66 31 7 5 17 7 22 4 5 -4 12 -2 16 4 3 5 18 10 32 10 20 0 23 3 15 13 -6 7 -9 22 -6 34 3 11 1 24 -5 27 -6 4 -11 29 -11 56 0 26 -7 84 -15 127 -9 43 -20 120 -25 172 -5 52 -14 99 -19 104 -6 6 -11 31 -11 57 0 25 -9 99 -21 165 -11 66 -22 146 -23 177 -2 32 -8 64 -14 71 -6 7 -9 22 -6 34 3 11 1 24 -5 27 -6 4 -11 26 -11 49 0 23 -10 98 -21 167 -12 69 -21 140 -21 158 0 17 -4 34 -9 37 -4 3 -6 19 -3 34 4 16 1 32 -5 35 -6 4 -11 27 -11 50 0 24 -9 97 -19 162 -11 66 -22 148 -25 184 -4 35 -11 69 -16 74 -6 6 -10 33 -10 61 0 27 -7 88 -15 134 -8 47 -18 117 -21 155 -4 39 -11 76 -16 82 -4 6 -6 19 -2 28 3 9 2 22 -4 29 -6 6 -13 46 -17 87 -3 41 -16 138 -27 215 -12 77 -21 154 -20 172 1 18 -2 35 -8 38 -5 3 -7 19 -4 34 4 16 1 32 -5 35 -6 4 -11 33 -11 64 0 31 -7 98 -15 147 -8 50 -20 151 -26 225 -6 74 -15 139 -20 144 -5 6 -9 68 -9 138 0 119 2 129 21 146 12 9 38 31 57 49 20 17 48 35 62 38 14 4 45 19 70 35 25 15 61 31 80 35 19 4 47 14 62 21 15 8 40 14 56 14 16 0 35 7 42 15 7 8 24 15 39 15 23 0 213 38 217 43 5 7 24 289 24 364 0 57 4 94 11 99 7 4 10 27 7 61 -3 29 -1 56 3 59 5 3 8 35 8 72 0 37 7 133 17 215 16 143 18 147 40 147 29 0 30 15 4 55 -11 17 -20 40 -20 53 0 12 -10 42 -22 65 -12 23 -24 55 -25 72 -2 16 -8 34 -13 39 -6 6 -10 34 -10 63 l0 53 -407 -1 c-297 0 -413 -3 -428 -12z m2034 -9130 c25 -18 71 -51 101 -72 30 -21 57 -41 60 -46 3 -4 33 -28 68 -53 34 -25 62 -52 62 -58 0 -7 -7 -58 -15 -113 -22 -148 -20 -171 15 -215 17 -21 30 -40 30 -43 0 -3 13 -26 30 -50 31 -46 50 -119 70 -262 13 -90 18 -120 20 -120 1 0 3 -20 5 -44 2 -24 8 -54 13 -65 11 -24 42 -252 42 -311 0 -39 2 -41 58 -68 31 -15 64 -32 72 -37 8 -5 40 -21 70 -35 30 -14 62 -30 70 -35 8 -5 42 -22 75 -39 123 -62 200 -103 215 -112 8 -5 29 -14 45 -20 28 -10 28 -12 12 -23 -11 -6 -42 -26 -70 -44 -28 -17 -60 -32 -72 -32 -11 0 -45 -16 -75 -35 -30 -19 -60 -35 -68 -35 -8 0 -44 -15 -81 -34 -36 -19 -88 -45 -116 -57 -27 -12 -57 -26 -65 -30 -61 -34 -140 -69 -153 -69 -9 0 -18 -4 -21 -9 -6 -9 -59 -37 -116 -60 -14 -6 -32 -15 -40 -20 -26 -15 -107 -51 -115 -51 -5 0 -16 -6 -24 -14 -9 -7 -46 -25 -82 -39 -70 -28 -103 -26 -155 8 -13 8 -32 15 -42 15 -11 0 -25 7 -32 15 -7 8 -15 13 -19 10 -4 -2 -29 7 -56 20 -27 14 -54 25 -60 25 -6 0 -42 16 -81 35 -38 19 -76 35 -85 35 -9 0 -22 7 -29 15 -7 8 -20 15 -29 15 -9 0 -28 6 -43 14 -14 8 -43 19 -65 26 -21 7 -68 28 -104 46 -36 19 -72 34 -81 34 -9 0 -21 7 -28 15 -7 8 -18 15 -25 15 -12 0 -73 24 -140 55 -57 27 -128 55 -137 55 -5 0 -28 9 -50 20 -23 11 -49 20 -59 20 -19 0 -25 18 -34 110 -7 69 9 215 25 235 5 7 6 15 2 19 -4 4 1 14 12 21 10 8 15 18 12 23 -7 12 29 95 49 112 8 7 15 9 15 4 0 -12 31 34 34 49 3 21 17 38 26 32 5 -3 22 12 37 34 16 22 34 40 41 41 7 0 20 9 29 20 19 22 45 27 42 8 -3 -26 1 -38 12 -35 6 1 14 -4 16 -10 3 -8 -4 -14 -16 -14 -12 -1 -27 -2 -33 -3 -24 -2 -122 -88 -146 -128 -9 -15 -22 -26 -29 -24 -7 3 -13 2 -14 -2 -4 -36 -9 -53 -24 -92 -10 -25 -25 -55 -33 -67 -7 -12 -11 -31 -7 -42 3 -10 1 -22 -5 -26 -13 -8 -13 -162 0 -170 6 -3 7 -17 4 -30 l-6 -24 43 24 c24 14 51 27 59 31 8 3 38 17 67 30 28 13 55 24 59 24 4 0 15 6 23 14 9 7 43 24 76 37 33 13 64 29 68 36 4 7 14 13 21 13 7 0 31 9 54 20 22 11 45 20 50 20 6 0 12 7 16 15 3 8 14 15 24 15 35 0 82 30 82 53 1 123 26 281 50 312 12 16 50 151 50 178 0 13 7 38 16 55 8 18 13 35 10 40 -11 18 54 225 80 253 8 8 14 19 14 23 0 4 13 24 29 44 28 35 30 42 30 132 0 52 -4 99 -9 105 -4 5 -9 36 -11 69 -4 50 -1 60 16 70 11 6 24 17 28 24 4 6 13 12 18 12 6 0 47 30 92 68 119 98 158 125 186 131 2 1 24 -14 50 -32z"/>
<path d="M2258 11846 c-4 -96 -11 -155 -21 -177 -35 -78 -40 -74 112 -71 75 1 142 -1 149 -6 9 -6 14 -30 14 -66 0 -31 4 -59 9 -62 5 -2 6 -18 3 -33 -4 -16 -1 -32 5 -35 6 -4 11 -33 11 -65 0 -32 9 -123 19 -202 11 -79 22 -195 25 -258 3 -63 10 -119 16 -125 5 -5 10 -31 10 -57 l0 -47 158 -6 c86 -3 198 -8 247 -11 l91 -4 17 108 c9 59 17 127 17 152 0 25 5 50 10 55 6 6 13 42 16 80 2 38 13 123 24 189 11 66 20 143 20 171 0 27 5 55 11 61 6 6 13 44 15 85 3 40 7 79 9 86 3 8 30 12 90 12 47 0 85 1 85 3 0 1 -9 34 -21 72 -16 54 -20 95 -19 183 l1 112 -559 0 -559 0 -5 -144z"/>
<path d="M2884 4392 c2 -4 -7 -30 -21 -57 -14 -28 -32 -70 -40 -95 -8 -24 -26 -68 -39 -97 -13 -28 -24 -58 -24 -67 0 -8 -6 -27 -14 -43 -14 -29 -27 -72 -51 -176 -7 -32 -17 -66 -21 -75 -4 -9 -9 -27 -11 -38 -2 -12 -15 -59 -28 -105 -14 -45 -25 -94 -25 -109 0 -14 -4 -30 -9 -35 -5 -6 -11 -28 -14 -50 -3 -22 -15 -78 -26 -125 -12 -47 -21 -99 -21 -117 0 -17 -5 -35 -10 -38 -6 -4 -8 -15 -5 -25 3 -10 2 -21 -3 -24 -5 -3 -9 -22 -10 -43 -1 -21 -6 -53 -11 -70 -10 -33 1 -45 16 -20 8 14 185 144 207 153 13 5 39 -27 76 -93 l23 -42 18 23 c10 13 30 47 45 75 30 61 13 67 159 -64 55 -49 111 -98 124 -110 l24 -20 -7 90 c-4 50 -11 163 -16 253 -5 90 -13 169 -18 175 -5 7 -12 48 -15 92 -4 44 -16 117 -26 161 -11 45 -23 103 -26 130 -4 27 -11 53 -16 58 -5 6 -9 24 -9 40 -1 17 -12 62 -25 101 -13 38 -21 73 -18 78 2 4 -2 19 -11 32 -9 13 -16 32 -16 41 0 8 -13 44 -29 77 -15 34 -31 73 -35 87 -14 50 -29 80 -38 80 -5 0 -7 -4 -4 -8z m-24 -457 c0 -13 -6 -25 -12 -28 -22 -7 -38 4 -38 28 0 13 6 25 13 28 21 7 37 -4 37 -28z m-2 -298 c3 -23 0 -27 -22 -27 -21 0 -26 5 -26 23 0 13 3 27 7 31 15 14 38 0 41 -27z m0 -284 c-2 -20 -9 -29 -25 -31 -18 -3 -23 1 -23 21 0 29 7 37 32 37 15 0 19 -6 16 -27z"/>
</g>


</svg>