<?xml version="1.0" encoding="UTF-8" standalone="no"?>
<svg
   width="460.8pt"
   height="345.6pt"
   viewBox="0 0 460.8 345.6"
   version="1.1"
   id="svg12505"
   sodipodi:docname="Compression1600.svg"
   inkscape:version="1.2 (1:1.2+202206011327+fc4e4096c5)"
   xmlns:inkscape="http://www.inkscape.org/namespaces/inkscape"
   xmlns:sodipodi="http://sodipodi.sourceforge.net/DTD/sodipodi-0.dtd"
   xmlns:xlink="http://www.w3.org/1999/xlink"
   xmlns="http://www.w3.org/2000/svg"
   xmlns:svg="http://www.w3.org/2000/svg"
   xmlns:rdf="http://www.w3.org/1999/02/22-rdf-syntax-ns#"
   xmlns:cc="http://creativecommons.org/ns#"
   xmlns:dc="http://purl.org/dc/elements/1.1/">
  <sodipodi:namedview
     id="namedview12507"
     pagecolor="#ffffff"
     bordercolor="#999999"
     borderopacity="1"
     inkscape:showpageshadow="0"
     inkscape:pageopacity="0"
     inkscape:pagecheckerboard="0"
     inkscape:deskcolor="#d1d1d1"
     inkscape:document-units="pt"
     showgrid="false"
     inkscape:zoom="1.8771701"
     inkscape:cx="307.37758"
     inkscape:cy="231.99816"
     inkscape:window-width="1920"
     inkscape:window-height="1164"
     inkscape:window-x="3840"
     inkscape:window-y="0"
     inkscape:window-maximized="1"
     inkscape:current-layer="axes_1" />
  <metadata
     id="metadata12008">
    <rdf:RDF>
      <cc:Work>
        <dc:type
           rdf:resource="http://purl.org/dc/dcmitype/StillImage" />
        <dc:date>2022-06-14T19:06:53.716671</dc:date>
        <dc:format>image/svg+xml</dc:format>
        <dc:creator>
          <cc:Agent>
            <dc:title>Matplotlib v3.5.1, https://matplotlib.org/</dc:title>
          </cc:Agent>
        </dc:creator>
      </cc:Work>
    </rdf:RDF>
  </metadata>
  <defs
     id="defs12012">
    <style
       type="text/css"
       id="style12010">*{stroke-linejoin: round; stroke-linecap: butt}</style>
  </defs>
  <g
     id="figure_1">
    <g
       id="patch_1">
      <path
         d="M 0 345.6  L 460.8 345.6  L 460.8 0  L 0 0  z "
         style="fill: #ffffff"
         id="path12014" />
    </g>
    <g
       id="axes_1">
      <g
         id="patch_2">
        <path
           d="M 57.6 307.584  L 414.72 307.584  L 414.72 41.472  L 57.6 41.472  z "
           style="fill: #ffffff"
           id="path12017" />
      </g>
      <g
         id="matplotlib.axis_2">
        <g
           id="ytick_1">
          <g
             id="line2d_5">
            <path
               d="M 57.6 307.584  L 414.72 307.584  "
               clip-path="url(#p3b2d108bd8)"
               style="fill: none; stroke-dasharray: 2.96,1.28; stroke-dashoffset: 0; stroke: #b0b0b0; stroke-width: 0.8"
               id="path12136" />
          </g>
          <g
             id="line2d_6">
            <defs
               id="defs12140">
              <path
                 id="m89671bf57e"
                 d="M 0 0  L -3.5 0  "
                 style="stroke: #000000; stroke-width: 0.8" />
            </defs>
            <g
               id="g12144">
              <use
                 xlink:href="#m89671bf57e"
                 x="57.6"
                 y="307.584"
                 style="stroke: #000000; stroke-width: 0.8"
                 id="use12142" />
            </g>
          </g>
          <g
             id="text_4">
            <!-- 0 -->
            <g
               transform="translate(44.2375 311.383219)scale(0.1 -0.1)"
               id="g12152">
              <defs
                 id="defs12148">
                <path
                   id="DejaVuSans-30"
                   d="M 2034 4250  Q 1547 4250 1301 3770  Q 1056 3291 1056 2328  Q 1056 1369 1301 889  Q 1547 409 2034 409  Q 2525 409 2770 889  Q 3016 1369 3016 2328  Q 3016 3291 2770 3770  Q 2525 4250 2034 4250  z M 2034 4750  Q 2819 4750 3233 4129  Q 3647 3509 3647 2328  Q 3647 1150 3233 529  Q 2819 -91 2034 -91  Q 1250 -91 836 529  Q 422 1150 422 2328  Q 422 3509 836 4129  Q 1250 4750 2034 4750  z "
                   transform="scale(0.015625)" />
              </defs>
              <use
                 xlink:href="#DejaVuSans-30"
                 id="use12150" />
            </g>
          </g>
        </g>
        <g
           id="ytick_2">
          <g
             id="line2d_7">
            <path
               d="M 57.6 251.044123  L 414.72 251.044123  "
               clip-path="url(#p3b2d108bd8)"
               style="fill: none; stroke-dasharray: 2.96,1.28; stroke-dashoffset: 0; stroke: #b0b0b0; stroke-width: 0.8"
               id="path12156" />
          </g>
          <g
             id="line2d_8">
            <g
               id="g12161">
              <use
                 xlink:href="#m89671bf57e"
                 x="57.6"
                 y="251.044123"
                 style="stroke: #000000; stroke-width: 0.8"
                 id="use12159" />
            </g>
          </g>
          <g
             id="text_5">
            <!-- 20 -->
            <g
               transform="translate(37.875 254.843341)scale(0.1 -0.1)"
               id="g12171">
              <defs
                 id="defs12165">
                <path
                   id="DejaVuSans-32"
                   d="M 1228 531  L 3431 531  L 3431 0  L 469 0  L 469 531  Q 828 903 1448 1529  Q 2069 2156 2228 2338  Q 2531 2678 2651 2914  Q 2772 3150 2772 3378  Q 2772 3750 2511 3984  Q 2250 4219 1831 4219  Q 1534 4219 1204 4116  Q 875 4013 500 3803  L 500 4441  Q 881 4594 1212 4672  Q 1544 4750 1819 4750  Q 2544 4750 2975 4387  Q 3406 4025 3406 3419  Q 3406 3131 3298 2873  Q 3191 2616 2906 2266  Q 2828 2175 2409 1742  Q 1991 1309 1228 531  z "
                   transform="scale(0.015625)" />
              </defs>
              <use
                 xlink:href="#DejaVuSans-32"
                 id="use12167" />
              <use
                 xlink:href="#DejaVuSans-30"
                 x="63.623047"
                 id="use12169" />
            </g>
          </g>
        </g>
        <g
           id="ytick_3">
          <g
             id="line2d_9">
            <path
               d="M 57.6 194.504245  L 414.72 194.504245  "
               clip-path="url(#p3b2d108bd8)"
               style="fill: none; stroke-dasharray: 2.96,1.28; stroke-dashoffset: 0; stroke: #b0b0b0; stroke-width: 0.8"
               id="path12175" />
          </g>
          <g
             id="line2d_10">
            <g
               id="g12180">
              <use
                 xlink:href="#m89671bf57e"
                 x="57.6"
                 y="194.504245"
                 style="stroke: #000000; stroke-width: 0.8"
                 id="use12178" />
            </g>
          </g>
          <g
             id="text_6">
            <!-- 40 -->
            <g
               transform="translate(37.875 198.303464)scale(0.1 -0.1)"
               id="g12190">
              <defs
                 id="defs12184">
                <path
                   id="DejaVuSans-34"
                   d="M 2419 4116  L 825 1625  L 2419 1625  L 2419 4116  z M 2253 4666  L 3047 4666  L 3047 1625  L 3713 1625  L 3713 1100  L 3047 1100  L 3047 0  L 2419 0  L 2419 1100  L 313 1100  L 313 1709  L 2253 4666  z "
                   transform="scale(0.015625)" />
              </defs>
              <use
                 xlink:href="#DejaVuSans-34"
                 id="use12186" />
              <use
                 xlink:href="#DejaVuSans-30"
                 x="63.623047"
                 id="use12188" />
            </g>
          </g>
        </g>
        <g
           id="ytick_4">
          <g
             id="line2d_11">
            <path
               d="M 57.6 137.964368  L 414.72 137.964368  "
               clip-path="url(#p3b2d108bd8)"
               style="fill: none; stroke-dasharray: 2.96,1.28; stroke-dashoffset: 0; stroke: #b0b0b0; stroke-width: 0.8"
               id="path12194" />
          </g>
          <g
             id="line2d_12">
            <g
               id="g12199">
              <use
                 xlink:href="#m89671bf57e"
                 x="57.6"
                 y="137.964368"
                 style="stroke: #000000; stroke-width: 0.8"
                 id="use12197" />
            </g>
          </g>
          <g
             id="text_7">
            <!-- 60 -->
            <g
               transform="translate(37.875 141.763587)scale(0.1 -0.1)"
               id="g12209">
              <defs
                 id="defs12203">
                <path
                   id="DejaVuSans-36"
                   d="M 2113 2584  Q 1688 2584 1439 2293  Q 1191 2003 1191 1497  Q 1191 994 1439 701  Q 1688 409 2113 409  Q 2538 409 2786 701  Q 3034 994 3034 1497  Q 3034 2003 2786 2293  Q 2538 2584 2113 2584  z M 3366 4563  L 3366 3988  Q 3128 4100 2886 4159  Q 2644 4219 2406 4219  Q 1781 4219 1451 3797  Q 1122 3375 1075 2522  Q 1259 2794 1537 2939  Q 1816 3084 2150 3084  Q 2853 3084 3261 2657  Q 3669 2231 3669 1497  Q 3669 778 3244 343  Q 2819 -91 2113 -91  Q 1303 -91 875 529  Q 447 1150 447 2328  Q 447 3434 972 4092  Q 1497 4750 2381 4750  Q 2619 4750 2861 4703  Q 3103 4656 3366 4563  z "
                   transform="scale(0.015625)" />
              </defs>
              <use
                 xlink:href="#DejaVuSans-36"
                 id="use12205" />
              <use
                 xlink:href="#DejaVuSans-30"
                 x="63.623047"
                 id="use12207" />
            </g>
          </g>
        </g>
        <g
           id="ytick_5">
          <g
             id="line2d_13">
            <path
               d="M 57.6 81.424491  L 414.72 81.424491  "
               clip-path="url(#p3b2d108bd8)"
               style="fill: none; stroke-dasharray: 2.96,1.28; stroke-dashoffset: 0; stroke: #b0b0b0; stroke-width: 0.8"
               id="path12213" />
          </g>
          <g
             id="line2d_14">
            <g
               id="g12218">
              <use
                 xlink:href="#m89671bf57e"
                 x="57.6"
                 y="81.424491"
                 style="stroke: #000000; stroke-width: 0.8"
                 id="use12216" />
            </g>
          </g>
          <g
             id="text_8">
            <!-- 80 -->
            <g
               transform="translate(37.875 85.22371)scale(0.1 -0.1)"
               id="g12228">
              <defs
                 id="defs12222">
                <path
                   id="DejaVuSans-38"
                   d="M 2034 2216  Q 1584 2216 1326 1975  Q 1069 1734 1069 1313  Q 1069 891 1326 650  Q 1584 409 2034 409  Q 2484 409 2743 651  Q 3003 894 3003 1313  Q 3003 1734 2745 1975  Q 2488 2216 2034 2216  z M 1403 2484  Q 997 2584 770 2862  Q 544 3141 544 3541  Q 544 4100 942 4425  Q 1341 4750 2034 4750  Q 2731 4750 3128 4425  Q 3525 4100 3525 3541  Q 3525 3141 3298 2862  Q 3072 2584 2669 2484  Q 3125 2378 3379 2068  Q 3634 1759 3634 1313  Q 3634 634 3220 271  Q 2806 -91 2034 -91  Q 1263 -91 848 271  Q 434 634 434 1313  Q 434 1759 690 2068  Q 947 2378 1403 2484  z M 1172 3481  Q 1172 3119 1398 2916  Q 1625 2713 2034 2713  Q 2441 2713 2670 2916  Q 2900 3119 2900 3481  Q 2900 3844 2670 4047  Q 2441 4250 2034 4250  Q 1625 4250 1398 4047  Q 1172 3844 1172 3481  z "
                   transform="scale(0.015625)" />
              </defs>
              <use
                 xlink:href="#DejaVuSans-38"
                 id="use12224" />
              <use
                 xlink:href="#DejaVuSans-30"
                 x="63.623047"
                 id="use12226" />
            </g>
          </g>
        </g>
        <g
           id="text_9">
          <!-- Pourcentage (%) -->
          <g
             transform="translate(31.795312 216.043625)rotate(-90)scale(0.1 -0.1)"
             id="g12270">
            <defs
               id="defs12238">
              <path
                 id="DejaVuSans-75"
                 d="M 544 1381  L 544 3500  L 1119 3500  L 1119 1403  Q 1119 906 1312 657  Q 1506 409 1894 409  Q 2359 409 2629 706  Q 2900 1003 2900 1516  L 2900 3500  L 3475 3500  L 3475 0  L 2900 0  L 2900 538  Q 2691 219 2414 64  Q 2138 -91 1772 -91  Q 1169 -91 856 284  Q 544 659 544 1381  z M 1991 3584  L 1991 3584  z "
                 transform="scale(0.015625)" />
              <path
                 id="DejaVuSans-63"
                 d="M 3122 3366  L 3122 2828  Q 2878 2963 2633 3030  Q 2388 3097 2138 3097  Q 1578 3097 1268 2742  Q 959 2388 959 1747  Q 959 1106 1268 751  Q 1578 397 2138 397  Q 2388 397 2633 464  Q 2878 531 3122 666  L 3122 134  Q 2881 22 2623 -34  Q 2366 -91 2075 -91  Q 1284 -91 818 406  Q 353 903 353 1747  Q 353 2603 823 3093  Q 1294 3584 2113 3584  Q 2378 3584 2631 3529  Q 2884 3475 3122 3366  z "
                 transform="scale(0.015625)" />
              <path
                 id="DejaVuSans-67"
                 d="M 2906 1791  Q 2906 2416 2648 2759  Q 2391 3103 1925 3103  Q 1463 3103 1205 2759  Q 947 2416 947 1791  Q 947 1169 1205 825  Q 1463 481 1925 481  Q 2391 481 2648 825  Q 2906 1169 2906 1791  z M 3481 434  Q 3481 -459 3084 -895  Q 2688 -1331 1869 -1331  Q 1566 -1331 1297 -1286  Q 1028 -1241 775 -1147  L 775 -588  Q 1028 -725 1275 -790  Q 1522 -856 1778 -856  Q 2344 -856 2625 -561  Q 2906 -266 2906 331  L 2906 616  Q 2728 306 2450 153  Q 2172 0 1784 0  Q 1141 0 747 490  Q 353 981 353 1791  Q 353 2603 747 3093  Q 1141 3584 1784 3584  Q 2172 3584 2450 3431  Q 2728 3278 2906 2969  L 2906 3500  L 3481 3500  L 3481 434  z "
                 transform="scale(0.015625)" />
              <path
                 id="DejaVuSans-28"
                 d="M 1984 4856  Q 1566 4138 1362 3434  Q 1159 2731 1159 2009  Q 1159 1288 1364 580  Q 1569 -128 1984 -844  L 1484 -844  Q 1016 -109 783 600  Q 550 1309 550 2009  Q 550 2706 781 3412  Q 1013 4119 1484 4856  L 1984 4856  z "
                 transform="scale(0.015625)" />
              <path
                 id="DejaVuSans-25"
                 d="M 4653 2053  Q 4381 2053 4226 1822  Q 4072 1591 4072 1178  Q 4072 772 4226 539  Q 4381 306 4653 306  Q 4919 306 5073 539  Q 5228 772 5228 1178  Q 5228 1588 5073 1820  Q 4919 2053 4653 2053  z M 4653 2450  Q 5147 2450 5437 2106  Q 5728 1763 5728 1178  Q 5728 594 5436 251  Q 5144 -91 4653 -91  Q 4153 -91 3862 251  Q 3572 594 3572 1178  Q 3572 1766 3864 2108  Q 4156 2450 4653 2450  z M 1428 4353  Q 1159 4353 1004 4120  Q 850 3888 850 3481  Q 850 3069 1003 2837  Q 1156 2606 1428 2606  Q 1700 2606 1854 2837  Q 2009 3069 2009 3481  Q 2009 3884 1853 4118  Q 1697 4353 1428 4353  z M 4250 4750  L 4750 4750  L 1831 -91  L 1331 -91  L 4250 4750  z M 1428 4750  Q 1922 4750 2215 4408  Q 2509 4066 2509 3481  Q 2509 2891 2217 2550  Q 1925 2209 1428 2209  Q 931 2209 642 2551  Q 353 2894 353 3481  Q 353 4063 643 4406  Q 934 4750 1428 4750  z "
                 transform="scale(0.015625)" />
              <path
                 id="DejaVuSans-29"
                 d="M 513 4856  L 1013 4856  Q 1481 4119 1714 3412  Q 1947 2706 1947 2009  Q 1947 1309 1714 600  Q 1481 -109 1013 -844  L 513 -844  Q 928 -128 1133 580  Q 1338 1288 1338 2009  Q 1338 2731 1133 3434  Q 928 4138 513 4856  z "
                 transform="scale(0.015625)" />
            </defs>
            <use
               xlink:href="#DejaVuSans-50"
               id="use12240" />
            <use
               xlink:href="#DejaVuSans-6f"
               x="56.677734"
               id="use12242" />
            <use
               xlink:href="#DejaVuSans-75"
               x="117.859375"
               id="use12244" />
            <use
               xlink:href="#DejaVuSans-72"
               x="181.238281"
               id="use12246" />
            <use
               xlink:href="#DejaVuSans-63"
               x="220.101562"
               id="use12248" />
            <use
               xlink:href="#DejaVuSans-65"
               x="275.082031"
               id="use12250" />
            <use
               xlink:href="#DejaVuSans-6e"
               x="336.605469"
               id="use12252" />
            <use
               xlink:href="#DejaVuSans-74"
               x="399.984375"
               id="use12254" />
            <use
               xlink:href="#DejaVuSans-61"
               x="439.193359"
               id="use12256" />
            <use
               xlink:href="#DejaVuSans-67"
               x="500.472656"
               id="use12258" />
            <use
               xlink:href="#DejaVuSans-65"
               x="563.949219"
               id="use12260" />
            <use
               xlink:href="#DejaVuSans-20"
               x="625.472656"
               id="use12262" />
            <use
               xlink:href="#DejaVuSans-28"
               x="657.259766"
               id="use12264" />
            <use
               xlink:href="#DejaVuSans-25"
               x="696.273438"
               id="use12266" />
            <use
               xlink:href="#DejaVuSans-29"
               x="791.292969"
               id="use12268" />
          </g>
        </g>
      </g>
      <g
         id="patch_3">
        <path
           d="M 73.832727 307.584  L 120.211948 307.584  L 120.211948 66.413153  L 73.832727 66.413153  z "
           clip-path="url(#p3b2d108bd8)"
           style="fill:#56d254;fill-opacity:1"
           id="path12020" />
      </g>
      <g
         id="patch_4"
         style="fill:#56d254;fill-opacity:1">
        <path
           d="M 305.728831 307.584  L 352.108052 307.584  L 352.108052 54.144  L 305.728831 54.144  z "
           clip-path="url(#p3b2d108bd8)"
           style="fill:#56d254;fill-opacity:1"
           id="path12023" />
      </g>
      <g
         id="matplotlib.axis_1">
        <g
           id="xtick_1">
          <g
             id="line2d_1">
            <path
               d="M 120.211948 307.584  L 120.211948 41.472  "
               clip-path="url(#p3b2d108bd8)"
               style="fill: none; stroke-dasharray: 2.96,1.28; stroke-dashoffset: 0; stroke: #b0b0b0; stroke-width: 0.8"
               id="path12032" />
          </g>
          <g
             id="line2d_2">
            <defs
               id="defs12036">
              <path
                 id="m69b2e0ce15"
                 d="M 0 0  L 0 3.5  "
                 style="stroke: #000000; stroke-width: 0.8" />
            </defs>
            <g
               id="g12040">
              <use
                 xlink:href="#m69b2e0ce15"
                 x="120.211948"
                 y="307.584"
                 style="stroke: #000000; stroke-width: 0.8"
                 id="use12038" />
            </g>
          </g>
          <g
             id="text_1">
            <!-- 1 -->
            <g
               transform="translate(117.030698 322.182437)scale(0.1 -0.1)"
               id="g12048">
              <defs
                 id="defs12044">
                <path
                   id="DejaVuSans-31"
                   d="M 794 531  L 1825 531  L 1825 4091  L 703 3866  L 703 4441  L 1819 4666  L 2450 4666  L 2450 531  L 3481 531  L 3481 0  L 794 0  L 794 531  z "
                   transform="scale(0.015625)" />
              </defs>
              <use
                 xlink:href="#DejaVuSans-31"
                 id="use12046" />
            </g>
          </g>
        </g>
        <g
           id="xtick_2">
          <g
             id="line2d_3">
            <path
               d="M 352.108052 307.584  L 352.108052 41.472  "
               clip-path="url(#p3b2d108bd8)"
               style="fill: none; stroke-dasharray: 2.96,1.28; stroke-dashoffset: 0; stroke: #b0b0b0; stroke-width: 0.8"
               id="path12052" />
          </g>
          <g
             id="line2d_4">
            <g
               id="g12057">
              <use
                 xlink:href="#m69b2e0ce15"
                 x="352.108052"
                 y="307.584"
                 style="stroke: #000000; stroke-width: 0.8"
                 id="use12055" />
            </g>
          </g>
          <g
             id="text_2">
            <!-- 3 -->
            <g
               transform="translate(348.926802 322.182437)scale(0.1 -0.1)"
               id="g12065">
              <defs
                 id="defs12061">
                <path
                   id="DejaVuSans-33"
                   d="M 2597 2516  Q 3050 2419 3304 2112  Q 3559 1806 3559 1356  Q 3559 666 3084 287  Q 2609 -91 1734 -91  Q 1441 -91 1130 -33  Q 819 25 488 141  L 488 750  Q 750 597 1062 519  Q 1375 441 1716 441  Q 2309 441 2620 675  Q 2931 909 2931 1356  Q 2931 1769 2642 2001  Q 2353 2234 1838 2234  L 1294 2234  L 1294 2753  L 1863 2753  Q 2328 2753 2575 2939  Q 2822 3125 2822 3475  Q 2822 3834 2567 4026  Q 2313 4219 1838 4219  Q 1578 4219 1281 4162  Q 984 4106 628 3988  L 628 4550  Q 988 4650 1302 4700  Q 1616 4750 1894 4750  Q 2613 4750 3031 4423  Q 3450 4097 3450 3541  Q 3450 3153 3228 2886  Q 3006 2619 2597 2516  z "
                   transform="scale(0.015625)" />
              </defs>
              <use
                 xlink:href="#DejaVuSans-33"
                 id="use12063" />
            </g>
          </g>
        </g>
        <g
           id="text_3">
          <!-- Périodes d'entraînement -->
          <g
             transform="translate(174.717812 335.860562)scale(0.1 -0.1)"
             id="g12132">
            <defs
               id="defs12084">
              <path
                 id="DejaVuSans-50"
                 d="M 1259 4147  L 1259 2394  L 2053 2394  Q 2494 2394 2734 2622  Q 2975 2850 2975 3272  Q 2975 3691 2734 3919  Q 2494 4147 2053 4147  L 1259 4147  z M 628 4666  L 2053 4666  Q 2838 4666 3239 4311  Q 3641 3956 3641 3272  Q 3641 2581 3239 2228  Q 2838 1875 2053 1875  L 1259 1875  L 1259 0  L 628 0  L 628 4666  z "
                 transform="scale(0.015625)" />
              <path
                 id="DejaVuSans-e9"
                 d="M 3597 1894  L 3597 1613  L 953 1613  Q 991 1019 1311 708  Q 1631 397 2203 397  Q 2534 397 2845 478  Q 3156 559 3463 722  L 3463 178  Q 3153 47 2828 -22  Q 2503 -91 2169 -91  Q 1331 -91 842 396  Q 353 884 353 1716  Q 353 2575 817 3079  Q 1281 3584 2069 3584  Q 2775 3584 3186 3129  Q 3597 2675 3597 1894  z M 3022 2063  Q 3016 2534 2758 2815  Q 2500 3097 2075 3097  Q 1594 3097 1305 2825  Q 1016 2553 972 2059  L 3022 2063  z M 2466 5119  L 3088 5119  L 2070 3944  L 1591 3944  L 2466 5119  z "
                 transform="scale(0.015625)" />
              <path
                 id="DejaVuSans-72"
                 d="M 2631 2963  Q 2534 3019 2420 3045  Q 2306 3072 2169 3072  Q 1681 3072 1420 2755  Q 1159 2438 1159 1844  L 1159 0  L 581 0  L 581 3500  L 1159 3500  L 1159 2956  Q 1341 3275 1631 3429  Q 1922 3584 2338 3584  Q 2397 3584 2469 3576  Q 2541 3569 2628 3553  L 2631 2963  z "
                 transform="scale(0.015625)" />
              <path
                 id="DejaVuSans-69"
                 d="M 603 3500  L 1178 3500  L 1178 0  L 603 0  L 603 3500  z M 603 4863  L 1178 4863  L 1178 4134  L 603 4134  L 603 4863  z "
                 transform="scale(0.015625)" />
              <path
                 id="DejaVuSans-6f"
                 d="M 1959 3097  Q 1497 3097 1228 2736  Q 959 2375 959 1747  Q 959 1119 1226 758  Q 1494 397 1959 397  Q 2419 397 2687 759  Q 2956 1122 2956 1747  Q 2956 2369 2687 2733  Q 2419 3097 1959 3097  z M 1959 3584  Q 2709 3584 3137 3096  Q 3566 2609 3566 1747  Q 3566 888 3137 398  Q 2709 -91 1959 -91  Q 1206 -91 779 398  Q 353 888 353 1747  Q 353 2609 779 3096  Q 1206 3584 1959 3584  z "
                 transform="scale(0.015625)" />
              <path
                 id="DejaVuSans-64"
                 d="M 2906 2969  L 2906 4863  L 3481 4863  L 3481 0  L 2906 0  L 2906 525  Q 2725 213 2448 61  Q 2172 -91 1784 -91  Q 1150 -91 751 415  Q 353 922 353 1747  Q 353 2572 751 3078  Q 1150 3584 1784 3584  Q 2172 3584 2448 3432  Q 2725 3281 2906 2969  z M 947 1747  Q 947 1113 1208 752  Q 1469 391 1925 391  Q 2381 391 2643 752  Q 2906 1113 2906 1747  Q 2906 2381 2643 2742  Q 2381 3103 1925 3103  Q 1469 3103 1208 2742  Q 947 2381 947 1747  z "
                 transform="scale(0.015625)" />
              <path
                 id="DejaVuSans-65"
                 d="M 3597 1894  L 3597 1613  L 953 1613  Q 991 1019 1311 708  Q 1631 397 2203 397  Q 2534 397 2845 478  Q 3156 559 3463 722  L 3463 178  Q 3153 47 2828 -22  Q 2503 -91 2169 -91  Q 1331 -91 842 396  Q 353 884 353 1716  Q 353 2575 817 3079  Q 1281 3584 2069 3584  Q 2775 3584 3186 3129  Q 3597 2675 3597 1894  z M 3022 2063  Q 3016 2534 2758 2815  Q 2500 3097 2075 3097  Q 1594 3097 1305 2825  Q 1016 2553 972 2059  L 3022 2063  z "
                 transform="scale(0.015625)" />
              <path
                 id="DejaVuSans-73"
                 d="M 2834 3397  L 2834 2853  Q 2591 2978 2328 3040  Q 2066 3103 1784 3103  Q 1356 3103 1142 2972  Q 928 2841 928 2578  Q 928 2378 1081 2264  Q 1234 2150 1697 2047  L 1894 2003  Q 2506 1872 2764 1633  Q 3022 1394 3022 966  Q 3022 478 2636 193  Q 2250 -91 1575 -91  Q 1294 -91 989 -36  Q 684 19 347 128  L 347 722  Q 666 556 975 473  Q 1284 391 1588 391  Q 1994 391 2212 530  Q 2431 669 2431 922  Q 2431 1156 2273 1281  Q 2116 1406 1581 1522  L 1381 1569  Q 847 1681 609 1914  Q 372 2147 372 2553  Q 372 3047 722 3315  Q 1072 3584 1716 3584  Q 2034 3584 2315 3537  Q 2597 3491 2834 3397  z "
                 transform="scale(0.015625)" />
              <path
                 id="DejaVuSans-20"
                 transform="scale(0.015625)" />
              <path
                 id="DejaVuSans-27"
                 d="M 1147 4666  L 1147 2931  L 616 2931  L 616 4666  L 1147 4666  z "
                 transform="scale(0.015625)" />
              <path
                 id="DejaVuSans-6e"
                 d="M 3513 2113  L 3513 0  L 2938 0  L 2938 2094  Q 2938 2591 2744 2837  Q 2550 3084 2163 3084  Q 1697 3084 1428 2787  Q 1159 2491 1159 1978  L 1159 0  L 581 0  L 581 3500  L 1159 3500  L 1159 2956  Q 1366 3272 1645 3428  Q 1925 3584 2291 3584  Q 2894 3584 3203 3211  Q 3513 2838 3513 2113  z "
                 transform="scale(0.015625)" />
              <path
                 id="DejaVuSans-74"
                 d="M 1172 4494  L 1172 3500  L 2356 3500  L 2356 3053  L 1172 3053  L 1172 1153  Q 1172 725 1289 603  Q 1406 481 1766 481  L 2356 481  L 2356 0  L 1766 0  Q 1100 0 847 248  Q 594 497 594 1153  L 594 3053  L 172 3053  L 172 3500  L 594 3500  L 594 4494  L 1172 4494  z "
                 transform="scale(0.015625)" />
              <path
                 id="DejaVuSans-61"
                 d="M 2194 1759  Q 1497 1759 1228 1600  Q 959 1441 959 1056  Q 959 750 1161 570  Q 1363 391 1709 391  Q 2188 391 2477 730  Q 2766 1069 2766 1631  L 2766 1759  L 2194 1759  z M 3341 1997  L 3341 0  L 2766 0  L 2766 531  Q 2569 213 2275 61  Q 1981 -91 1556 -91  Q 1019 -91 701 211  Q 384 513 384 1019  Q 384 1609 779 1909  Q 1175 2209 1959 2209  L 2766 2209  L 2766 2266  Q 2766 2663 2505 2880  Q 2244 3097 1772 3097  Q 1472 3097 1187 3025  Q 903 2953 641 2809  L 641 3341  Q 956 3463 1253 3523  Q 1550 3584 1831 3584  Q 2591 3584 2966 3190  Q 3341 2797 3341 1997  z "
                 transform="scale(0.015625)" />
              <path
                 id="DejaVuSans-ee"
                 d="M 603 3500  L 1178 3500  L 1178 0  L 603 0  L 603 3500  z M 891 3584  L 891 3584  z M 657 5119  L 1119 5119  L 1885 3944  L 1451 3944  L 888 4709  L 326 3944  L -109 3944  L 657 5119  z "
                 transform="scale(0.015625)" />
              <path
                 id="DejaVuSans-6d"
                 d="M 3328 2828  Q 3544 3216 3844 3400  Q 4144 3584 4550 3584  Q 5097 3584 5394 3201  Q 5691 2819 5691 2113  L 5691 0  L 5113 0  L 5113 2094  Q 5113 2597 4934 2840  Q 4756 3084 4391 3084  Q 3944 3084 3684 2787  Q 3425 2491 3425 1978  L 3425 0  L 2847 0  L 2847 2094  Q 2847 2600 2669 2842  Q 2491 3084 2119 3084  Q 1678 3084 1418 2786  Q 1159 2488 1159 1978  L 1159 0  L 581 0  L 581 3500  L 1159 3500  L 1159 2956  Q 1356 3278 1631 3431  Q 1906 3584 2284 3584  Q 2666 3584 2933 3390  Q 3200 3197 3328 2828  z "
                 transform="scale(0.015625)" />
            </defs>
            <use
               xlink:href="#DejaVuSans-50"
               id="use12086" />
            <use
               xlink:href="#DejaVuSans-e9"
               x="56.677734"
               id="use12088" />
            <use
               xlink:href="#DejaVuSans-72"
               x="118.201172"
               id="use12090" />
            <use
               xlink:href="#DejaVuSans-69"
               x="159.314453"
               id="use12092" />
            <use
               xlink:href="#DejaVuSans-6f"
               x="187.097656"
               id="use12094" />
            <use
               xlink:href="#DejaVuSans-64"
               x="248.279297"
               id="use12096" />
            <use
               xlink:href="#DejaVuSans-65"
               x="311.755859"
               id="use12098" />
            <use
               xlink:href="#DejaVuSans-73"
               x="373.279297"
               id="use12100" />
            <use
               xlink:href="#DejaVuSans-20"
               x="425.378906"
               id="use12102" />
            <use
               xlink:href="#DejaVuSans-64"
               x="457.166016"
               id="use12104" />
            <use
               xlink:href="#DejaVuSans-27"
               x="520.642578"
               id="use12106" />
            <use
               xlink:href="#DejaVuSans-65"
               x="548.132812"
               id="use12108" />
            <use
               xlink:href="#DejaVuSans-6e"
               x="609.65625"
               id="use12110" />
            <use
               xlink:href="#DejaVuSans-74"
               x="673.035156"
               id="use12112" />
            <use
               xlink:href="#DejaVuSans-72"
               x="712.244141"
               id="use12114" />
            <use
               xlink:href="#DejaVuSans-61"
               x="753.357422"
               id="use12116" />
            <use
               xlink:href="#DejaVuSans-ee"
               x="814.636719"
               id="use12118" />
            <use
               xlink:href="#DejaVuSans-6e"
               x="842.419922"
               id="use12120" />
            <use
               xlink:href="#DejaVuSans-65"
               x="905.798828"
               id="use12122" />
            <use
               xlink:href="#DejaVuSans-6d"
               x="967.322266"
               id="use12124" />
            <use
               xlink:href="#DejaVuSans-65"
               x="1064.734375"
               id="use12126" />
            <use
               xlink:href="#DejaVuSans-6e"
               x="1126.257812"
               id="use12128" />
            <use
               xlink:href="#DejaVuSans-74"
               x="1189.636719"
               id="use12130" />
          </g>
        </g>
      </g>
      <g
         id="patch_5"
         style="fill:#ff1744;fill-opacity:1">
        <path
           d="M 120.211948 307.584  L 166.591169 307.584  L 166.591169 123.772859  L 120.211948 123.772859  z "
           clip-path="url(#p3b2d108bd8)"
           style="fill:#ff1744;fill-opacity:1"
           id="path12026" />
      </g>
      <g
         id="patch_6"
         style="fill:#ff1744;fill-opacity:1">
        <path
           d="M 352.108052 307.584  L 398.487273 307.584  L 398.487273 79.162896  L 352.108052 79.162896  z "
           clip-path="url(#p3b2d108bd8)"
           style="fill:#ff1744;fill-opacity:1"
           id="path12029" />
      </g>
      <g
         id="patch_7">
        <path
           d="M 57.6 307.584  L 57.6 41.472  "
           style="fill: none; stroke: #000000; stroke-width: 0.8; stroke-linejoin: miter; stroke-linecap: square"
           id="path12274" />
      </g>
      <g
         id="patch_8">
        <path
           d="M 414.72 307.584  L 414.72 41.472  "
           style="fill: none; stroke: #000000; stroke-width: 0.8; stroke-linejoin: miter; stroke-linecap: square"
           id="path12277" />
      </g>
      <g
         id="patch_9">
        <path
           d="M 57.6 307.584  L 414.72 307.584  "
           style="fill: none; stroke: #000000; stroke-width: 0.8; stroke-linejoin: miter; stroke-linecap: square"
           id="path12280" />
      </g>
      <g
         id="patch_10">
        <path
           d="M 57.6 41.472  L 414.72 41.472  "
           style="fill: none; stroke: #000000; stroke-width: 0.8; stroke-linejoin: miter; stroke-linecap: square"
           id="path12283" />
      </g>
      <g
         id="text_10">
        <!-- Performance et taux de compression (1600 neurones) -->
        <g
           transform="translate(73.861875 35.472)scale(0.12 -0.12)"
           id="g12391">
          <defs
             id="defs12289">
            <path
               id="DejaVuSans-66"
               d="M 2375 4863  L 2375 4384  L 1825 4384  Q 1516 4384 1395 4259  Q 1275 4134 1275 3809  L 1275 3500  L 2222 3500  L 2222 3053  L 1275 3053  L 1275 0  L 697 0  L 697 3053  L 147 3053  L 147 3500  L 697 3500  L 697 3744  Q 697 4328 969 4595  Q 1241 4863 1831 4863  L 2375 4863  z "
               transform="scale(0.015625)" />
            <path
               id="DejaVuSans-78"
               d="M 3513 3500  L 2247 1797  L 3578 0  L 2900 0  L 1881 1375  L 863 0  L 184 0  L 1544 1831  L 300 3500  L 978 3500  L 1906 2253  L 2834 3500  L 3513 3500  z "
               transform="scale(0.015625)" />
            <path
               id="DejaVuSans-70"
               d="M 1159 525  L 1159 -1331  L 581 -1331  L 581 3500  L 1159 3500  L 1159 2969  Q 1341 3281 1617 3432  Q 1894 3584 2278 3584  Q 2916 3584 3314 3078  Q 3713 2572 3713 1747  Q 3713 922 3314 415  Q 2916 -91 2278 -91  Q 1894 -91 1617 61  Q 1341 213 1159 525  z M 3116 1747  Q 3116 2381 2855 2742  Q 2594 3103 2138 3103  Q 1681 3103 1420 2742  Q 1159 2381 1159 1747  Q 1159 1113 1420 752  Q 1681 391 2138 391  Q 2594 391 2855 752  Q 3116 1113 3116 1747  z "
               transform="scale(0.015625)" />
          </defs>
          <use
             xlink:href="#DejaVuSans-50"
             id="use12291" />
          <use
             xlink:href="#DejaVuSans-65"
             x="56.677734"
             id="use12293" />
          <use
             xlink:href="#DejaVuSans-72"
             x="118.201172"
             id="use12295" />
          <use
             xlink:href="#DejaVuSans-66"
             x="159.314453"
             id="use12297" />
          <use
             xlink:href="#DejaVuSans-6f"
             x="194.519531"
             id="use12299" />
          <use
             xlink:href="#DejaVuSans-72"
             x="255.701172"
             id="use12301" />
          <use
             xlink:href="#DejaVuSans-6d"
             x="295.064453"
             id="use12303" />
          <use
             xlink:href="#DejaVuSans-61"
             x="392.476562"
             id="use12305" />
          <use
             xlink:href="#DejaVuSans-6e"
             x="453.755859"
             id="use12307" />
          <use
             xlink:href="#DejaVuSans-63"
             x="517.134766"
             id="use12309" />
          <use
             xlink:href="#DejaVuSans-65"
             x="572.115234"
             id="use12311" />
          <use
             xlink:href="#DejaVuSans-20"
             x="633.638672"
             id="use12313" />
          <use
             xlink:href="#DejaVuSans-65"
             x="665.425781"
             id="use12315" />
          <use
             xlink:href="#DejaVuSans-74"
             x="726.949219"
             id="use12317" />
          <use
             xlink:href="#DejaVuSans-20"
             x="766.158203"
             id="use12319" />
          <use
             xlink:href="#DejaVuSans-74"
             x="797.945312"
             id="use12321" />
          <use
             xlink:href="#DejaVuSans-61"
             x="837.154297"
             id="use12323" />
          <use
             xlink:href="#DejaVuSans-75"
             x="898.433594"
             id="use12325" />
          <use
             xlink:href="#DejaVuSans-78"
             x="961.8125"
             id="use12327" />
          <use
             xlink:href="#DejaVuSans-20"
             x="1020.992188"
             id="use12329" />
          <use
             xlink:href="#DejaVuSans-64"
             x="1052.779297"
             id="use12331" />
          <use
             xlink:href="#DejaVuSans-65"
             x="1116.255859"
             id="use12333" />
          <use
             xlink:href="#DejaVuSans-20"
             x="1177.779297"
             id="use12335" />
          <use
             xlink:href="#DejaVuSans-63"
             x="1209.566406"
             id="use12337" />
          <use
             xlink:href="#DejaVuSans-6f"
             x="1264.546875"
             id="use12339" />
          <use
             xlink:href="#DejaVuSans-6d"
             x="1325.728516"
             id="use12341" />
          <use
             xlink:href="#DejaVuSans-70"
             x="1423.140625"
             id="use12343" />
          <use
             xlink:href="#DejaVuSans-72"
             x="1486.617188"
             id="use12345" />
          <use
             xlink:href="#DejaVuSans-65"
             x="1525.480469"
             id="use12347" />
          <use
             xlink:href="#DejaVuSans-73"
             x="1587.003906"
             id="use12349" />
          <use
             xlink:href="#DejaVuSans-73"
             x="1639.103516"
             id="use12351" />
          <use
             xlink:href="#DejaVuSans-69"
             x="1691.203125"
             id="use12353" />
          <use
             xlink:href="#DejaVuSans-6f"
             x="1718.986328"
             id="use12355" />
          <use
             xlink:href="#DejaVuSans-6e"
             x="1780.167969"
             id="use12357" />
          <use
             xlink:href="#DejaVuSans-20"
             x="1843.546875"
             id="use12359" />
          <use
             xlink:href="#DejaVuSans-28"
             x="1875.333984"
             id="use12361" />
          <use
             xlink:href="#DejaVuSans-31"
             x="1914.347656"
             id="use12363" />
          <use
             xlink:href="#DejaVuSans-36"
             x="1977.970703"
             id="use12365" />
          <use
             xlink:href="#DejaVuSans-30"
             x="2041.59375"
             id="use12367" />
          <use
             xlink:href="#DejaVuSans-30"
             x="2105.216797"
             id="use12369" />
          <use
             xlink:href="#DejaVuSans-20"
             x="2168.839844"
             id="use12371" />
          <use
             xlink:href="#DejaVuSans-6e"
             x="2200.626953"
             id="use12373" />
          <use
             xlink:href="#DejaVuSans-65"
             x="2264.005859"
             id="use12375" />
          <use
             xlink:href="#DejaVuSans-75"
             x="2325.529297"
             id="use12377" />
          <use
             xlink:href="#DejaVuSans-72"
             x="2388.908203"
             id="use12379" />
          <use
             xlink:href="#DejaVuSans-6f"
             x="2427.771484"
             id="use12381" />
          <use
             xlink:href="#DejaVuSans-6e"
             x="2488.953125"
             id="use12383" />
          <use
             xlink:href="#DejaVuSans-65"
             x="2552.332031"
             id="use12385" />
          <use
             xlink:href="#DejaVuSans-73"
             x="2613.855469"
             id="use12387" />
          <use
             xlink:href="#DejaVuSans-29"
             x="2665.955078"
             id="use12389" />
        </g>
      </g>
      <g
         id="legend_1"
         transform="translate(-117.30189)">
        <g
           id="patch_11">
          <path
             d="M 256.24656,78.82825 H 407.72 q 2,0 2,-2 V 48.472 q 0,-2 -2,-2 H 256.24656 q -2,0 -2,2 v 28.35625 q 0,2 2,2 z"
             style="opacity:0.8;fill:#ffffff;stroke:#cccccc;stroke-linejoin:miter"
             id="path12394" />
        </g>
        <g
           id="patch_12"
           style="fill:#56d254;fill-opacity:1">
          <path
             d="m 258.24656,58.070437 h 20 v -7 h -20 z"
             style="fill:#56d254;fill-opacity:1"
             id="path12397" />
        </g>
        <g
           id="text_11">
          <!-- Taux de reconnaissance -->
          <g
             transform="matrix(0.1,0,0,-0.1,286.24656,58.070437)"
             id="g12447">
            <defs
               id="defs12401">
              <path
                 id="DejaVuSans-54"
                 d="M -19,4666 H 3928 V 4134 H 2272 V 0 H 1638 V 4134 H -19 Z"
                 transform="scale(0.015625)" />
            </defs>
            <use
               xlink:href="#DejaVuSans-54"
               id="use12403" />
            <use
               xlink:href="#DejaVuSans-61"
               x="44.583984"
               id="use12405" />
            <use
               xlink:href="#DejaVuSans-75"
               x="105.86328"
               id="use12407" />
            <use
               xlink:href="#DejaVuSans-78"
               x="169.24219"
               id="use12409" />
            <use
               xlink:href="#DejaVuSans-20"
               x="228.42188"
               id="use12411" />
            <use
               xlink:href="#DejaVuSans-64"
               x="260.20898"
               id="use12413" />
            <use
               xlink:href="#DejaVuSans-65"
               x="323.68555"
               id="use12415" />
            <use
               xlink:href="#DejaVuSans-20"
               x="385.20898"
               id="use12417" />
            <use
               xlink:href="#DejaVuSans-72"
               x="416.99609"
               id="use12419" />
            <use
               xlink:href="#DejaVuSans-65"
               x="455.85938"
               id="use12421" />
            <use
               xlink:href="#DejaVuSans-63"
               x="517.38281"
               id="use12423" />
            <use
               xlink:href="#DejaVuSans-6f"
               x="572.36328"
               id="use12425" />
            <use
               xlink:href="#DejaVuSans-6e"
               x="633.54492"
               id="use12427" />
            <use
               xlink:href="#DejaVuSans-6e"
               x="696.92383"
               id="use12429" />
            <use
               xlink:href="#DejaVuSans-61"
               x="760.30273"
               id="use12431" />
            <use
               xlink:href="#DejaVuSans-69"
               x="821.58203"
               id="use12433" />
            <use
               xlink:href="#DejaVuSans-73"
               x="849.36523"
               id="use12435" />
            <use
               xlink:href="#DejaVuSans-73"
               x="901.46484"
               id="use12437" />
            <use
               xlink:href="#DejaVuSans-61"
               x="953.56445"
               id="use12439" />
            <use
               xlink:href="#DejaVuSans-6e"
               x="1014.8438"
               id="use12441" />
            <use
               xlink:href="#DejaVuSans-63"
               x="1078.2227"
               id="use12443" />
            <use
               xlink:href="#DejaVuSans-65"
               x="1133.2031"
               id="use12445" />
          </g>
        </g>
        <g
           id="patch_13"
           style="fill:#ff1744;fill-opacity:1">
          <path
             d="m 258.24656,72.748562 h 20 v -7 h -20 z"
             style="fill:#ff1744;fill-opacity:1"
             id="path12450" />
        </g>
        <g
           id="text_12">
          <!-- Taux de Compression -->
          <g
             transform="matrix(0.1,0,0,-0.1,286.24656,72.748562)"
             id="g12494">
            <defs
               id="defs12454">
              <path
                 id="DejaVuSans-43"
                 d="m 4122,4306 v -665 q -319,297 -680,443 -361,147 -767,147 -800,0 -1225,-489 -425,-489 -425,-1414 0,-922 425,-1411 425,-489 1225,-489 406,0 767,147 361,147 680,444 V 359 Q 3791,134 3420,21 3050,-91 2638,-91 1578,-91 968,557 359,1206 359,2328 q 0,1125 609,1773 610,649 1670,649 418,0 788,-111 371,-111 696,-333 z"
                 transform="scale(0.015625)" />
            </defs>
            <use
               xlink:href="#DejaVuSans-54"
               id="use12456" />
            <use
               xlink:href="#DejaVuSans-61"
               x="44.583984"
               id="use12458" />
            <use
               xlink:href="#DejaVuSans-75"
               x="105.86328"
               id="use12460" />
            <use
               xlink:href="#DejaVuSans-78"
               x="169.24219"
               id="use12462" />
            <use
               xlink:href="#DejaVuSans-20"
               x="228.42188"
               id="use12464" />
            <use
               xlink:href="#DejaVuSans-64"
               x="260.20898"
               id="use12466" />
            <use
               xlink:href="#DejaVuSans-65"
               x="323.68555"
               id="use12468" />
            <use
               xlink:href="#DejaVuSans-20"
               x="385.20898"
               id="use12470" />
            <use
               xlink:href="#DejaVuSans-43"
               x="416.99609"
               id="use12472" />
            <use
               xlink:href="#DejaVuSans-6f"
               x="486.82031"
               id="use12474" />
            <use
               xlink:href="#DejaVuSans-6d"
               x="548.00195"
               id="use12476" />
            <use
               xlink:href="#DejaVuSans-70"
               x="645.41406"
               id="use12478" />
            <use
               xlink:href="#DejaVuSans-72"
               x="708.89062"
               id="use12480" />
            <use
               xlink:href="#DejaVuSans-65"
               x="747.75391"
               id="use12482" />
            <use
               xlink:href="#DejaVuSans-73"
               x="809.27734"
               id="use12484" />
            <use
               xlink:href="#DejaVuSans-73"
               x="861.37695"
               id="use12486" />
            <use
               xlink:href="#DejaVuSans-69"
               x="913.47656"
               id="use12488" />
            <use
               xlink:href="#DejaVuSans-6f"
               x="941.25977"
               id="use12490" />
            <use
               xlink:href="#DejaVuSans-6e"
               x="1002.4414"
               id="use12492" />
          </g>
        </g>
      </g>
    </g>
  </g>
  <defs
     id="defs12503">
    <clipPath
       id="p3b2d108bd8">
      <rect
         x="57.6"
         y="41.472"
         width="357.12"
         height="266.112"
         id="rect12500" />
    </clipPath>
  </defs>
</svg>
