<?xml version="1.0" encoding="UTF-8" standalone="no"?>
<!-- Created with Inkscape (http://www.inkscape.org/) -->

<svg
   version="1.1"
   id="svg2"
   xml:space="preserve"
   width="557.04382"
   height="419.27789"
   viewBox="0 0 557.04383 419.27789"
   sodipodi:docname="MNIST_0.svg"
   inkscape:version="1.2 (1:1.2+202206010942+fc4e4096c5)"
   xmlns:inkscape="http://www.inkscape.org/namespaces/inkscape"
   xmlns:sodipodi="http://sodipodi.sourceforge.net/DTD/sodipodi-0.dtd"
   xmlns="http://www.w3.org/2000/svg"
   xmlns:svg="http://www.w3.org/2000/svg"
   xmlns:rdf="http://www.w3.org/1999/02/22-rdf-syntax-ns#"
   xmlns:cc="http://creativecommons.org/ns#"
   xmlns:dc="http://purl.org/dc/elements/1.1/"><metadata
     id="metadata8"><rdf:RDF><cc:Work
         rdf:about=""><dc:format>image/svg+xml</dc:format><dc:type
           rdf:resource="http://purl.org/dc/dcmitype/StillImage" /></cc:Work></rdf:RDF></metadata><defs
     id="defs6"><clipPath
       clipPathUnits="userSpaceOnUse"
       id="clipPath130"><path
         d="M 33.391,294.53 H 390.512 V 28.417 H 33.391 Z"
         id="path128"
         inkscape:connector-curvature="0" /></clipPath><clipPath
       clipPathUnits="userSpaceOnUse"
       id="clipPath140"><path
         d="m 33,209 h 356 v 3 H 33 Z"
         id="path138"
         inkscape:connector-curvature="0" /></clipPath><clipPath
       clipPathUnits="userSpaceOnUse"
       id="clipPath156"><path
         d="m 48,29 h 3 v 264 h -3 z"
         id="path154"
         inkscape:connector-curvature="0" /></clipPath><clipPath
       clipPathUnits="userSpaceOnUse"
       id="clipPath172"><path
         d="m 113,29 h 3 v 264 h -3 z"
         id="path170"
         inkscape:connector-curvature="0" /></clipPath><clipPath
       clipPathUnits="userSpaceOnUse"
       id="clipPath188"><path
         d="m 178,29 h 3 v 264 h -3 z"
         id="path186"
         inkscape:connector-curvature="0" /></clipPath><clipPath
       clipPathUnits="userSpaceOnUse"
       id="clipPath204"><path
         d="m 243,29 h 3 v 264 h -3 z"
         id="path202"
         inkscape:connector-curvature="0" /></clipPath><clipPath
       clipPathUnits="userSpaceOnUse"
       id="clipPath220"><path
         d="m 308,29 h 3 v 264 h -3 z"
         id="path218"
         inkscape:connector-curvature="0" /></clipPath><clipPath
       clipPathUnits="userSpaceOnUse"
       id="clipPath236"><path
         d="m 373,29 h 3 v 264 h -3 z"
         id="path234"
         inkscape:connector-curvature="0" /></clipPath><clipPath
       clipPathUnits="userSpaceOnUse"
       id="clipPath252"><path
         d="m 33,49 h 356 v 2 H 33 Z"
         id="path250"
         inkscape:connector-curvature="0" /></clipPath><clipPath
       clipPathUnits="userSpaceOnUse"
       id="clipPath268"><path
         d="m 33,102 h 356 v 3 H 33 Z"
         id="path266"
         inkscape:connector-curvature="0" /></clipPath><clipPath
       clipPathUnits="userSpaceOnUse"
       id="clipPath284"><path
         d="m 33,156 h 356 v 2 H 33 Z"
         id="path282"
         inkscape:connector-curvature="0" /></clipPath><clipPath
       clipPathUnits="userSpaceOnUse"
       id="clipPath300"><path
         d="m 33,263 h 356 v 2 H 33 Z"
         id="path298"
         inkscape:connector-curvature="0" /></clipPath><clipPath
       clipPathUnits="userSpaceOnUse"
       id="clipPath316"><path
         d="M 48,40 H 376 V 284 H 48 Z"
         id="path314"
         inkscape:connector-curvature="0" /></clipPath><clipPath
       clipPathUnits="userSpaceOnUse"
       id="clipPath332"><path
         d="M 46,37 H 378 V 287 H 46 Z"
         id="path330"
         inkscape:connector-curvature="0" /></clipPath><clipPath
       clipPathUnits="userSpaceOnUse"
       id="clipPath368"><path
         d="M 48,115 H 376 V 267 H 48 Z"
         id="path366"
         inkscape:connector-curvature="0" /></clipPath><clipPath
       clipPathUnits="userSpaceOnUse"
       id="clipPath384"><path
         d="M 45,112 H 379 V 270 H 45 Z"
         id="path382"
         inkscape:connector-curvature="0" /></clipPath><clipPath
       clipPathUnits="userSpaceOnUse"
       id="clipPath436"><path
         d="m 91,295.3114 h 209 v 20 H 91 Z"
         id="path434"
         inkscape:connector-curvature="0" /></clipPath><mask
       maskUnits="userSpaceOnUse"
       x="0"
       y="0"
       width="1"
       height="1"
       id="mask438"><g
         id="g444"><g
           clip-path="url(#clipPath436)"
           id="g442"><path
             d="m 91,295.3114 h 209 v 20 H 91 Z"
             style="fill:#000000;fill-opacity:0.8;fill-rule:nonzero;stroke:none"
             id="path440"
             inkscape:connector-curvature="0" /></g></g></mask><clipPath
       clipPathUnits="userSpaceOnUse"
       id="clipPath452"><path
         d="m 91,295.3114 h 209 v 20 H 91 Z"
         id="path450"
         inkscape:connector-curvature="0" /></clipPath><clipPath
       clipPathUnits="userSpaceOnUse"
       id="clipPath456"><path
         d="m 91,296 h 209 v 20 H 91 Z"
         id="path454"
         inkscape:connector-curvature="0" /></clipPath></defs><sodipodi:namedview
     pagecolor="#ffffff"
     bordercolor="#666666"
     borderopacity="1"
     objecttolerance="10"
     gridtolerance="10"
     guidetolerance="10"
     inkscape:pageopacity="0"
     inkscape:pageshadow="2"
     inkscape:window-width="1920"
     inkscape:window-height="1011"
     id="namedview4"
     showgrid="false"
     inkscape:zoom="1.5877371"
     inkscape:cx="447.1773"
     inkscape:cy="256.33966"
     inkscape:window-x="1920"
     inkscape:window-y="33"
     inkscape:window-maximized="1"
     inkscape:current-layer="g10"
     fit-margin-top="0"
     fit-margin-left="0"
     fit-margin-right="0"
     fit-margin-bottom="0"
     inkscape:showpageshadow="0"
     inkscape:pagecheckerboard="0"
     inkscape:deskcolor="#d1d1d1" /><g
     id="g10"
     inkscape:groupmode="layer"
     inkscape:label="MNIST"
     transform="matrix(1.3333333,0,0,-1.3333333,0,419.27656)"><g
       id="g12"><path
         d="M 33.391,294.53 H 390.512 V 28.417 H 33.391 Z"
         style="fill:#ffffff;fill-opacity:1;fill-rule:nonzero;stroke:none"
         id="path14"
         inkscape:connector-curvature="0" /><g
         id="g16"
         transform="matrix(1,0,0,-1,0,315.3114)"><path
           d="m 49.625,286.895 v 3.5"
           style="fill:none;stroke:#000000;stroke-width:0.80000001;stroke-linecap:butt;stroke-linejoin:round;stroke-miterlimit:4;stroke-dasharray:none;stroke-opacity:1"
           id="path18"
           inkscape:connector-curvature="0" /></g><path
         d="m 47.684,14.651 h 1.613 v 5.563 l -1.754,-0.352 v 0.899 l 1.742,0.351 h 0.988 v -6.461 h 1.61 v -0.832 h -4.199 z"
         style="fill:#000000;fill-opacity:1;fill-rule:nonzero;stroke:none"
         id="path20"
         inkscape:connector-curvature="0" /><g
         id="g22"
         transform="matrix(1,0,0,-1,0,315.3114)"><path
           d="m 114.555,286.895 v 3.5"
           style="fill:none;stroke:#000000;stroke-width:0.80000001;stroke-linecap:butt;stroke-linejoin:round;stroke-miterlimit:4;stroke-dasharray:none;stroke-opacity:1"
           id="path24"
           inkscape:connector-curvature="0" /></g><path
         d="m 113.293,14.651 h 3.441 v -0.832 h -4.629 v 0.832 c 0.375,0.387 0.887,0.906 1.532,1.559 0.648,0.652 1.054,1.074 1.218,1.262 0.317,0.355 0.536,0.656 0.661,0.902 0.129,0.246 0.191,0.488 0.191,0.723 0,0.39 -0.137,0.703 -0.41,0.949 -0.27,0.246 -0.625,0.367 -1.063,0.367 -0.308,0 -0.636,-0.055 -0.98,-0.16 -0.34,-0.11 -0.707,-0.274 -1.098,-0.492 v 1 c 0.395,0.156 0.766,0.277 1.114,0.359 0.343,0.082 0.66,0.121 0.945,0.121 0.758,0 1.359,-0.187 1.808,-0.566 0.45,-0.375 0.672,-0.883 0.672,-1.512 0,-0.301 -0.054,-0.586 -0.168,-0.856 -0.109,-0.265 -0.316,-0.582 -0.613,-0.945 -0.082,-0.097 -0.34,-0.367 -0.777,-0.82 -0.434,-0.449 -1.047,-1.082 -1.844,-1.891 z"
         style="fill:#000000;fill-opacity:1;fill-rule:nonzero;stroke:none"
         id="path26"
         inkscape:connector-curvature="0" /><g
         id="g28"
         transform="matrix(1,0,0,-1,0,315.3114)"><path
           d="m 179.488,286.895 v 3.5"
           style="fill:none;stroke:#000000;stroke-width:0.80000001;stroke-linecap:butt;stroke-linejoin:round;stroke-miterlimit:4;stroke-dasharray:none;stroke-opacity:1"
           id="path30"
           inkscape:connector-curvature="0" /></g><path
         d="m 180.363,17.753 c 0.473,-0.102 0.84,-0.313 1.106,-0.633 0.265,-0.32 0.398,-0.711 0.398,-1.18 0,-0.718 -0.25,-1.277 -0.742,-1.672 -0.496,-0.394 -1.199,-0.589 -2.109,-0.589 -0.305,0 -0.621,0.031 -0.946,0.089 -0.324,0.063 -0.656,0.153 -1.004,0.274 v 0.949 c 0.274,-0.16 0.575,-0.277 0.899,-0.359 0.324,-0.082 0.668,-0.121 1.023,-0.121 0.617,0 1.086,0.121 1.41,0.363 0.325,0.246 0.489,0.598 0.489,1.066 0,0.43 -0.153,0.766 -0.453,1.008 -0.301,0.242 -0.719,0.363 -1.258,0.363 h -0.848 v 0.809 h 0.887 c 0.484,0 0.855,0.098 1.113,0.293 0.258,0.191 0.387,0.473 0.387,0.836 0,0.375 -0.133,0.66 -0.399,0.863 -0.265,0.199 -0.644,0.301 -1.14,0.301 -0.27,0 -0.559,-0.031 -0.867,-0.09 -0.313,-0.058 -0.653,-0.148 -1.024,-0.273 v 0.879 c 0.375,0.105 0.727,0.183 1.055,0.234 0.328,0.055 0.637,0.078 0.926,0.078 0.75,0 1.339,-0.168 1.777,-0.512 0.434,-0.336 0.652,-0.797 0.652,-1.375 0,-0.406 -0.113,-0.746 -0.347,-1.023 -0.231,-0.281 -0.559,-0.473 -0.985,-0.578 z"
         style="fill:#000000;fill-opacity:1;fill-rule:nonzero;stroke:none"
         id="path32"
         inkscape:connector-curvature="0" /><g
         id="g34"
         transform="matrix(1,0,0,-1,0,315.3114)"><path
           d="m 244.418,286.895 v 3.5"
           style="fill:none;stroke:#000000;stroke-width:0.80000001;stroke-linecap:butt;stroke-linejoin:round;stroke-miterlimit:4;stroke-dasharray:none;stroke-opacity:1"
           id="path36"
           inkscape:connector-curvature="0" /></g><path
         d="m 245.016,20.253 -2.489,-3.895 h 2.489 z m -0.258,0.859 h 1.238 v -4.754 h 1.043 v -0.82 h -1.043 v -1.719 h -0.98 v 1.719 h -3.289 v 0.953 z"
         style="fill:#000000;fill-opacity:1;fill-rule:nonzero;stroke:none"
         id="path38"
         inkscape:connector-curvature="0" /><g
         id="g40"
         transform="matrix(1,0,0,-1,0,315.3114)"><path
           d="m 309.348,286.895 v 3.5"
           style="fill:none;stroke:#000000;stroke-width:0.80000001;stroke-linecap:butt;stroke-linejoin:round;stroke-miterlimit:4;stroke-dasharray:none;stroke-opacity:1"
           id="path42"
           inkscape:connector-curvature="0" /></g><path
         d="m 307.246,21.112 h 3.871 V 20.28 h -2.969 v -1.785 c 0.145,0.047 0.286,0.086 0.43,0.109 0.145,0.024 0.289,0.036 0.43,0.036 0.816,0 1.461,-0.223 1.933,-0.668 0.477,-0.446 0.715,-1.051 0.715,-1.813 0,-0.785 -0.246,-1.394 -0.734,-1.828 -0.488,-0.438 -1.176,-0.652 -2.063,-0.652 -0.308,0 -0.621,0.027 -0.937,0.078 -0.317,0.05 -0.645,0.129 -0.984,0.234 v 0.992 c 0.292,-0.16 0.597,-0.277 0.91,-0.355 0.312,-0.078 0.64,-0.117 0.988,-0.117 0.566,0 1.012,0.148 1.34,0.441 0.328,0.297 0.492,0.699 0.492,1.207 0,0.508 -0.164,0.91 -0.492,1.203 -0.328,0.297 -0.774,0.445 -1.34,0.445 -0.262,0 -0.524,-0.027 -0.789,-0.085 -0.262,-0.059 -0.527,-0.149 -0.801,-0.274 z"
         style="fill:#000000;fill-opacity:1;fill-rule:nonzero;stroke:none"
         id="path44"
         inkscape:connector-curvature="0" /><g
         id="g46"
         transform="matrix(1,0,0,-1,0,315.3114)"><path
           d="m 374.281,286.895 v 3.5"
           style="fill:none;stroke:#000000;stroke-width:0.80000001;stroke-linecap:butt;stroke-linejoin:round;stroke-miterlimit:4;stroke-dasharray:none;stroke-opacity:1"
           id="path48"
           inkscape:connector-curvature="0" /></g><path
         d="m 374.398,17.858 c -0.441,0 -0.793,-0.152 -1.05,-0.457 -0.258,-0.301 -0.387,-0.715 -0.387,-1.242 0,-0.523 0.129,-0.937 0.387,-1.242 0.257,-0.305 0.609,-0.457 1.05,-0.457 0.446,0 0.793,0.152 1.055,0.457 0.258,0.305 0.387,0.719 0.387,1.242 0,0.527 -0.129,0.941 -0.387,1.242 -0.262,0.305 -0.609,0.457 -1.055,0.457 z m 1.961,3.09 V 20.05 c -0.25,0.117 -0.5,0.207 -0.75,0.269 -0.254,0.063 -0.504,0.094 -0.75,0.094 -0.652,0 -1.148,-0.219 -1.492,-0.66 -0.344,-0.438 -0.539,-1.102 -0.59,-1.992 0.192,0.285 0.434,0.5 0.723,0.652 0.289,0.152 0.609,0.227 0.957,0.227 0.734,0 1.313,-0.223 1.738,-0.668 0.422,-0.446 0.637,-1.047 0.637,-1.813 0,-0.75 -0.223,-1.352 -0.664,-1.805 -0.445,-0.449 -1.031,-0.675 -1.77,-0.675 -0.843,0 -1.488,0.324 -1.933,0.968 -0.445,0.645 -0.668,1.582 -0.668,2.809 0,1.152 0.273,2.074 0.82,2.758 0.547,0.687 1.281,1.027 2.203,1.027 0.246,0 0.496,-0.023 0.75,-0.074 0.25,-0.047 0.512,-0.121 0.789,-0.219 z"
         style="fill:#000000;fill-opacity:1;fill-rule:nonzero;stroke:none"
         id="path50"
         inkscape:connector-curvature="0" /><path
         d="M 199.547,3.624 V 0.952 h 1.582 c 0.531,0 0.922,0.109 1.18,0.332 0.253,0.219 0.382,0.555 0.382,1.008 0,0.453 -0.129,0.789 -0.382,1.008 -0.258,0.215 -0.649,0.324 -1.18,0.324 z m 0,2.996 V 4.425 h 1.461 c 0.48,0 0.84,0.09 1.074,0.269 0.238,0.184 0.356,0.457 0.356,0.828 0,0.368 -0.118,0.645 -0.356,0.825 -0.234,0.183 -0.594,0.273 -1.074,0.273 z m -0.985,0.812 h 2.52 c 0.75,0 1.332,-0.156 1.738,-0.468 0.407,-0.313 0.61,-0.758 0.61,-1.332 0,-0.45 -0.106,-0.801 -0.313,-1.067 -0.207,-0.261 -0.515,-0.425 -0.918,-0.492 0.485,-0.105 0.863,-0.32 1.129,-0.652 0.27,-0.332 0.406,-0.742 0.406,-1.239 0,-0.652 -0.222,-1.152 -0.664,-1.507 -0.445,-0.356 -1.074,-0.532 -1.89,-0.532 h -2.618 z"
         style="fill:#000000;fill-opacity:1;fill-rule:nonzero;stroke:none"
         id="path52"
         inkscape:connector-curvature="0" /><path
         d="m 207.867,2.89 c -0.726,0 -1.226,-0.083 -1.508,-0.247 -0.281,-0.168 -0.421,-0.449 -0.421,-0.851 0,-0.32 0.105,-0.57 0.316,-0.758 0.211,-0.187 0.496,-0.281 0.855,-0.281 0.5,0 0.899,0.176 1.2,0.531 0.3,0.352 0.453,0.82 0.453,1.406 v 0.2 z m 1.793,0.371 V 0.143 h -0.898 v 0.829 c -0.207,-0.332 -0.461,-0.575 -0.766,-0.735 -0.308,-0.156 -0.684,-0.238 -1.125,-0.238 -0.559,0 -1.004,0.16 -1.336,0.473 -0.332,0.316 -0.496,0.734 -0.496,1.261 0,0.617 0.207,1.078 0.617,1.391 0.414,0.312 1.028,0.469 1.844,0.469 h 1.262 v 0.089 c 0,0.415 -0.137,0.735 -0.407,0.961 -0.273,0.227 -0.656,0.336 -1.148,0.336 -0.312,0 -0.617,-0.035 -0.914,-0.109 C 206,4.792 205.715,4.682 205.441,4.53 v 0.832 c 0.329,0.129 0.649,0.223 0.957,0.285 0.309,0.063 0.61,0.094 0.903,0.094 0.793,0 1.383,-0.203 1.773,-0.613 0.391,-0.41 0.586,-1.031 0.586,-1.867 z"
         style="fill:#000000;fill-opacity:1;fill-rule:nonzero;stroke:none"
         id="path54"
         inkscape:connector-curvature="0" /><path
         d="M 212.398,7.163 V 5.612 h 1.852 V 4.913 h -1.852 V 1.944 c 0,-0.445 0.063,-0.734 0.184,-0.859 0.121,-0.129 0.371,-0.192 0.746,-0.192 h 0.922 v -0.75 h -0.922 c -0.695,0 -1.172,0.129 -1.437,0.387 -0.262,0.258 -0.395,0.731 -0.395,1.414 v 2.969 h -0.66 v 0.699 h 0.66 v 1.551 z"
         style="fill:#000000;fill-opacity:1;fill-rule:nonzero;stroke:none"
         id="path56"
         inkscape:connector-curvature="0" /><path
         d="m 219.367,5.401 v -0.84 c -0.254,0.141 -0.508,0.246 -0.765,0.317 -0.254,0.07 -0.512,0.101 -0.774,0.101 -0.582,0 -1.035,-0.183 -1.359,-0.554 -0.321,-0.368 -0.481,-0.887 -0.481,-1.555 0,-0.664 0.16,-1.184 0.481,-1.555 0.324,-0.367 0.777,-0.554 1.359,-0.554 0.262,0 0.52,0.035 0.774,0.105 0.257,0.07 0.511,0.176 0.765,0.316 V 0.35 c -0.25,-0.117 -0.512,-0.203 -0.781,-0.261 -0.266,-0.059 -0.551,-0.09 -0.856,-0.09 -0.824,0 -1.476,0.262 -1.964,0.777 -0.485,0.52 -0.727,1.215 -0.727,2.094 0,0.895 0.246,1.594 0.734,2.105 0.493,0.512 1.165,0.766 2.016,0.766 0.277,0 0.547,-0.027 0.813,-0.086 0.261,-0.055 0.515,-0.14 0.765,-0.254 z"
         style="fill:#000000;fill-opacity:1;fill-rule:nonzero;stroke:none"
         id="path58"
         inkscape:connector-curvature="0" /><path
         d="M 225.477,3.444 V 0.143 h -0.899 v 3.27 c 0,0.519 -0.101,0.906 -0.305,1.16 -0.203,0.258 -0.503,0.387 -0.906,0.387 -0.484,0 -0.867,-0.153 -1.148,-0.465 -0.281,-0.305 -0.422,-0.727 -0.422,-1.262 v -3.09 h -0.902 v 7.598 h 0.902 v -2.98 c 0.215,0.328 0.469,0.574 0.762,0.738 0.289,0.16 0.625,0.242 1.007,0.242 0.629,0 1.102,-0.191 1.426,-0.582 0.32,-0.387 0.485,-0.961 0.485,-1.715 z"
         style="fill:#000000;fill-opacity:1;fill-rule:nonzero;stroke:none"
         id="path60"
         inkscape:connector-curvature="0" /><g
         id="g62"
         transform="matrix(1,0,0,-1,0,315.3114)"><path
           d="m 33.391,265.977 h -3.5"
           style="fill:none;stroke:#000000;stroke-width:0.80000001;stroke-linecap:butt;stroke-linejoin:round;stroke-miterlimit:4;stroke-dasharray:none;stroke-opacity:1"
           id="path64"
           inkscape:connector-curvature="0" /></g><path
         d="m 14.488,52.827 h 4.688 V 52.409 L 16.527,45.538 H 15.5 l 2.488,6.457 h -3.5 z"
         style="fill:#000000;fill-opacity:1;fill-rule:nonzero;stroke:none"
         id="path66"
         inkscape:connector-curvature="0" /><path
         d="m 23.207,48.999 c -0.469,0 -0.836,-0.125 -1.105,-0.375 -0.27,-0.254 -0.403,-0.598 -0.403,-1.035 0,-0.442 0.133,-0.785 0.403,-1.035 0.269,-0.254 0.636,-0.379 1.105,-0.379 0.469,0 0.84,0.129 1.109,0.379 0.27,0.253 0.407,0.597 0.407,1.035 0,0.437 -0.137,0.781 -0.403,1.035 -0.269,0.25 -0.64,0.375 -1.113,0.375 z m -0.984,0.418 c -0.426,0.105 -0.754,0.301 -0.989,0.594 -0.238,0.289 -0.355,0.64 -0.355,1.058 0,0.582 0.207,1.043 0.621,1.383 0.418,0.336 0.984,0.508 1.707,0.508 0.727,0 1.297,-0.172 1.711,-0.508 0.414,-0.34 0.621,-0.801 0.621,-1.383 0,-0.418 -0.121,-0.769 -0.355,-1.058 -0.239,-0.293 -0.563,-0.489 -0.985,-0.594 0.477,-0.11 0.844,-0.324 1.11,-0.649 0.265,-0.32 0.398,-0.714 0.398,-1.179 0,-0.707 -0.215,-1.25 -0.645,-1.629 -0.433,-0.375 -1.05,-0.567 -1.855,-0.567 -0.801,0 -1.422,0.192 -1.852,0.567 -0.433,0.379 -0.648,0.922 -0.648,1.629 0,0.465 0.133,0.859 0.402,1.179 0.266,0.325 0.637,0.539 1.114,0.649 z m -0.364,1.558 c 0,-0.375 0.118,-0.671 0.356,-0.882 0.234,-0.211 0.566,-0.317 0.992,-0.317 0.426,0 0.754,0.106 0.996,0.317 0.238,0.211 0.359,0.507 0.359,0.882 0,0.379 -0.121,0.672 -0.359,0.887 -0.242,0.211 -0.57,0.317 -0.996,0.317 -0.426,0 -0.758,-0.106 -0.992,-0.317 -0.238,-0.215 -0.356,-0.508 -0.356,-0.887 z"
         style="fill:#000000;fill-opacity:1;fill-rule:nonzero;stroke:none"
         id="path68"
         inkscape:connector-curvature="0" /><g
         id="g70"
         transform="matrix(1,0,0,-1,0,315.3114)"><path
           d="m 33.391,212.512 h -3.5"
           style="fill:none;stroke:#000000;stroke-width:0.80000001;stroke-linecap:butt;stroke-linejoin:round;stroke-miterlimit:4;stroke-dasharray:none;stroke-opacity:1"
           id="path72"
           inkscape:connector-curvature="0" /></g><path
         d="m 16.844,102.464 c -0.469,0 -0.836,-0.125 -1.106,-0.379 -0.265,-0.25 -0.402,-0.594 -0.402,-1.035 0,-0.438 0.137,-0.782 0.402,-1.035 0.27,-0.25 0.637,-0.375 1.106,-0.375 0.468,0 0.84,0.125 1.109,0.378 0.27,0.25 0.406,0.598 0.406,1.032 0,0.441 -0.132,0.785 -0.402,1.035 -0.269,0.254 -0.641,0.379 -1.113,0.379 z m -0.985,0.418 c -0.421,0.105 -0.754,0.3 -0.988,0.59 -0.234,0.289 -0.355,0.644 -0.355,1.062 0,0.582 0.207,1.043 0.625,1.379 0.414,0.34 0.984,0.508 1.703,0.508 0.726,0 1.297,-0.168 1.711,-0.508 0.414,-0.336 0.621,-0.797 0.621,-1.379 0,-0.418 -0.117,-0.773 -0.356,-1.062 -0.234,-0.29 -0.562,-0.485 -0.984,-0.59 0.476,-0.11 0.848,-0.328 1.109,-0.653 0.266,-0.32 0.399,-0.714 0.399,-1.179 0,-0.707 -0.215,-1.25 -0.645,-1.625 -0.433,-0.379 -1.051,-0.567 -1.855,-0.567 -0.801,0 -1.418,0.188 -1.852,0.567 -0.43,0.375 -0.648,0.918 -0.648,1.625 0,0.465 0.136,0.859 0.402,1.179 0.266,0.325 0.637,0.543 1.113,0.653 z M 15.5,104.44 c 0,-0.379 0.117,-0.672 0.352,-0.883 0.238,-0.21 0.566,-0.32 0.992,-0.32 0.426,0 0.758,0.11 0.996,0.32 0.238,0.211 0.359,0.504 0.359,0.883 0,0.375 -0.121,0.672 -0.359,0.883 -0.238,0.211 -0.57,0.317 -0.996,0.317 -0.426,0 -0.754,-0.106 -0.992,-0.317 -0.235,-0.211 -0.352,-0.508 -0.352,-0.883 z"
         style="fill:#000000;fill-opacity:1;fill-rule:nonzero;stroke:none"
         id="path74"
         inkscape:connector-curvature="0" /><path
         d="m 23.207,105.64 c -0.508,0 -0.887,-0.25 -1.145,-0.75 -0.253,-0.497 -0.382,-1.25 -0.382,-2.254 0,-0.996 0.129,-1.746 0.382,-2.246 0.258,-0.5 0.637,-0.75 1.145,-0.75 0.512,0 0.895,0.25 1.152,0.75 0.254,0.5 0.383,1.25 0.383,2.246 0,1.004 -0.129,1.757 -0.383,2.254 -0.257,0.5 -0.64,0.75 -1.152,0.75 z m 0,0.781 c 0.816,0 1.441,-0.324 1.875,-0.969 0.43,-0.645 0.645,-1.586 0.645,-2.816 0,-1.227 -0.215,-2.164 -0.645,-2.809 -0.434,-0.645 -1.059,-0.969 -1.875,-0.969 -0.816,0 -1.441,0.324 -1.871,0.969 -0.43,0.645 -0.648,1.582 -0.648,2.809 0,1.23 0.218,2.171 0.648,2.816 0.43,0.645 1.055,0.969 1.871,0.969 z"
         style="fill:#000000;fill-opacity:1;fill-rule:nonzero;stroke:none"
         id="path76"
         inkscape:connector-curvature="0" /><g
         id="g78"
         transform="matrix(1,0,0,-1,0,315.3114)"><path
           d="m 33.391,159.051 h -3.5"
           style="fill:none;stroke:#000000;stroke-width:0.80000001;stroke-linecap:butt;stroke-linejoin:round;stroke-miterlimit:4;stroke-dasharray:none;stroke-opacity:1"
           id="path80"
           inkscape:connector-curvature="0" /></g><path
         d="m 16.844,155.925 c -0.469,0 -0.836,-0.125 -1.106,-0.375 -0.265,-0.25 -0.402,-0.598 -0.402,-1.035 0,-0.442 0.137,-0.786 0.402,-1.036 0.27,-0.25 0.637,-0.379 1.106,-0.379 0.468,0 0.84,0.129 1.109,0.379 0.27,0.254 0.406,0.598 0.406,1.036 0,0.437 -0.132,0.785 -0.402,1.035 -0.269,0.25 -0.641,0.375 -1.113,0.375 z m -0.985,0.418 c -0.421,0.105 -0.754,0.3 -0.988,0.593 -0.234,0.289 -0.355,0.645 -0.355,1.059 0,0.582 0.207,1.043 0.625,1.383 0.414,0.336 0.984,0.508 1.703,0.508 0.726,0 1.297,-0.172 1.711,-0.508 0.414,-0.34 0.621,-0.801 0.621,-1.383 0,-0.414 -0.117,-0.77 -0.356,-1.059 -0.234,-0.293 -0.562,-0.488 -0.984,-0.593 0.476,-0.11 0.848,-0.325 1.109,-0.649 0.266,-0.32 0.399,-0.715 0.399,-1.179 0,-0.708 -0.215,-1.25 -0.645,-1.629 -0.433,-0.375 -1.051,-0.567 -1.855,-0.567 -0.801,0 -1.418,0.192 -1.852,0.567 -0.43,0.379 -0.648,0.921 -0.648,1.629 0,0.464 0.136,0.859 0.402,1.179 0.266,0.324 0.637,0.539 1.113,0.649 z m -0.359,1.558 c 0,-0.375 0.117,-0.672 0.352,-0.883 0.238,-0.211 0.566,-0.316 0.992,-0.316 0.426,0 0.758,0.105 0.996,0.316 0.238,0.211 0.359,0.508 0.359,0.883 0,0.379 -0.121,0.672 -0.359,0.887 -0.238,0.211 -0.57,0.316 -0.996,0.316 -0.426,0 -0.754,-0.105 -0.992,-0.316 -0.235,-0.215 -0.352,-0.508 -0.352,-0.887 z"
         style="fill:#000000;fill-opacity:1;fill-rule:nonzero;stroke:none"
         id="path82"
         inkscape:connector-curvature="0" /><path
         d="m 21.949,153.292 h 3.442 v -0.828 h -4.629 v 0.828 c 0.375,0.387 0.883,0.906 1.531,1.558 0.645,0.657 1.051,1.075 1.219,1.266 0.316,0.356 0.535,0.652 0.66,0.899 0.125,0.246 0.187,0.488 0.187,0.726 0,0.387 -0.132,0.703 -0.406,0.945 -0.273,0.246 -0.625,0.368 -1.062,0.368 -0.309,0 -0.637,-0.051 -0.981,-0.161 -0.344,-0.105 -0.707,-0.269 -1.098,-0.488 v 0.996 c 0.395,0.16 0.766,0.281 1.11,0.364 0.348,0.078 0.664,0.121 0.949,0.121 0.754,0 1.359,-0.192 1.809,-0.567 0.445,-0.379 0.672,-0.883 0.672,-1.515 0,-0.297 -0.055,-0.582 -0.168,-0.852 -0.114,-0.27 -0.317,-0.582 -0.614,-0.949 -0.082,-0.094 -0.34,-0.367 -0.777,-0.817 -0.434,-0.453 -1.051,-1.082 -1.844,-1.894 z"
         style="fill:#000000;fill-opacity:1;fill-rule:nonzero;stroke:none"
         id="path84"
         inkscape:connector-curvature="0" /><g
         id="g86"
         transform="matrix(1,0,0,-1,0,315.3114)"><path
           d="m 33.391,105.586 h -3.5"
           style="fill:none;stroke:#000000;stroke-width:0.80000001;stroke-linecap:butt;stroke-linejoin:round;stroke-miterlimit:4;stroke-dasharray:none;stroke-opacity:1"
           id="path88"
           inkscape:connector-curvature="0" /></g><path
         d="m 16.844,209.39 c -0.469,0 -0.836,-0.125 -1.106,-0.379 -0.265,-0.25 -0.402,-0.594 -0.402,-1.032 0,-0.441 0.137,-0.785 0.402,-1.039 0.27,-0.25 0.637,-0.375 1.106,-0.375 0.468,0 0.84,0.125 1.109,0.379 0.27,0.254 0.406,0.598 0.406,1.035 0,0.438 -0.132,0.782 -0.402,1.032 -0.269,0.254 -0.641,0.379 -1.113,0.379 z m -0.985,0.417 c -0.421,0.106 -0.754,0.301 -0.988,0.59 -0.234,0.293 -0.355,0.645 -0.355,1.063 0,0.582 0.207,1.043 0.625,1.379 0.414,0.34 0.984,0.508 1.703,0.508 0.726,0 1.297,-0.168 1.711,-0.508 0.414,-0.336 0.621,-0.797 0.621,-1.379 0,-0.418 -0.117,-0.77 -0.356,-1.063 -0.234,-0.289 -0.562,-0.484 -0.984,-0.59 0.476,-0.109 0.848,-0.328 1.109,-0.648 0.266,-0.324 0.399,-0.719 0.399,-1.18 0,-0.711 -0.215,-1.25 -0.645,-1.629 -0.433,-0.378 -1.051,-0.566 -1.855,-0.566 -0.801,0 -1.418,0.188 -1.852,0.566 -0.43,0.379 -0.648,0.918 -0.648,1.629 0,0.461 0.136,0.856 0.402,1.18 0.266,0.32 0.637,0.539 1.113,0.648 z m -0.359,1.559 c 0,-0.379 0.117,-0.672 0.352,-0.883 0.238,-0.211 0.566,-0.316 0.992,-0.316 0.426,0 0.758,0.105 0.996,0.316 0.238,0.211 0.359,0.504 0.359,0.883 0,0.379 -0.121,0.672 -0.359,0.883 -0.238,0.211 -0.57,0.316 -0.996,0.316 -0.426,0 -0.754,-0.105 -0.992,-0.316 -0.235,-0.211 -0.352,-0.504 -0.352,-0.883 z"
         style="fill:#000000;fill-opacity:1;fill-rule:nonzero;stroke:none"
         id="path90"
         inkscape:connector-curvature="0" /><path
         d="m 23.809,212.358 -2.489,-3.894 h 2.489 z m -0.258,0.86 h 1.238 v -4.754 h 1.043 v -0.821 h -1.043 v -1.718 h -0.98 v 1.718 H 20.52 v 0.954 z"
         style="fill:#000000;fill-opacity:1;fill-rule:nonzero;stroke:none"
         id="path92"
         inkscape:connector-curvature="0" /><g
         id="g94"
         transform="matrix(1,0,0,-1,0,315.3114)"><path
           d="m 33.391,52.125 h -3.5"
           style="fill:none;stroke:#000000;stroke-width:0.80000001;stroke-linecap:butt;stroke-linejoin:round;stroke-miterlimit:4;stroke-dasharray:none;stroke-opacity:1"
           id="path96"
           inkscape:connector-curvature="0" /></g><path
         d="m 16.844,262.85 c -0.469,0 -0.836,-0.125 -1.106,-0.375 -0.265,-0.25 -0.402,-0.597 -0.402,-1.035 0,-0.441 0.137,-0.785 0.402,-1.035 0.27,-0.25 0.637,-0.379 1.106,-0.379 0.468,0 0.84,0.129 1.109,0.379 0.27,0.254 0.406,0.598 0.406,1.035 0,0.438 -0.132,0.785 -0.402,1.035 -0.269,0.25 -0.641,0.375 -1.113,0.375 z m -0.985,0.418 c -0.421,0.106 -0.754,0.301 -0.988,0.594 -0.234,0.289 -0.355,0.645 -0.355,1.059 0,0.582 0.207,1.043 0.625,1.383 0.414,0.336 0.984,0.507 1.703,0.507 0.726,0 1.297,-0.171 1.711,-0.507 0.414,-0.34 0.621,-0.801 0.621,-1.383 0,-0.414 -0.117,-0.77 -0.356,-1.059 -0.234,-0.293 -0.562,-0.488 -0.984,-0.594 0.476,-0.109 0.848,-0.324 1.109,-0.648 0.266,-0.32 0.399,-0.715 0.399,-1.18 0,-0.707 -0.215,-1.25 -0.645,-1.629 -0.433,-0.375 -1.051,-0.566 -1.855,-0.566 -0.801,0 -1.418,0.191 -1.852,0.566 -0.43,0.379 -0.648,0.922 -0.648,1.629 0,0.465 0.136,0.86 0.402,1.18 0.266,0.324 0.637,0.539 1.113,0.648 z m -0.359,1.559 c 0,-0.375 0.117,-0.672 0.352,-0.883 0.238,-0.211 0.566,-0.316 0.992,-0.316 0.426,0 0.758,0.105 0.996,0.316 0.238,0.211 0.359,0.508 0.359,0.883 0,0.379 -0.121,0.672 -0.359,0.887 -0.238,0.211 -0.57,0.316 -0.996,0.316 -0.426,0 -0.754,-0.105 -0.992,-0.316 -0.235,-0.215 -0.352,-0.508 -0.352,-0.887 z"
         style="fill:#000000;fill-opacity:1;fill-rule:nonzero;stroke:none"
         id="path98"
         inkscape:connector-curvature="0" /><path
         d="m 23.332,263.425 c -0.445,0 -0.793,-0.149 -1.055,-0.453 -0.257,-0.301 -0.386,-0.715 -0.386,-1.243 0,-0.527 0.129,-0.941 0.386,-1.246 0.262,-0.304 0.61,-0.457 1.055,-0.457 0.441,0 0.793,0.153 1.051,0.457 0.258,0.305 0.387,0.719 0.387,1.246 0,0.528 -0.129,0.942 -0.387,1.243 -0.258,0.304 -0.61,0.453 -1.051,0.453 z m 1.957,3.093 v -0.898 c -0.25,0.117 -0.5,0.207 -0.75,0.266 -0.254,0.062 -0.504,0.093 -0.75,0.093 -0.652,0 -1.148,-0.218 -1.492,-0.656 -0.344,-0.441 -0.539,-1.105 -0.586,-1.992 0.191,0.281 0.43,0.5 0.719,0.648 0.293,0.153 0.609,0.227 0.961,0.227 0.73,0 1.308,-0.223 1.734,-0.664 0.426,-0.445 0.637,-1.051 0.637,-1.813 0,-0.75 -0.223,-1.351 -0.664,-1.804 -0.442,-0.453 -1.032,-0.68 -1.766,-0.68 -0.844,0 -1.488,0.324 -1.934,0.969 -0.449,0.648 -0.671,1.586 -0.671,2.812 0,1.153 0.273,2.071 0.82,2.758 0.547,0.684 1.281,1.027 2.203,1.027 0.246,0 0.496,-0.023 0.75,-0.074 0.25,-0.051 0.516,-0.121 0.789,-0.219 z"
         style="fill:#000000;fill-opacity:1;fill-rule:nonzero;stroke:none"
         id="path100"
         inkscape:connector-curvature="0" /><path
         d="m 1.27,131.737 3.628,-1.34 v 2.684 z m -0.973,-0.558 v 1.121 l 7.289,2.777 V 134.05 L 5.719,133.386 V 130.1 l 1.867,-0.664 v -1.039 z"
         style="fill:#000000;fill-opacity:1;fill-rule:nonzero;stroke:none"
         id="path102"
         inkscape:connector-curvature="0" /><path
         d="m 2.328,140.034 h 0.84 C 3.027,139.78 2.922,139.526 2.852,139.272 2.785,139.018 2.75,138.761 2.75,138.499 c 0,-0.582 0.184,-1.035 0.555,-1.359 0.367,-0.325 0.886,-0.485 1.554,-0.485 0.668,0 1.184,0.16 1.555,0.485 0.367,0.324 0.555,0.777 0.555,1.359 0,0.262 -0.035,0.519 -0.106,0.773 -0.07,0.254 -0.175,0.508 -0.316,0.762 h 0.832 c 0.117,-0.25 0.203,-0.508 0.262,-0.777 0.058,-0.27 0.089,-0.555 0.089,-0.856 0,-0.824 -0.257,-1.48 -0.777,-1.965 -0.519,-0.484 -1.215,-0.726 -2.094,-0.726 -0.894,0 -1.593,0.246 -2.105,0.734 -0.512,0.488 -0.766,1.16 -0.766,2.016 0,0.277 0.028,0.547 0.086,0.808 0.055,0.266 0.141,0.52 0.254,0.766 z"
         style="fill:#000000;fill-opacity:1;fill-rule:nonzero;stroke:none"
         id="path104"
         inkscape:connector-curvature="0" /><path
         d="m 2.328,145.534 h 0.84 C 3.027,145.28 2.922,145.026 2.852,144.768 2.785,144.515 2.75,144.257 2.75,143.995 c 0,-0.582 0.184,-1.035 0.555,-1.359 0.367,-0.321 0.886,-0.481 1.554,-0.481 0.668,0 1.184,0.16 1.555,0.481 0.367,0.324 0.555,0.777 0.555,1.359 0,0.262 -0.035,0.52 -0.106,0.773 -0.07,0.258 -0.175,0.512 -0.316,0.766 h 0.832 c 0.117,-0.25 0.203,-0.512 0.262,-0.781 0.058,-0.266 0.089,-0.551 0.089,-0.856 0,-0.824 -0.257,-1.476 -0.777,-1.965 -0.519,-0.484 -1.215,-0.726 -2.094,-0.726 -0.894,0 -1.593,0.246 -2.105,0.734 -0.512,0.492 -0.766,1.164 -0.766,2.016 0,0.277 0.028,0.547 0.086,0.812 0.055,0.262 0.141,0.52 0.254,0.766 z"
         style="fill:#000000;fill-opacity:1;fill-rule:nonzero;stroke:none"
         id="path106"
         inkscape:connector-curvature="0" /><path
         d="M 5.43,147.003 H 2.117 v 0.898 h 3.278 c 0.519,0 0.906,0.102 1.167,0.301 0.258,0.203 0.387,0.508 0.387,0.91 0,0.485 -0.156,0.867 -0.465,1.149 -0.308,0.285 -0.73,0.425 -1.265,0.425 H 2.117 v 0.899 h 5.469 v -0.899 h -0.84 c 0.332,-0.218 0.578,-0.472 0.742,-0.761 0.16,-0.285 0.242,-0.621 0.242,-1.004 0,-0.625 -0.195,-1.102 -0.585,-1.43 -0.391,-0.324 -0.961,-0.488 -1.715,-0.488 z"
         style="fill:#000000;fill-opacity:1;fill-rule:nonzero;stroke:none"
         id="path108"
         inkscape:connector-curvature="0" /><path
         d="m 2.957,156.604 c -0.059,-0.101 -0.102,-0.211 -0.129,-0.332 -0.027,-0.117 -0.039,-0.25 -0.039,-0.39 0,-0.508 0.164,-0.899 0.492,-1.172 0.332,-0.27 0.805,-0.406 1.426,-0.406 h 2.879 v -0.903 H 2.117 v 0.903 h 0.852 c -0.332,0.187 -0.578,0.433 -0.739,0.738 -0.164,0.301 -0.242,0.668 -0.242,1.101 0,0.063 0.004,0.133 0.012,0.207 0.008,0.075 0.02,0.157 0.035,0.247 z"
         style="fill:#000000;fill-opacity:1;fill-rule:nonzero;stroke:none"
         id="path110"
         inkscape:connector-curvature="0" /><path
         d="m 4.84,160.03 c 0,-0.726 0.082,-1.226 0.246,-1.508 0.168,-0.281 0.449,-0.422 0.852,-0.422 0.32,0 0.57,0.106 0.757,0.317 0.188,0.211 0.282,0.496 0.282,0.855 0,0.5 -0.176,0.899 -0.532,1.2 -0.351,0.304 -0.82,0.453 -1.406,0.453 H 4.84 Z m -0.371,1.793 h 3.117 v -0.898 H 6.758 c 0.332,-0.203 0.574,-0.461 0.734,-0.766 0.16,-0.309 0.238,-0.684 0.238,-1.125 0,-0.559 -0.156,-1.004 -0.472,-1.336 -0.317,-0.328 -0.735,-0.496 -1.262,-0.496 -0.617,0 -1.078,0.207 -1.391,0.617 -0.312,0.414 -0.468,1.028 -0.468,1.844 v 1.262 h -0.09 c -0.414,0 -0.735,-0.137 -0.961,-0.407 -0.223,-0.273 -0.336,-0.656 -0.336,-1.148 0,-0.313 0.035,-0.617 0.109,-0.914 0.079,-0.293 0.188,-0.578 0.34,-0.852 H 2.367 c -0.129,0.328 -0.222,0.649 -0.285,0.957 -0.062,0.309 -0.094,0.61 -0.094,0.903 0,0.793 0.203,1.383 0.614,1.773 0.41,0.391 1.031,0.586 1.867,0.586 z"
         style="fill:#000000;fill-opacity:1;fill-rule:nonzero;stroke:none"
         id="path112"
         inkscape:connector-curvature="0" /><path
         d="m 2.328,167.608 h 0.84 C 3.027,167.354 2.922,167.1 2.852,166.847 2.785,166.589 2.75,166.331 2.75,166.073 c 0,-0.586 0.184,-1.039 0.555,-1.359 0.367,-0.324 0.886,-0.485 1.554,-0.485 0.668,0 1.184,0.161 1.555,0.485 0.367,0.32 0.555,0.773 0.555,1.359 0,0.258 -0.035,0.516 -0.106,0.774 -0.07,0.253 -0.175,0.507 -0.316,0.761 h 0.832 c 0.117,-0.25 0.203,-0.511 0.262,-0.777 0.058,-0.27 0.089,-0.555 0.089,-0.859 0,-0.825 -0.257,-1.477 -0.777,-1.961 -0.519,-0.485 -1.215,-0.727 -2.094,-0.727 -0.894,0 -1.593,0.242 -2.105,0.734 -0.512,0.489 -0.766,1.161 -0.766,2.016 0,0.273 0.028,0.543 0.086,0.809 0.055,0.261 0.141,0.519 0.254,0.765 z"
         style="fill:#000000;fill-opacity:1;fill-rule:nonzero;stroke:none"
         id="path114"
         inkscape:connector-curvature="0" /><path
         d="m 8.094,171.448 c 0.652,-0.254 1.078,-0.504 1.273,-0.742 0.199,-0.242 0.301,-0.563 0.301,-0.969 v -0.719 H 8.914 v 0.532 c 0,0.246 -0.059,0.437 -0.176,0.574 -0.117,0.137 -0.39,0.289 -0.828,0.453 l -0.41,0.16 -5.383,-2.211 v 0.953 l 4.278,1.711 -4.278,1.707 v 0.953 z"
         style="fill:#000000;fill-opacity:1;fill-rule:nonzero;stroke:none"
         id="path116"
         inkscape:connector-curvature="0" /><path
         d="m 0,180.425 c 0.746,-0.434 1.488,-0.758 2.223,-0.973 0.73,-0.211 1.472,-0.316 2.226,-0.316 0.75,0 1.496,0.109 2.231,0.32 0.738,0.215 1.48,0.539 2.226,0.969 v -0.782 c -0.765,-0.488 -1.519,-0.851 -2.258,-1.093 -0.738,-0.243 -1.472,-0.364 -2.199,-0.364 -0.726,0 -1.457,0.118 -2.191,0.36 C 1.52,178.788 0.77,179.155 0,179.643 Z"
         style="fill:#000000;fill-opacity:1;fill-rule:nonzero;stroke:none"
         id="path118"
         inkscape:connector-curvature="0" /><path
         d="m 4.379,188.499 c 0,-0.285 0.121,-0.508 0.363,-0.668 0.238,-0.16 0.574,-0.242 1.004,-0.242 0.422,0 0.758,0.082 1,0.242 0.242,0.16 0.363,0.383 0.363,0.668 0,0.277 -0.121,0.496 -0.363,0.656 -0.242,0.16 -0.578,0.242 -1,0.242 -0.426,0 -0.762,-0.082 -1.004,-0.242 -0.242,-0.16 -0.363,-0.379 -0.363,-0.656 z m -0.621,0 c 0,0.512 0.18,0.922 0.539,1.223 0.355,0.304 0.84,0.457 1.449,0.457 0.609,0 1.094,-0.153 1.449,-0.457 0.356,-0.305 0.535,-0.711 0.535,-1.223 0,-0.524 -0.179,-0.934 -0.535,-1.238 -0.355,-0.301 -0.84,-0.454 -1.449,-0.454 -0.613,0 -1.098,0.153 -1.453,0.458 -0.355,0.304 -0.535,0.714 -0.535,1.234 z M 0.785,183.46 c 0,-0.281 0.121,-0.504 0.363,-0.664 0.243,-0.16 0.575,-0.242 1,-0.242 0.43,0 0.766,0.082 1.008,0.242 0.239,0.156 0.36,0.379 0.36,0.664 0,0.281 -0.121,0.504 -0.36,0.664 -0.242,0.16 -0.578,0.242 -1.008,0.242 -0.418,0 -0.75,-0.082 -0.996,-0.242 C 0.91,183.96 0.785,183.737 0.785,183.46 Z m -0.621,4.406 v 0.781 l 7.566,-4.558 v -0.782 z m 0,-4.406 c 0,0.512 0.18,0.922 0.535,1.226 0.356,0.309 0.84,0.461 1.449,0.461 0.614,0 1.098,-0.152 1.454,-0.457 0.355,-0.304 0.535,-0.715 0.535,-1.23 0,-0.52 -0.18,-0.93 -0.535,-1.231 -0.356,-0.3 -0.84,-0.449 -1.454,-0.449 -0.605,0 -1.089,0.149 -1.445,0.453 -0.359,0.301 -0.539,0.711 -0.539,1.227 z"
         style="fill:#000000;fill-opacity:1;fill-rule:nonzero;stroke:none"
         id="path120"
         inkscape:connector-curvature="0" /><path
         d="m 0,191.53 v 0.781 c 0.77,0.489 1.52,0.852 2.258,1.098 0.734,0.242 1.465,0.363 2.191,0.363 0.727,0 1.461,-0.121 2.199,-0.363 0.739,-0.246 1.493,-0.609 2.258,-1.098 v -0.781 c -0.746,0.434 -1.488,0.754 -2.226,0.969 -0.735,0.215 -1.481,0.32 -2.231,0.32 -0.754,0 -1.496,-0.105 -2.226,-0.32 C 1.488,192.284 0.746,191.964 0,191.53 Z"
         style="fill:#000000;fill-opacity:1;fill-rule:nonzero;stroke:none"
         id="path122"
         inkscape:connector-curvature="0" /></g><g
       id="g124"><g
         id="g126"
         clip-path="url(#clipPath130)"><g
           id="g132"
           transform="translate(0,-0.688599)"><g
             id="g134"><g
               id="g136"
               clip-path="url(#clipPath140)"><g
                 id="g142"><g
                   id="g144"
                   transform="matrix(1,0,0,-1,0,316)"><path
                     d="M 33.391,105.586 H 390.512"
                     style="fill:none;stroke:#52555d;stroke-width:1.5;stroke-linecap:butt;stroke-linejoin:round;stroke-miterlimit:4;stroke-dasharray:1.5, 2.475;stroke-dashoffset:0;stroke-opacity:0.31372501"
                     id="path146"
                     inkscape:connector-curvature="0" /></g></g></g></g></g><g
           id="g148"
           transform="translate(0,-0.688599)"><g
             id="g150"><g
               id="g152"
               clip-path="url(#clipPath156)"><g
                 id="g158"><g
                   id="g160"
                   transform="matrix(1,0,0,-1,0,316)"><path
                     d="M 49.625,286.895 V 20.781"
                     style="fill:none;stroke:#52555d;stroke-width:1.5;stroke-linecap:butt;stroke-linejoin:round;stroke-miterlimit:4;stroke-dasharray:1.5, 2.475;stroke-dashoffset:0;stroke-opacity:0.31372501"
                     id="path162"
                     inkscape:connector-curvature="0" /></g></g></g></g></g><g
           id="g164"
           transform="translate(0,-0.688599)"><g
             id="g166"><g
               id="g168"
               clip-path="url(#clipPath172)"><g
                 id="g174"><g
                   id="g176"
                   transform="matrix(1,0,0,-1,0,316)"><path
                     d="M 114.555,286.895 V 20.781"
                     style="fill:none;stroke:#52555d;stroke-width:1.5;stroke-linecap:butt;stroke-linejoin:round;stroke-miterlimit:4;stroke-dasharray:1.5, 2.475;stroke-dashoffset:0;stroke-opacity:0.31372501"
                     id="path178"
                     inkscape:connector-curvature="0" /></g></g></g></g></g><g
           id="g180"
           transform="translate(0,-0.688599)"><g
             id="g182"><g
               id="g184"
               clip-path="url(#clipPath188)"><g
                 id="g190"><g
                   id="g192"
                   transform="matrix(1,0,0,-1,0,316)"><path
                     d="M 179.488,286.895 V 20.781"
                     style="fill:none;stroke:#52555d;stroke-width:1.5;stroke-linecap:butt;stroke-linejoin:round;stroke-miterlimit:4;stroke-dasharray:1.5, 2.475;stroke-dashoffset:0;stroke-opacity:0.31372501"
                     id="path194"
                     inkscape:connector-curvature="0" /></g></g></g></g></g><g
           id="g196"
           transform="translate(0,-0.688599)"><g
             id="g198"><g
               id="g200"
               clip-path="url(#clipPath204)"><g
                 id="g206"><g
                   id="g208"
                   transform="matrix(1,0,0,-1,0,316)"><path
                     d="M 244.418,286.895 V 20.781"
                     style="fill:none;stroke:#52555d;stroke-width:1.5;stroke-linecap:butt;stroke-linejoin:round;stroke-miterlimit:4;stroke-dasharray:1.5, 2.475;stroke-dashoffset:0;stroke-opacity:0.31372501"
                     id="path210"
                     inkscape:connector-curvature="0" /></g></g></g></g></g><g
           id="g212"
           transform="translate(0,-0.688599)"><g
             id="g214"><g
               id="g216"
               clip-path="url(#clipPath220)"><g
                 id="g222"><g
                   id="g224"
                   transform="matrix(1,0,0,-1,0,316)"><path
                     d="M 309.348,286.895 V 20.781"
                     style="fill:none;stroke:#52555d;stroke-width:1.5;stroke-linecap:butt;stroke-linejoin:round;stroke-miterlimit:4;stroke-dasharray:1.5, 2.475;stroke-dashoffset:0;stroke-opacity:0.31372501"
                     id="path226"
                     inkscape:connector-curvature="0" /></g></g></g></g></g><g
           id="g228"
           transform="translate(0,-0.688599)"><g
             id="g230"><g
               id="g232"
               clip-path="url(#clipPath236)"><g
                 id="g238"><g
                   id="g240"
                   transform="matrix(1,0,0,-1,0,316)"><path
                     d="M 374.281,286.895 V 20.781"
                     style="fill:none;stroke:#52555d;stroke-width:1.5;stroke-linecap:butt;stroke-linejoin:round;stroke-miterlimit:4;stroke-dasharray:1.5, 2.475;stroke-dashoffset:0;stroke-opacity:0.31372501"
                     id="path242"
                     inkscape:connector-curvature="0" /></g></g></g></g></g><g
           id="g244"
           transform="translate(0,-0.688599)"><g
             id="g246"><g
               id="g248"
               clip-path="url(#clipPath252)"><g
                 id="g254"><g
                   id="g256"
                   transform="matrix(1,0,0,-1,0,316)"><path
                     d="M 33.391,265.977 H 390.512"
                     style="fill:none;stroke:#52555d;stroke-width:1.5;stroke-linecap:butt;stroke-linejoin:round;stroke-miterlimit:4;stroke-dasharray:1.5, 2.475;stroke-dashoffset:0;stroke-opacity:0.31372501"
                     id="path258"
                     inkscape:connector-curvature="0" /></g></g></g></g></g><g
           id="g260"
           transform="translate(0,-0.688599)"><g
             id="g262"><g
               id="g264"
               clip-path="url(#clipPath268)"><g
                 id="g270"><g
                   id="g272"
                   transform="matrix(1,0,0,-1,0,316)"><path
                     d="M 33.391,212.512 H 390.512"
                     style="fill:none;stroke:#52555d;stroke-width:1.5;stroke-linecap:butt;stroke-linejoin:round;stroke-miterlimit:4;stroke-dasharray:1.5, 2.475;stroke-dashoffset:0;stroke-opacity:0.31372501"
                     id="path274"
                     inkscape:connector-curvature="0" /></g></g></g></g></g><g
           id="g276"
           transform="translate(0,-0.688599)"><g
             id="g278"><g
               id="g280"
               clip-path="url(#clipPath284)"><g
                 id="g286"><g
                   id="g288"
                   transform="matrix(1,0,0,-1,0,316)"><path
                     d="M 33.391,159.051 H 390.512"
                     style="fill:none;stroke:#52555d;stroke-width:1.5;stroke-linecap:butt;stroke-linejoin:round;stroke-miterlimit:4;stroke-dasharray:1.5, 2.475;stroke-dashoffset:0;stroke-opacity:0.31372501"
                     id="path290"
                     inkscape:connector-curvature="0" /></g></g></g></g></g><g
           id="g292"
           transform="translate(0,-0.688599)"><g
             id="g294"><g
               id="g296"
               clip-path="url(#clipPath300)"><g
                 id="g302"><g
                   id="g304"
                   transform="matrix(1,0,0,-1,0,316)"><path
                     d="M 33.391,52.125 H 390.512"
                     style="fill:none;stroke:#52555d;stroke-width:1.5;stroke-linecap:butt;stroke-linejoin:round;stroke-miterlimit:4;stroke-dasharray:1.5, 2.475;stroke-dashoffset:0;stroke-opacity:0.31372501"
                     id="path306"
                     inkscape:connector-curvature="0" /></g></g></g></g></g><g
           id="g308"
           transform="translate(0,-0.688599)"><g
             id="g310"><g
               id="g312"
               clip-path="url(#clipPath316)"><g
                 id="g318"><g
                   id="g320"
                   transform="matrix(1,0,0,-1,0,316)"><path
                     d="m 49.625,274.797 64.93,-195.942 64.933,-45.98 64.93,17.91 64.93,-0.801 64.933,1.606"
                     style="fill:none;stroke:#d62728;stroke-width:1.5;stroke-linecap:square;stroke-linejoin:round;stroke-miterlimit:4;stroke-dasharray:none;stroke-opacity:1"
                     id="path322"
                     inkscape:connector-curvature="0" /></g></g></g></g></g><g
           id="g324"
           transform="translate(0,-0.688599)"><g
             id="g326"><g
               id="g328"
               clip-path="url(#clipPath332)"><g
                 id="g334"><g
                   id="g336"
                   transform="matrix(1,0,0,-1,0,316)"><path
                     d="m 49.625,277.797 c 0.797,0 1.559,-0.317 2.121,-0.879 0.563,-0.563 0.879,-1.324 0.879,-2.121 0,-0.797 -0.316,-1.559 -0.879,-2.121 -0.562,-0.563 -1.324,-0.879 -2.121,-0.879 -0.797,0 -1.559,0.316 -2.121,0.879 -0.563,0.562 -0.879,1.324 -0.879,2.121 0,0.797 0.316,1.558 0.879,2.121 0.562,0.562 1.324,0.879 2.121,0.879 z"
                     style="fill:#d62728;fill-opacity:1;fill-rule:nonzero;stroke:#d62728;stroke-width:1;stroke-linecap:butt;stroke-linejoin:round;stroke-miterlimit:4;stroke-dasharray:none;stroke-opacity:1"
                     id="path338"
                     inkscape:connector-curvature="0" /></g><g
                   id="g340"
                   transform="matrix(1,0,0,-1,0,316)"><path
                     d="m 114.555,81.855 c 0.797,0 1.558,-0.316 2.121,-0.878 0.562,-0.563 0.879,-1.325 0.879,-2.122 0,-0.796 -0.317,-1.558 -0.879,-2.121 -0.563,-0.562 -1.324,-0.879 -2.121,-0.879 -0.793,0 -1.559,0.317 -2.121,0.879 -0.563,0.563 -0.879,1.325 -0.879,2.121 0,0.797 0.316,1.559 0.879,2.122 0.562,0.562 1.328,0.878 2.121,0.878 z"
                     style="fill:#d62728;fill-opacity:1;fill-rule:nonzero;stroke:#d62728;stroke-width:1;stroke-linecap:butt;stroke-linejoin:round;stroke-miterlimit:4;stroke-dasharray:none;stroke-opacity:1"
                     id="path342"
                     inkscape:connector-curvature="0" /></g><g
                   id="g344"
                   transform="matrix(1,0,0,-1,0,316)"><path
                     d="m 179.488,35.875 c 0.793,0 1.559,-0.316 2.121,-0.879 0.563,-0.562 0.879,-1.324 0.879,-2.121 0,-0.793 -0.316,-1.559 -0.879,-2.121 -0.562,-0.563 -1.328,-0.879 -2.121,-0.879 -0.797,0 -1.558,0.316 -2.121,0.879 -0.562,0.562 -0.879,1.328 -0.879,2.121 0,0.797 0.317,1.559 0.879,2.121 0.563,0.563 1.324,0.879 2.121,0.879 z"
                     style="fill:#d62728;fill-opacity:1;fill-rule:nonzero;stroke:#d62728;stroke-width:1;stroke-linecap:butt;stroke-linejoin:round;stroke-miterlimit:4;stroke-dasharray:none;stroke-opacity:1"
                     id="path346"
                     inkscape:connector-curvature="0" /></g><g
                   id="g348"
                   transform="matrix(1,0,0,-1,0,316)"><path
                     d="m 244.418,53.785 c 0.797,0 1.559,-0.316 2.121,-0.879 0.563,-0.562 0.879,-1.324 0.879,-2.121 0,-0.793 -0.316,-1.558 -0.879,-2.121 -0.562,-0.562 -1.324,-0.879 -2.121,-0.879 -0.797,0 -1.559,0.317 -2.121,0.879 -0.563,0.563 -0.879,1.328 -0.879,2.121 0,0.797 0.316,1.559 0.879,2.121 0.562,0.563 1.324,0.879 2.121,0.879 z"
                     style="fill:#d62728;fill-opacity:1;fill-rule:nonzero;stroke:#d62728;stroke-width:1;stroke-linecap:butt;stroke-linejoin:round;stroke-miterlimit:4;stroke-dasharray:none;stroke-opacity:1"
                     id="path350"
                     inkscape:connector-curvature="0" /></g><g
                   id="g352"
                   transform="matrix(1,0,0,-1,0,316)"><path
                     d="m 309.348,52.984 c 0.797,0 1.558,-0.316 2.121,-0.879 0.562,-0.562 0.879,-1.324 0.879,-2.121 0,-0.796 -0.317,-1.558 -0.879,-2.121 -0.563,-0.562 -1.324,-0.879 -2.121,-0.879 -0.793,0 -1.559,0.317 -2.121,0.879 -0.563,0.563 -0.879,1.325 -0.879,2.121 0,0.797 0.316,1.559 0.879,2.121 0.562,0.563 1.328,0.879 2.121,0.879 z"
                     style="fill:#d62728;fill-opacity:1;fill-rule:nonzero;stroke:#d62728;stroke-width:1;stroke-linecap:butt;stroke-linejoin:round;stroke-miterlimit:4;stroke-dasharray:none;stroke-opacity:1"
                     id="path354"
                     inkscape:connector-curvature="0" /></g><g
                   id="g356"
                   transform="matrix(1,0,0,-1,0,316)"><path
                     d="m 374.281,54.59 c 0.793,0 1.559,-0.317 2.121,-0.879 0.563,-0.563 0.879,-1.328 0.879,-2.121 0,-0.797 -0.316,-1.559 -0.879,-2.121 -0.562,-0.563 -1.328,-0.879 -2.121,-0.879 -0.797,0 -1.558,0.316 -2.125,0.879 -0.562,0.562 -0.875,1.324 -0.875,2.121 0,0.793 0.313,1.558 0.875,2.121 0.567,0.562 1.328,0.879 2.125,0.879 z"
                     style="fill:#d62728;fill-opacity:1;fill-rule:nonzero;stroke:#d62728;stroke-width:1;stroke-linecap:butt;stroke-linejoin:round;stroke-miterlimit:4;stroke-dasharray:none;stroke-opacity:1"
                     id="path358"
                     inkscape:connector-curvature="0" /></g></g></g></g></g><g
           id="g360"
           transform="translate(0,-0.688599)"><g
             id="g362"><g
               id="g364"
               clip-path="url(#clipPath368)"><g
                 id="g370"><g
                   id="g372"
                   transform="matrix(1,0,0,-1,0,316)"><path
                     d="m 49.625,199.52 64.93,-85.461 64.933,-42.075 64.93,-18.015 64.93,-3.61 64.933,59.262"
                     style="fill:none;stroke:#808080;stroke-width:1.5;stroke-linecap:square;stroke-linejoin:round;stroke-miterlimit:4;stroke-dasharray:none;stroke-opacity:1"
                     id="path374"
                     inkscape:connector-curvature="0" /></g></g></g></g></g><g
           id="g376"
           transform="translate(0,-0.688599)"><g
             id="g378"><g
               id="g380"
               clip-path="url(#clipPath384)"><g
                 id="g386"><g
                   id="g388"
                   transform="matrix(1,0,0,-1,0,316)"><path
                     d="m 49.625,202.52 3,-6 h -6 z"
                     style="fill:#808080;fill-opacity:1;fill-rule:nonzero;stroke:#808080;stroke-width:1;stroke-linecap:butt;stroke-linejoin:miter;stroke-miterlimit:4;stroke-dasharray:none;stroke-opacity:1"
                     id="path390"
                     inkscape:connector-curvature="0" /></g><g
                   id="g392"
                   transform="matrix(1,0,0,-1,0,316)"><path
                     d="m 114.555,117.059 3,-6 h -6 z"
                     style="fill:#808080;fill-opacity:1;fill-rule:nonzero;stroke:#808080;stroke-width:1;stroke-linecap:butt;stroke-linejoin:miter;stroke-miterlimit:4;stroke-dasharray:none;stroke-opacity:1"
                     id="path394"
                     inkscape:connector-curvature="0" /></g><g
                   id="g396"
                   transform="matrix(1,0,0,-1,0,316)"><path
                     d="m 179.488,74.984 3,-6 h -6 z"
                     style="fill:#808080;fill-opacity:1;fill-rule:nonzero;stroke:#808080;stroke-width:1;stroke-linecap:butt;stroke-linejoin:miter;stroke-miterlimit:4;stroke-dasharray:none;stroke-opacity:1"
                     id="path398"
                     inkscape:connector-curvature="0" /></g><g
                   id="g400"
                   transform="matrix(1,0,0,-1,0,316)"><path
                     d="m 244.418,56.969 3,-6 h -6 z"
                     style="fill:#808080;fill-opacity:1;fill-rule:nonzero;stroke:#808080;stroke-width:1;stroke-linecap:butt;stroke-linejoin:miter;stroke-miterlimit:4;stroke-dasharray:none;stroke-opacity:1"
                     id="path402"
                     inkscape:connector-curvature="0" /></g><g
                   id="g404"
                   transform="matrix(1,0,0,-1,0,316)"><path
                     d="m 309.348,53.359 3,-6 h -6 z"
                     style="fill:#808080;fill-opacity:1;fill-rule:nonzero;stroke:#808080;stroke-width:1;stroke-linecap:butt;stroke-linejoin:miter;stroke-miterlimit:4;stroke-dasharray:none;stroke-opacity:1"
                     id="path406"
                     inkscape:connector-curvature="0" /></g><g
                   id="g408"
                   transform="matrix(1,0,0,-1,0,316)"><path
                     d="m 374.281,112.621 3,-6 h -6 z"
                     style="fill:#808080;fill-opacity:1;fill-rule:nonzero;stroke:#808080;stroke-width:1;stroke-linecap:butt;stroke-linejoin:miter;stroke-miterlimit:4;stroke-dasharray:none;stroke-opacity:1"
                     id="path410"
                     inkscape:connector-curvature="0" /></g></g></g></g></g></g></g><g
       id="g412"><g
   id="g414"
   transform="matrix(1,0,0,-1,0,315.3114)"><path
     d="M 33.391,286.895 V 20.781"
     style="fill:none;stroke:#000000;stroke-width:0.80000001;stroke-linecap:square;stroke-linejoin:miter;stroke-miterlimit:4;stroke-dasharray:none;stroke-opacity:1"
     id="path416"
     inkscape:connector-curvature="0" /></g><g
   id="g418"
   transform="matrix(1,0,0,-1,0,315.3114)"><path
     d="M 390.512,286.895 V 20.781"
     style="fill:none;stroke:#000000;stroke-width:0.80000001;stroke-linecap:square;stroke-linejoin:miter;stroke-miterlimit:4;stroke-dasharray:none;stroke-opacity:1"
     id="path420"
     inkscape:connector-curvature="0" /></g><g
   id="g422"
   transform="matrix(1,0,0,-1,0,315.3114)"><path
     d="M 33.391,286.895 H 390.512"
     style="fill:none;stroke:#000000;stroke-width:0.80000001;stroke-linecap:square;stroke-linejoin:miter;stroke-miterlimit:4;stroke-dasharray:none;stroke-opacity:1"
     id="path424"
     inkscape:connector-curvature="0" /></g><g
   id="g426"
   transform="matrix(1,0,0,-1,0,315.3114)"><path
     d="M 33.391,20.781 H 390.512"
     style="fill:none;stroke:#000000;stroke-width:0.80000001;stroke-linecap:square;stroke-linejoin:miter;stroke-miterlimit:4;stroke-dasharray:none;stroke-opacity:1"
     id="path428"
     inkscape:connector-curvature="0" /></g><g
   id="g430"><g
     id="g432" /><g
     id="g446"
     mask="url(#mask438)"><g
       id="g448" /><g
       id="g472"><g
         clip-path="url(#clipPath452)"
         id="g470"><g
           transform="translate(0,-0.688599)"
           id="g468"><g
             id="g466"><g
               clip-path="url(#clipPath456)"
               id="g464"><g
                 id="g462"><g
                   transform="matrix(1,0,0,-1,0,316)"
                   id="g460"><path
                     d="m 93.027,18.93 h 204.86 c 0.836,0 1.254,-0.668 1.254,-2 V 3.25 c 0,-1.332 -0.418,-2 -1.254,-2 H 93.027 c -0.839,0 -1.257,0.668 -1.257,2 v 13.68 c 0,1.332 0.418,2 1.257,2 z"
                     style="fill:#ffffff;fill-opacity:1;fill-rule:nonzero;stroke:#cccccc;stroke-width:0.79205197;stroke-linecap:butt;stroke-linejoin:miter;stroke-miterlimit:4;stroke-dasharray:none;stroke-opacity:1"
                     id="path458"
                     inkscape:connector-curvature="0" /></g></g></g></g></g></g></g></g></g><g
   id="g474"
   transform="matrix(1,0,0,-1,0,315.3114)"><path
     d="m 102.762,9.348 h 20"
     style="fill:none;stroke:#808080;stroke-width:1.5;stroke-linecap:square;stroke-linejoin:round;stroke-miterlimit:4;stroke-dasharray:none;stroke-opacity:1"
     id="path476"
     inkscape:connector-curvature="0" /></g><g
   id="g478"
   transform="matrix(1,0,0,-1,0,315.3114)"><path
     d="m 112.762,12.348 3,-6 h -6 z"
     style="fill:#808080;fill-opacity:1;fill-rule:nonzero;stroke:#808080;stroke-width:1;stroke-linecap:butt;stroke-linejoin:miter;stroke-miterlimit:4;stroke-dasharray:none;stroke-opacity:1"
     id="path480"
     inkscape:connector-curvature="0" /></g><path
   d="m 131.809,309.753 h 1.468 l 1.86,-4.961 1.871,4.961 h 1.469 v -7.289 h -0.961 v 6.402 l -1.879,-5 h -0.992 l -1.879,5 v -6.402 h -0.957 z"
   style="fill:#000000;fill-opacity:1;fill-rule:nonzero;stroke:none"
   id="path482"
   inkscape:connector-curvature="0" /><path
   d="m 140.434,309.753 h 1.328 l 3.234,-6.098 v 6.098 h 0.957 v -7.289 h -1.328 l -3.23,6.097 v -6.097 h -0.961 z"
   style="fill:#000000;fill-opacity:1;fill-rule:nonzero;stroke:none"
   id="path484"
   inkscape:connector-curvature="0" /><path
   d="m 147.914,309.753 h 0.988 v -7.289 h -0.988 z"
   style="fill:#000000;fill-opacity:1;fill-rule:nonzero;stroke:none"
   id="path486"
   inkscape:connector-curvature="0" /><path
   d="m 155.234,309.515 v -0.961 c -0.371,0.179 -0.726,0.312 -1.058,0.398 -0.332,0.09 -0.653,0.133 -0.961,0.133 -0.539,0 -0.953,-0.106 -1.242,-0.313 -0.293,-0.207 -0.438,-0.504 -0.438,-0.89 0,-0.321 0.094,-0.567 0.289,-0.731 0.196,-0.164 0.563,-0.293 1.102,-0.394 l 0.594,-0.125 c 0.738,-0.141 1.281,-0.387 1.628,-0.739 0.352,-0.355 0.528,-0.824 0.528,-1.418 0,-0.707 -0.238,-1.242 -0.711,-1.609 -0.473,-0.363 -1.168,-0.547 -2.082,-0.547 -0.344,0 -0.711,0.039 -1.102,0.117 -0.39,0.079 -0.793,0.196 -1.207,0.348 v 1.016 c 0.399,-0.223 0.789,-0.391 1.176,-0.508 0.383,-0.113 0.762,-0.168 1.133,-0.168 0.562,0 0.996,0.109 1.301,0.328 0.308,0.223 0.461,0.539 0.461,0.949 0,0.36 -0.11,0.637 -0.329,0.84 -0.222,0.203 -0.582,0.356 -1.082,0.453 l -0.601,0.117 c -0.735,0.149 -1.27,0.375 -1.598,0.688 -0.328,0.312 -0.492,0.75 -0.492,1.305 0,0.648 0.227,1.156 0.68,1.523 0.457,0.371 1.082,0.559 1.879,0.559 0.343,0 0.691,-0.032 1.043,-0.094 0.355,-0.063 0.718,-0.152 1.089,-0.277 z"
   style="fill:#000000;fill-opacity:1;fill-rule:nonzero;stroke:none"
   id="path488"
   inkscape:connector-curvature="0" /><path
   d="m 156.203,309.753 h 6.164 v -0.832 h -2.586 v -6.457 h -0.992 v 6.457 h -2.586 z"
   style="fill:#000000;fill-opacity:1;fill-rule:nonzero;stroke:none"
   id="path490"
   inkscape:connector-curvature="0" /><g
   id="g492"
   transform="matrix(1,0,0,-1,0,315.3114)"><path
     d="m 182.344,9.348 h 20"
     style="fill:none;stroke:#d62728;stroke-width:1.5;stroke-linecap:square;stroke-linejoin:round;stroke-miterlimit:4;stroke-dasharray:none;stroke-opacity:1"
     id="path494"
     inkscape:connector-curvature="0" /></g><g
   id="g496"
   transform="matrix(1,0,0,-1,0,315.3114)"><path
     d="m 192.344,12.348 c 0.793,0 1.558,-0.317 2.121,-0.879 0.562,-0.563 0.879,-1.324 0.879,-2.121 0,-0.797 -0.317,-1.559 -0.879,-2.121 -0.563,-0.563 -1.328,-0.879 -2.121,-0.879 -0.797,0 -1.559,0.316 -2.121,0.879 -0.563,0.562 -0.879,1.324 -0.879,2.121 0,0.797 0.316,1.558 0.879,2.121 0.562,0.562 1.324,0.879 2.121,0.879 z"
     style="fill:#d62728;fill-opacity:1;fill-rule:nonzero;stroke:#d62728;stroke-width:1;stroke-linecap:butt;stroke-linejoin:round;stroke-miterlimit:4;stroke-dasharray:none;stroke-opacity:1"
     id="path498"
     inkscape:connector-curvature="0" /></g><path
   d="m 211.387,309.753 h 1.472 l 1.86,-4.961 1.867,4.961 h 1.473 v -7.289 h -0.965 v 6.402 l -1.879,-5 h -0.988 l -1.883,5 v -6.402 h -0.957 z"
   style="fill:#000000;fill-opacity:1;fill-rule:nonzero;stroke:none"
   id="path500"
   inkscape:connector-curvature="0" /><path
   d="m 220.016,309.753 h 1.328 l 3.23,-6.098 v 6.098 h 0.957 v -7.289 h -1.328 l -3.23,6.097 v -6.097 h -0.957 z"
   style="fill:#000000;fill-opacity:1;fill-rule:nonzero;stroke:none"
   id="path502"
   inkscape:connector-curvature="0" /><path
   d="m 227.496,309.753 h 0.984 v -7.289 h -0.984 z"
   style="fill:#000000;fill-opacity:1;fill-rule:nonzero;stroke:none"
   id="path504"
   inkscape:connector-curvature="0" /><path
   d="m 234.816,309.515 v -0.961 c -0.375,0.179 -0.726,0.312 -1.062,0.398 -0.332,0.09 -0.652,0.133 -0.961,0.133 -0.535,0 -0.949,-0.106 -1.242,-0.313 -0.293,-0.207 -0.438,-0.504 -0.438,-0.89 0,-0.321 0.098,-0.567 0.289,-0.731 0.196,-0.164 0.563,-0.293 1.102,-0.394 l 0.598,-0.125 c 0.734,-0.141 1.277,-0.387 1.628,-0.739 0.348,-0.355 0.524,-0.824 0.524,-1.418 0,-0.707 -0.238,-1.242 -0.711,-1.609 -0.473,-0.363 -1.168,-0.547 -2.082,-0.547 -0.344,0 -0.711,0.039 -1.102,0.117 -0.386,0.079 -0.789,0.196 -1.207,0.348 v 1.016 c 0.399,-0.223 0.793,-0.391 1.176,-0.508 0.387,-0.113 0.762,-0.168 1.133,-0.168 0.562,0 0.996,0.109 1.305,0.328 0.304,0.223 0.457,0.539 0.457,0.949 0,0.36 -0.11,0.637 -0.328,0.84 -0.219,0.203 -0.579,0.356 -1.083,0.453 l -0.601,0.117 c -0.734,0.149 -1.266,0.375 -1.598,0.688 -0.328,0.312 -0.492,0.75 -0.492,1.305 0,0.648 0.231,1.156 0.684,1.523 0.453,0.371 1.078,0.559 1.875,0.559 0.343,0 0.691,-0.032 1.047,-0.094 0.355,-0.063 0.718,-0.152 1.089,-0.277 z"
   style="fill:#000000;fill-opacity:1;fill-rule:nonzero;stroke:none"
   id="path506"
   inkscape:connector-curvature="0" /><path
   d="m 235.781,309.753 h 6.168 v -0.832 h -2.59 v -6.457 h -0.988 v 6.457 h -2.59 z"
   style="fill:#000000;fill-opacity:1;fill-rule:nonzero;stroke:none"
   id="path508"
   inkscape:connector-curvature="0" /><text
   transform="matrix(1,0,0,-1,246.67138,302.51997)"
   style="font-variant:normal;font-weight:normal;font-size:10px;font-family:'DejaVu Sans';-inkscape-font-specification:DejaVuSans;writing-mode:lr-tb;fill:#000000;fill-opacity:1;fill-rule:nonzero;stroke:none"
   id="text512"
   y="0"><tspan
     x="0 2.77 9.1000004 15.01 21.16 25.27 29.190001 35.34"
     y="0"
     sodipodi:role="line"
     id="tspan510">inverted</tspan></text>

</g></g></svg>
