<?xml version="1.0" encoding="UTF-8" standalone="no"?>
<!-- Created with Inkscape (http://www.inkscape.org/) -->

<svg
   version="1.1"
   id="svg2"
   width="189.80319"
   height="211.84003"
   viewBox="0 0 189.80319 211.84003"
   sodipodi:docname="Picture1.svg"
   inkscape:version="1.2 (1:1.2+202206011327+fc4e4096c5)"
   xmlns:inkscape="http://www.inkscape.org/namespaces/inkscape"
   xmlns:sodipodi="http://sodipodi.sourceforge.net/DTD/sodipodi-0.dtd"
   xmlns="http://www.w3.org/2000/svg"
   xmlns:svg="http://www.w3.org/2000/svg">
  <defs
     id="defs6" />
  <sodipodi:namedview
     id="namedview4"
     pagecolor="#ffffff"
     bordercolor="#999999"
     borderopacity="1"
     inkscape:showpageshadow="0"
     inkscape:pageopacity="0"
     inkscape:pagecheckerboard="0"
     inkscape:deskcolor="#d1d1d1"
     showgrid="false"
     inkscape:zoom="2.5324425"
     inkscape:cx="66.339117"
     inkscape:cy="90.229097"
     inkscape:window-width="1887"
     inkscape:window-height="1044"
     inkscape:window-x="33"
     inkscape:window-y="0"
     inkscape:window-maximized="1"
     inkscape:current-layer="g8" />
  <g
     inkscape:groupmode="layer"
     inkscape:label="Image"
     id="g8"
     transform="translate(-22.401359,-18.853026)">
    <path
       style="fill:#545557;fill-opacity:1;stroke-width:0.64"
       d="m 78.648669,229.76393 -3.21209,-0.78756 -1.58791,-0.84117 -1.5879,-0.84118 -2.56,-2.05486 -2.56,-2.05486 -0.72898,-0.24564 -0.72897,-0.24564 -2.18246,-2.62668 -2.18247,-2.62667 -2.20856,-1.90003 -2.20856,-1.90003 -3.88047,-2.32703 -3.88047,-2.32702 -3.13269,-3.38627 -3.13269,-3.38627 -2.10684,-3.48235 -2.10684,-3.48235 v -5.56169 -5.56169 l -2.4,-1.77067 -2.4,-1.77066 -2.8006,-2.92568 -2.80059,-2.92568 -1.3957,-2.25961 -1.3957,-2.25962 -0.76371,-3.40883 -0.7637,-3.40882 0.0225,-3.31118 0.0225,-3.31117 0.83299,-3.84 0.83299,-3.84 1.42081,-2.76564 1.42082,-2.76564 -1.36363,-2.31117 -1.36362,-2.31118 -1.66939,-5.16318 -1.66938,-5.16319 -0.013,-4.8 -0.013,-4.8 1.50843,-4.48 1.50842,-4.48 0.97655,-1.59999 0.97654,-1.6 1.76541,-1.92 1.7654,-1.92 -0.97318,-4.480005 -0.97318,-4.48 0.31306,-4.506387 0.31306,-4.506394 1.65891,-4.082617 1.65892,-4.082618 1.12054,-1.268826 1.12054,-1.268825 3.72697,-2.764909 3.72696,-2.764915 3.78723,-1.380889 3.78722,-1.38089 -0.45721,-2.636365 -0.45722,-2.636365 0.001,-4.48 10e-4,-4.48 1.50247,-4.727866 1.50246,-4.727866 2.95953,-2.852633 2.9596,-2.852633 3.66174,-1.859501 3.66176,-1.859501 h 1.83906 1.83905 l 1.05919,-1.170394 1.0592,-1.170394 v -0.71886 -0.71886 l 3.04,-2.076535 3.04,-2.076535 0.64,-0.750356 0.64,-0.750357 3.2,-1.623528 3.2,-1.623529 3.78674,-0.700326 3.786735,-0.700325 3.253262,7.68e-4 3.25326,7.68e-4 4.596514,0.876606 4.5965,0.876606 4.33819,2.384567 4.33819,2.384567 4.42906,-2.392239 4.42907,-2.39224 4.55624,-0.868934 4.55624,-0.868933 3.84,0.04034 3.84,0.04034 3.52,0.782477 3.52,0.782478 3.30015,1.716885 3.30015,1.716885 0.21985,0.563891 0.21985,0.563892 2.75057,1.722983 2.75058,1.722984 0.3867,1.092671 0.38671,1.092672 0.96191,1.12 0.96192,1.12 h 1.86043 1.86044 l 3.32038,1.610627 3.32036,1.610628 3.04499,2.709372 3.04499,2.709373 1.70554,4.48 1.70554,4.48 0.0182,6.08 0.0182,6.08 -0.44843,1.710447 -0.44844,1.710447 2.39976,0.776925 2.39976,0.776926 3.02903,1.51785 3.02903,1.517849 3.72597,3.674778 3.72596,3.674778 1.40703,4.8 1.40703,4.8 -0.012,3.84 -0.012,3.84 -0.87178,3.704966 -0.87179,3.704964 2.42507,2.93467 2.42506,2.93466 1.30518,3.60036 1.30518,3.60037 0.72334,3.2 0.72334,3.2 -0.41596,3.84 -0.41597,3.84 -1.60391,4.8 -1.60391,4.8 -1.21054,1.96094 -1.21054,1.96094 1.30823,2.64416 1.30823,2.64417 0.88758,3.71489 0.88759,3.7149 0.0228,3.63118 0.0228,3.63117 -0.7637,3.40883 -0.76371,3.40882 -1.57928,2.56 -1.57928,2.56 -2.61702,2.60822 -2.61701,2.60822 -2.4,1.78774 -2.4,1.78775 v 5.56169 5.56169 l -2.10212,3.48234 -2.10211,3.48235 -3.32307,3.56283 -3.32306,3.56283 -4.14032,2.42135 -4.14032,2.42135 -3.3418,3.40712 -3.34181,3.40712 -0.56449,1.00871 -0.5645,1.00869 h -0.66049 -0.66049 l -2.66771,2.1554 -2.66771,2.1554 -1.55631,0.80936 -1.55631,0.80937 -3.56369,0.85244 -3.56369,0.85244 -3.52,3.1e-4 -3.52,3.2e-4 -3.86126,-0.82923 -3.86126,-0.82924 -2.92472,-1.71399 -2.92471,-1.71401 -1.15322,-1.27428 -1.15321,-1.27429 h -0.62835 -0.62835 l -4.76897,-4.8 -4.76896,-4.8 h -0.81065 -0.81067 l -3.42597,3.68 -3.42598,3.68 -2.90686,2.10872 -2.90686,2.10872 -3.2,2.08353 -3.200004,2.08353 -3.878525,0.76775 -3.878522,0.76775 -3.80148,-0.0708 -3.80147,-0.0708 -3.2121,-0.78755 z m 18.270037,-5.57274 4.817944,-2.32893 2.80927,-2.46462 2.80928,-2.46462 1.65279,-1.70773 1.65278,-1.70774 1.3774,-1.81226 1.3774,-1.81227 h 3.53104 3.53104 l 1.65156,1.55156 1.65156,1.55156 v 0.84951 0.8495 l 3.13727,2.2539 3.13727,2.25391 0.33164,0.86424 0.33164,0.86424 5.62581,2.80079 5.6258,2.80079 h 5.78529 5.78528 l 4.48,-2.2127 4.48,-2.2127 0.695,-0.6673 0.695,-0.6673 2.505,-2.26896 2.505,-2.26897 1.76,-2.56543 1.76,-2.56544 v -8.4456 -8.4456 h -8.66008 -8.66009 l -0.39065,1.12 -0.39066,1.12 -2.5977,2.7151 -2.5977,2.71509 -2.1733,0.40771 -2.17329,0.40771 -2.43891,-0.73071 -2.43891,-0.73071 -1.91435,-2.18034 -1.91436,-2.18033 -0.43024,-2.54653 -0.43023,-2.54653 0.77971,-2.60242 0.7797,-2.60241 1.34553,-1.21416 1.34553,-1.21416 2.1755,-0.72866 2.17551,-0.72865 1.66449,0.0141 1.6645,0.0141 2.63393,1.19612 2.63394,1.19612 1.20606,2.61332 1.20607,2.61331 10.72,0.0165 10.72,0.0165 v 9.61644 9.61643 l 1.76038,-0.91033 1.76039,-0.91034 2.55961,-2.276 2.55962,-2.276 2.07504,-2.11009 2.07504,-2.11011 0.005,-0.66468 0.005,-0.66468 1.25319,-2.45806 1.2532,-2.45806 0.39648,-2.64393 0.39648,-2.64393 -0.92936,-2.6975 -0.92936,-2.6975 2.05508,-1.21252 2.05507,-1.21253 1.47597,-1.20331 1.47596,-1.2033 2.14321,-1.82153 2.14322,-1.82153 0.94237,-1.69847 0.94238,-1.69847 1.14305,-2.24 1.14306,-2.24 -0.0179,-5.76 -0.0179,-5.76 -1.90218,-4.3129 -1.90217,-4.3129 -4.96,-0.007 -4.96026,-0.007 v 10.24 10.24 l -7.2,0.007 -7.2,0.007 -1.06122,2.52715 -1.06123,2.52716 -2.13877,1.30394 -2.13878,1.30394 -3.25694,0.003 -3.25694,0.003 -2.31334,-1.76 -2.31333,-1.76 -0.98973,-2.41295 -0.98972,-2.41332 v -1.2541 -1.2541 l 1.00298,-2.41295 1.00298,-2.41295 1.93476,-1.53649 1.93476,-1.5365 2.448,-0.44765 2.44801,-0.44765 2.33662,0.80329 2.33662,0.8033 1.22938,1.11257 1.22937,1.11256 0.77683,2.14829 0.77683,2.14828 h 5.31143 5.31143 v -10.24 -10.24 l 6.88,-0.0209 6.88,-0.0209 1.17609,-2.37916 1.1761,-2.37915 1.5366,-3.78273 1.53661,-3.78273 0.4009,-3.91298 0.40089,-3.91299 -1.12727,-4.01758 -1.12727,-4.01758 -1.82633,-2.52117 -1.82632,-2.52115 v -0.43515 -0.43515 l -1.05919,-1.17039 -1.0592,-1.17039 h -5.3408 -5.34081 v 3.76235 3.76235 l 1.99462,0.8262 1.99462,0.82619 1.84538,2.54747 1.84538,2.54748 v 2.80947 2.80947 l -1.23322,2.41732 -1.23322,2.41732 -1.10496,0.91718 -1.10495,0.91719 h -4.64851 -4.64851 l -1.71412,-1.6 -1.71413,-1.6 -0.89919,-1.72822 -0.89919,-1.72822 v -2.92608 -2.92609 l 2.61903,-2.8413 2.61902,-2.84131 1.22098,-0.38752 1.22097,-0.38752 v -5.71686 -5.71688 h 6.96753 6.96754 l 0.79602,-4.218777 0.79603,-4.218784 -0.33495,-3.693805 -0.33493,-3.693805 -1.25337,-2.807411 -1.25336,-2.807418 -2.8352,-3.068595 -2.8352,-3.068595 -4.46005,-1.643693 -4.46006,-1.643693 -8.16,-0.323744 -8.16,-0.32375 0.0141,2.796038 0.0141,2.796032 2.80612,1.883168 2.80614,1.883162 1.0198,2.138547 1.0198,2.138547 v 1.961568 1.961562 l -0.97372,2.016723 -0.97372,2.016723 -2.56273,1.813331 -2.56274,1.813338 h -2.96018 -2.96018 l -2.5991,-1.826714 -2.59909,-1.826707 -0.83996,-2.866624 -0.83997,-2.866624 0.72426,-3.059725 0.72426,-3.059731 2.01144,-1.485625 2.01143,-1.485632 1.12,-0.394554 1.12,-0.39456 -0.001,-4.98009 -0.001,-4.980083 8.56325,0.193644 8.56326,0.193645 0.3493,-1.473645 0.34931,-1.473644 0.43201,-4.216627 0.432,-4.216627 -1.00231,-3.912422 -1.00232,-3.912422 -2.35767,-3.281694 -2.35765,-3.281694 -3.50277,-1.549212 -3.50341,-1.551277 h -0.24037 -0.24036 v 8 8 h -7.65005 -7.65005 l -1.23202,2.785183 -1.23202,2.785183 -2.83999,1.374817 -2.84,1.374817 h -1.67627 -1.67627 l -1.60064,-0.608562 -1.60064,-0.608561 -1.62777,-1.415326 -1.62776,-1.415324 -1.06825,-2.797177 -1.06825,-2.797177 0.74094,-2.378937 0.74096,-2.378936 1.92181,-2.098796 1.92182,-2.098795 1.63388,-0.621205 1.6339,-0.621204 h 1.67627 1.67627 l 2.85272,1.380975 2.85271,1.380975 1.02935,2.452516 1.02935,2.452515 5.6,0.0065 5.6,0.0065 V 42.55386 35.534714 l -4.16976,-3.987348 -4.16976,-3.987348 -3.03024,-1.468213 -3.03024,-1.468215 -3.13594,-1.048593 -3.13594,-1.048593 -5.50406,0.336748 -5.50406,0.336748 -4.8,2.066368 -4.8,2.066368 -1.26241,0.880185 -1.2624,0.880185 h -1.9696 -1.96959 l -0.608,-0.600311 -0.608,-0.600329 -5.44,-2.398891 -5.44,-2.398891 -6.720004,-0.04078 -6.72,-0.04078 -4.479997,2.027139 -4.48,2.027138 -2.7882,2.452862 -2.78819,2.452861 -1.53181,1.527273 -1.5318,1.527272 v 7.272728 7.272727 h 5.74781 5.7478 l 0.39984,-1.593098 0.39984,-1.593097 2.12482,-1.86561 2.12481,-1.865609 2.017567,-0.443133 2.017574,-0.443134 2.029965,0.381709 2.029971,0.381708 2.36451,2.105132 2.364514,2.105131 0.67549,1.776665 0.67549,1.776663 v 1.676273 1.676273 l -1.30399,2.693694 -1.304,2.693694 -1.096004,0.398598 -1.09601,0.398597 -1.6,0.976271 -1.6,0.976271 -2.583878,-0.25254 -2.583879,-0.252541 -2.61704,-1.652062 -2.61703,-1.652062 -0.42809,-2.281897 -0.42809,-2.281896 h -7.65099 -7.651 v -8 -8 h -0.88037 -0.88036 l -3.61187,1.597343 -3.61188,1.597342 -2.53313,3.91924 -2.53313,3.91924 -0.48203,2.323417 -0.48204,2.323418 0.003,3.52 0.003,3.52 0.50407,3.04 0.50408,3.04 h 8.92078 8.92079 l 0.002,4.64 0.002,4.64 2.382,1.28 2.382,1.28 1.44574,2.56 1.44575,2.56 0.0106,2.105498 0.0105,2.105497 -1.28823,2.525139 -1.28824,2.525146 -1.51324,0.991514 -1.51324,0.991513 -1.95417,0.560455 -1.95422,0.560448 -2.20856,-0.498112 -2.20856,-0.498112 -2.32283,-2.113728 -2.32283,-2.113735 -0.73427,-2.450758 -0.73468,-2.450765 0.73427,-2.450765 0.73426,-2.450758 2.14807,-1.954701 2.14807,-1.954694 1.37897,-0.437671 1.37897,-0.43767 v -2.448397 -2.448397 l -0.97769,-0.375174 -0.97767,-0.375168 -7.50232,0.192608 -7.50232,0.192608 -4.48,1.491622 -4.48,1.491616 -3.12278,3.20825 -3.12278,3.208249 -1.26584,2.861639 -1.26584,2.861632 -0.33494,3.693805 -0.33494,3.693804 0.79603,4.218784 0.79602,4.218774 h 7.28754 7.28753 v 5.61446 5.61446 l 2.24154,1.20715 2.24154,1.20716 1.54938,2.03133 1.54937,2.03133 0.43636,2.32601 0.43636,2.32601 -1.43464,2.96359 -1.43464,2.96358 -1.99264,1.25806 -1.99263,1.25806 -4.38463,-0.27977 -4.38462,-0.27977 -1.50404,-1.52083 -1.50403,-1.52083 -0.76793,-2.90483 -0.76792,-2.90482 0.44205,-2.35633 0.44205,-2.35634 1.56158,-1.85583 1.56157,-1.85583 1.93296,-0.80065 1.93296,-0.80066 v -3.76235 -3.76236 h -5.54961 -5.5496 l -1.1704,1.05919 -1.17039,1.0592 v 0.64039 0.6404 l -1.52814,2.00349 -1.52813,2.00349 -1.15105,3.17692 -1.15105,3.17692 -6.1e-4,4.48 -6.2e-4,4.48 0.81678,2.56 0.81679,2.56 2.02301,4.3038 2.02302,4.30381 7.52,0.0162 7.52,0.0162 v 10.24 10.24 h 5.06915 5.06914 l 0.42335,-1.92747 0.42334,-1.92746 2.25008,-1.71623 2.25008,-1.71621 3.61743,-0.25857 3.61743,-0.25856 2.56,2.02028 2.56,2.02026 0.77113,1.72198 0.77113,1.72198 v 2.24 2.24 l -0.77113,1.72198 -0.77113,1.72198 -2.56,2.02026 -2.56,2.02028 -3.61743,-0.25856 -3.61743,-0.25857 -2.25008,-1.71621 -2.25008,-1.71623 -0.42334,-1.92747 -0.42335,-1.92747 h -6.98914 -6.98915 v -10.24 -10.24 h -5.76 -5.76 v 0.62103 0.62104 l -1.75308,3.69896 -1.75308,3.69897 0.008,5.76 0.008,5.76 1.12774,2.24 1.12774,2.24 0.94238,1.69847 0.94237,1.69847 2.39457,1.97053 2.39457,1.97053 0.98334,0.83434 0.98335,0.83435 2.37258,1.46633 2.37259,1.46635 -0.69993,1.30782 -0.69993,1.30783 v 3.72545 3.72545 l 1.72745,3.71704 1.72745,3.71704 3.39472,3.28671 3.39472,3.28672 2.94183,2.02403 2.94182,2.02403 v -9.95074 -9.95075 l 10.72,-0.002 10.72,-0.002 1.28,-2.34642 1.28,-2.34642 1.65541,-1.21872 1.65541,-1.21872 2.53704,-0.34029 2.537045,-0.3403 2.847552,0.94946 2.84755,0.94946 1.40222,2.7977 1.40223,2.79771 0.0378,2.38029 0.0378,2.38029 -1.32663,2.54519 -1.32663,2.54518 -2.715437,1.31452 -2.715437,1.31453 h -1.41849 -1.418493 l -2.10731,-0.8805 -2.10732,-0.88048 -2.03212,-2.46533 -2.03214,-2.46534 v -0.81417 -0.81418 h -8.64 -8.64 v 9.30251 9.30252 l 1.12,1.72773 1.12,1.72774 2.2152,1.92974 2.21521,1.92976 0.99775,0.97295 0.99774,0.97295 3.70437,1.81238 3.70437,1.81238 1.72268,0.55086 1.72268,0.55087 4.8,-0.14265 4.800001,-0.14265 4.817946,-2.32892 z m -3.21794,-65.17817 v -6.4 h -2.24 -2.24 v -2.24 -2.24 h -6.399997 -6.4 v -1.92 -1.92 h 6.4 6.399997 v -5.12 -5.12 h -6.399997 -6.4 v -1.92 -1.92 h 6.4 6.399997 l 0.0013,-5.28 0.0013,-5.28 -6.401397,0.2025 -6.40139,0.20251 -6.3e-4,-2.12251 -6.2e-4,-2.1225 6.40062,0.21997 6.400627,0.21997 v -5.49997 -5.49996 h -6.399997 -6.4 v -1.96251 -1.96251 l 6.40139,0.20251 6.401397,0.20251 -0.0013,-2.400005 -0.0013,-2.4 h 2.24 2.24 v -6.4 -6.4 h 1.92 1.92 v 6.4 6.4 h 5.440004 5.44 v -6.4 -6.4 h 1.9625 1.96251 l -0.20251,6.401395 -0.2025,6.401395 5.28,-0.0013 5.28,-0.0013 v -6.4 -6.4 h 1.92 1.92 v 6.4 6.4 h 5.12 5.12 v -6.4 -6.4 h 1.92 1.92 v 6.4 6.4 h 2.24 2.24 l -0.001,2.4 -10e-4,2.400005 6.4014,-0.20251 6.40139,-0.20251 v 1.96251 1.96251 h -6.4 -6.4 v 5.48249 5.48251 l 6.4014,-0.20251 6.40139,-0.2025 -0.001,2.1225 -0.001,2.12251 -6.40139,-0.20251 -6.4014,-0.2025 0.001,5.28 10e-4,5.28 h 6.4 6.4 v 1.92 1.92 h -6.4 -6.4 v 5.12 5.12 h 6.4 6.4 v 1.92 1.92 h -6.4 -6.4 v 2.24 2.24 h -2.24 -2.24 v 6.4 6.4 h -1.92 -1.92 v -6.4 -6.4 h -5.12 -5.12 v 6.4 6.4 h -1.92 -1.92 v -6.4 -6.4 l -5.28,-0.001 -5.28,-0.001 0.2025,6.4014 0.20251,6.40139 h -1.96251 -1.9625 v -6.4 -6.4 h -5.44 -5.440004 v 6.4 6.4 h -1.92 -1.92 v -6.4 z m 47.360004,-34.24 v -23.99999 h -24 -24.000004 v 23.99999 24 h 24.000004 24 z m -48.475786,72.34385 2.240537,-0.93616 0.397619,-1.03619 0.397626,-1.03618 v -1.91689 -1.91689 l -1.870771,-1.87077 -1.870765,-1.87077 h -1.920128 -1.920123 l -1.96911,1.65689 -1.9691,1.6569 v 2.38078 2.38078 l 0.8,1.00276 0.8,1.00275 1.28,0.70011 1.28,0.70011 1.04184,0.0194 1.041837,0.0195 2.240538,-0.93616 z m 55.494276,-0.0127 1.83492,-0.94888 0.42415,-1.93112 0.42414,-1.93112 -0.43019,-1.95865 -0.43019,-1.95866 -2.11313,-1.00768 -2.11312,-1.00767 -1.72208,0.43221 -1.72208,0.43222 -1.54546,1.66757 -1.54545,1.66757 v 1.54861 1.54862 l 0.65609,1.22592 0.65609,1.22592 1.74391,0.94639 1.74391,0.94638 1.15178,0.0256 1.15178,0.0256 1.83493,-0.94888 z m -77.677691,-28.55834 1.2192,-1.3472 v -3.06561 -3.06561 l -1.2192,-1.3472 -1.21919,-1.34719 h -2.18288 -2.18288 l -1.29211,0.69151 -1.29211,0.69152 -0.9144,2.18848 -0.91441,2.18849 0.90862,2.17464 0.90862,2.17464 1.17997,0.6859 1.17997,0.6859 2.3008,0.0195 2.30081,0.0195 1.21919,-1.3472 z m 101.589091,0.0395 1.66251,-1.30773 0.40238,-2.14487 0.40238,-2.14489 -0.73942,-1.38163 -0.73943,-1.38164 -1.94429,-1.18239 -1.9443,-1.1824 -1.94304,0.55726 -1.94305,0.55726 -1.19182,1.07857 -1.19181,1.07858 v 3.05436 3.05435 l 1.68631,1.32645 1.68631,1.32646 h 2.06738 2.06738 z m -122.179221,-40.68192 1.01536,-0.38963 1.04731,-2.20706 1.04732,-2.20705 -0.82933,-2.51289 -0.82933,-2.51288 -2.09097,-0.39227 -2.09097,-0.39227 -1.96924,0.43252 -1.96923,0.43251 -0.9608,1.37173 -0.96079,1.37173 v 2.0407 2.0407 l 1.9691,1.6569 1.96911,1.65689 h 1.81855 1.81855 z m 142.042061,-1.29764 1.68727,-1.68728 -0.0203,-2.31272 -0.0204,-2.31273 -0.9672,-1.28 -0.96719,-1.28 h -3.8358 -3.83579 l -0.60686,0.96 -0.60685,0.96 -0.01,3.04 -0.01,3.04 1.28,1.28 1.28,1.28 h 2.47273 2.47272 z M 74.020769,89.192871 l 1.76,-1.880038 v -1.959136 -1.959136 l -1.87077,-1.870765 -1.87077,-1.870771 h -2.14683 -2.14683 l -1.34823,0.944346 -1.34825,0.944345 -0.38747,2.095655 -0.38748,2.095654 0.50585,1.92 0.50584,1.92 2.20077,1.11447 2.20077,1.114477 1.2867,-0.364531 1.2867,-0.364531 z m 92.563941,1.910765 2.03495,-0.709382 0.94055,-1.818835 0.94056,-1.818829 V 85.413025 84.06946 l -0.93633,-1.810662 -0.93633,-1.810663 -1.03601,-0.397555 -1.03601,-0.397555 h -1.72526 -1.72525 l -1.33421,0.934509 -1.3342,0.934515 -0.80584,1.945485 -0.80585,1.945491 0.82664,1.995693 0.82665,1.995693 1.971,1.201913 1.971,1.201914 0.0645,0.0026 0.0645,0.0026 2.03495,-0.709389 z m -71.017723,-34.1428 1.802659,-0.93219 0.41278,-2.06391 0.41278,-2.06391 -0.4017,-2.141244 -0.4017,-2.141242 -1.16344,-0.622658 -1.163453,-0.622657 h -2.490509 -2.490515 l -1.51956,1.617498 -1.51956,1.617499 v 2.303592 2.303592 l 2.0581,1.83891 2.058089,1.838909 h 1.30169 1.301683 z m 49.275423,0.0024 1.79807,-0.929819 0.80265,-1.937758 0.80264,-1.937758 -0.40878,-1.628703 -0.40878,-1.628702 -1.26372,-1.263721 -1.26372,-1.26375 h -2.67875 -2.67875 l -1.48125,1.391561 -1.48125,1.391561 v 2.711547 2.711547 l 1.96911,1.656892 1.9691,1.656892 h 1.26268 1.26267 l 1.79808,-0.929819 z"
       id="path317" />
  </g>
</svg>
