<?xml version="1.0" encoding="UTF-8" standalone="no"?>
<!-- Created with Inkscape (http://www.inkscape.org/) -->

<svg
   version="1.1"
   id="svg2"
   width="230.40001"
   height="229.78247"
   viewBox="0 0 230.40001 229.78247"
   sodipodi:docname="Picture2.svg"
   inkscape:version="1.2 (1:1.2+202206011327+fc4e4096c5)"
   xmlns:inkscape="http://www.inkscape.org/namespaces/inkscape"
   xmlns:sodipodi="http://sodipodi.sourceforge.net/DTD/sodipodi-0.dtd"
   xmlns="http://www.w3.org/2000/svg"
   xmlns:svg="http://www.w3.org/2000/svg">
  <defs
     id="defs6" />
  <sodipodi:namedview
     id="namedview4"
     pagecolor="#ffffff"
     bordercolor="#999999"
     borderopacity="1"
     inkscape:showpageshadow="0"
     inkscape:pageopacity="0"
     inkscape:pagecheckerboard="0"
     inkscape:deskcolor="#d1d1d1"
     showgrid="false"
     inkscape:zoom="2.1011532"
     inkscape:cx="81.85981"
     inkscape:cy="120.17211"
     inkscape:window-width="1887"
     inkscape:window-height="1044"
     inkscape:window-x="33"
     inkscape:window-y="0"
     inkscape:window-maximized="1"
     inkscape:current-layer="g8" />
  <g
     inkscape:groupmode="layer"
     inkscape:label="Image"
     id="g8"
     transform="translate(-29.120002,-20.655705)">
    <path
       style="fill:#404042;fill-opacity:0.996078;stroke-width:0.64"
       d="m 72.381483,248.9376 c -0.75481,-1.07764 -1.021479,-2.9887 -1.021479,-7.32029 v -5.86192 l -8.16,-0.27496 c -9.259712,-0.31201 -12.017032,-1.26904 -15.367582,-5.33382 -2.67035,-3.23961 -3.35242,-6.14837 -3.35242,-14.29682 v -7.12575 h -6.67428 c -7.21664,0 -8.68572,-0.58632 -8.68572,-3.46652 0,-2.8601 1.76683,-3.57348 8.8504,-3.57348 h 6.5096 v -13.76 -13.76 h -6.67428 c -7.21664,0 -8.68572,-0.58632 -8.68572,-3.46652 0,-2.8601 1.76683,-3.57348 8.8504,-3.57348 h 6.5096 v -13.76 -13.76 h -6.67428 c -7.21664,0 -8.68572,-0.58632 -8.68572,-3.46652 0,-2.8601 1.76683,-3.57348 8.8504,-3.57348 h 6.5096 v -13.76 -13.76 h -6.67428 c -7.21664,0 -8.68572,-0.58632 -8.68572,-3.46652 0,-2.860097 1.76683,-3.573477 8.8504,-3.573477 h 6.5096 v -13.76 -13.76 h -6.67428 c -7.21664,0 -8.68572,-0.58632 -8.68572,-3.46652 0,-2.8601 1.76683,-3.57348 8.8504,-3.57348 h 6.5096 l 0.0281,-7.84 c 0.0398,-11.11134 1.67831,-14.838027 7.93757,-18.053668 2.884961,-1.482123 3.863886,-1.626331 11.040002,-1.626331 h 7.87434 v -6.109091 c 0,-5.632862 0.122458,-6.23155 1.570912,-7.68 1.891162,-1.891164 2.327533,-1.926706 4.278189,-0.348458 1.384212,1.119948 1.521312,1.750509 1.635085,7.52 l 0.124179,6.297549 13.475822,0.172728 13.475809,0.172728 v -5.814803 c 0,-6.141219 0.49141,-7.823575 2.61759,-8.961472 1.00904,-0.540026 1.65924,-0.470176 2.84295,0.305417 1.4313,0.937828 1.54698,1.447503 1.71708,7.565486 l 0.18238,6.559916 13.6,0.172728 13.6,0.172728 v -6.366276 c 0,-6.070675 0.0762,-6.426207 1.64085,-7.656968 1.59144,-1.251822 2.89283,-1.224798 4.59916,0.0955 0.54883,0.424675 0.8,2.704149 0.8,7.26065 v 6.641638 h 13.7376 13.73761 l 0.18239,-6.492834 c 0.1744,-6.20845 0.25787,-6.549107 1.90575,-7.77761 1.63294,-1.217361 1.80924,-1.228507 3.36,-0.212412 1.58314,1.037309 1.63664,1.291554 1.63664,7.77761 v 6.705246 h 13.76 13.76 v -6.277677 c 0,-6.976895 0.64393,-8.602323 3.40794,-8.602323 3.19712,0 3.63206,0.986541 3.63206,8.238365 v 6.641635 h 7.44574 c 8.46268,0 11.35332,0.662363 14.6116,3.348115 3.91879,3.230199 4.45855,4.898085 4.81926,14.891885 l 0.3234,8.959999 6.78538,0.32 c 7.23004,0.34097 8.89462,0.99582 8.89462,3.49917 0,2.75812 -1.76026,3.47856 -8.98399,3.67694 l -6.69601,0.18389 v 13.44 13.44 l 6.93375,0.32 c 5.90336,0.27245 7.06844,0.50462 7.84,1.56232 1.2205,1.673117 1.14076,3.147057 -0.23774,4.394597 -0.86752,0.78508 -2.7623,1.07974 -7.84,1.21919 l -6.69601,0.18389 v 13.44 13.44 l 6.93375,0.32 c 5.90336,0.27245 7.06844,0.50462 7.84,1.56232 1.2205,1.67312 1.14076,3.14706 -0.23774,4.3946 -0.86752,0.78508 -2.7623,1.07974 -7.84,1.21919 l -6.69601,0.18389 v 13.44 13.44 l 6.93375,0.32 c 5.90336,0.27245 7.06844,0.50462 7.84,1.56232 1.2205,1.67312 1.14076,3.14706 -0.23774,4.3946 -0.86752,0.78508 -2.7623,1.07974 -7.84,1.21919 l -6.69601,0.18389 v 13.44 13.44 l 6.78538,0.32 c 7.23004,0.34097 8.89462,0.99582 8.89462,3.49917 0,2.75812 -1.76026,3.47856 -8.98399,3.67694 l -6.69601,0.18389 -0.08,7.85244 c -0.0709,6.9684 -0.25502,8.19264 -1.63498,10.87415 -1.84759,3.59024 -5.67844,6.48584 -9.57715,7.23905 -1.53336,0.29624 -5.73992,0.55116 -9.34792,0.56649 l -6.56,0.0279 v 6.35428 c 0,6.91012 -0.61411,8.36572 -3.52942,8.36572 -2.63614,0 -3.51058,-2.18759 -3.51058,-8.78241 v -5.93762 h -13.76 -13.76 v 6.35428 c 0,6.91012 -0.61411,8.36572 -3.52942,8.36572 -2.63614,0 -3.51058,-2.18759 -3.51058,-8.78241 v -5.93759 h -13.76 -13.76 v 6.69748 c 0,5.9666 -0.1351,6.76978 -1.23793,7.36 -4.1011,2.19484 -5.80208,-0.18565 -5.80208,-8.11989 v -5.93759 h -13.76 -13.76 v 6.69748 c 0,5.9666 -0.13509,6.76978 -1.23792,7.36 -4.09655,2.19241 -5.80208,-0.18719 -5.80208,-8.09517 v -5.91289 l -13.440559,-0.18471 -13.440622,-0.18471 -0.0088,5.76 c -0.01056,6.90735 -0.790758,8.879 -3.623059,9.15596 -1.497856,0.14648 -2.261888,-0.17232 -3.025408,-1.2624 z m 162.227757,-22.88433 1.87077,-1.87077 v -88.01911 c 0,-64.457347 -0.19506,-88.447226 -0.72868,-89.618389 -1.71737,-3.769219 3.10464,-3.580957 -91.71983,-3.580957 -95.395768,0 -89.436765,-0.249438 -91.547408,3.832084 -0.86524,1.673189 -0.95841,11.973935 -0.81083,89.641722 l 0.16674,87.75131 2.0901,1.86744 2.090096,1.86744 h 88.359132 88.35914 z m -95.1836,-22.04958 c -5.07571,-1.65568 -10.08912,-6.23289 -14.58751,-13.31828 -1.47094,-2.31688 -1.07951,-5.09267 0.85332,-6.05115 2.09915,-1.04096 4.00295,-0.069 5.549,2.83292 0.68176,1.27964 2.74493,3.83705 4.58483,5.68311 6.05548,6.07576 11.13972,5.89489 17.24905,-0.61361 2.73867,-2.9176 8.52568,-12.67917 8.52568,-14.38116 0,-0.3372 -2.808,-1.56532 -6.24,-2.72917 -3.432,-1.16385 -7.35467,-2.61336 -8.71705,-3.22113 -2.452,-1.09387 -2.52319,-1.08595 -7.04,0.7827 -10.58854,4.38059 -24.5567,7.57814 -33.04296,7.56409 -4.80455,-0.008 -11.14962,-1.36538 -14.580142,-3.11918 -10.087898,-5.15727 -11.956122,-16.30285 -5.025287,-29.98019 1.862848,-3.67616 3.584423,-4.95327 5.895297,-4.37327 2.663155,0.66841 2.634233,3.04886 -0.107981,8.88847 -4.74818,10.11136 -3.650042,16.20718 3.521433,19.54762 3.174983,1.47889 4.36735,1.66523 10.61668,1.65917 8.40513,-0.008 10.86285,-0.50627 10.24987,-2.07739 -0.49937,-1.27995 -2.57678,-11.3284 -3.20305,-15.4932 -0.39563,-2.63096 -0.84756,-3.21206 -5.22631,-6.72 -10.144473,-8.12703 -20.007935,-20.2891 -23.70174,-29.22527 -1.172999,-2.83776 -1.76642,-5.6366 -1.977159,-9.32522 -0.272422,-4.76822 -0.136064,-5.60785 1.43088,-8.81057 2.022746,-4.134347 5.85753,-7.361377 10.791181,-9.080957 2.512404,-0.87567 5.255648,-1.15612 11.316328,-1.15692 4.4,-5.9e-4 9.13052,0.14007 10.51225,0.31257 l 2.51225,0.31361 1.71251,-4.17849 c 3.65241,-8.91187 9.39007,-16.07251 15.43937,-19.26845 3.86727,-2.04313 11.22706,-2.08294 15.00816,-0.0812 5.28252,2.79665 13.05547,12.16251 13.05547,15.73093 0,3.97142 -4.91545,4.67207 -6.92295,0.9868 -3.52951,-6.47929 -9.35883,-11.41687 -13.47878,-11.41687 -4.97975,0 -10.61836,5.15279 -14.8667,13.58579 -1.37037,2.72019 -2.49158,5.33159 -2.49158,5.80313 0,0.48439 1.6008,1.355 3.68,2.0014 2.024,0.62924 5.88802,2.00905 8.58669,3.06625 l 4.9067,1.922177 6.6133,-2.569927 c 3.63733,-1.41346 9.78132,-3.37832 13.65332,-4.36634 6.02744,-1.53804 8.3287,-1.79973 16,-1.81945 10.7267,-0.0276 14.77122,1.01231 19.24142,4.94713 6.99789,6.159787 7.81588,14.416607 2.55604,25.800837 -2.51579,5.44509 -4.47577,6.83255 -7.16385,5.07125 -1.98841,-1.30286 -1.90325,-3.04204 0.36827,-7.5208 7.43289,-14.65547 1.33038,-22.373847 -16.95207,-21.440767 -3.72313,0.19003 -6.87589,0.45206 -7.00614,0.58232 -0.18966,0.18966 2.05675,13.079457 3.27243,18.776997 0.15021,0.704 2.3004,2.864 4.77821,4.8 15.89595,12.4201 27.04327,30.26298 26.01201,41.63591 -1.16961,12.89861 -14.22406,18.83528 -34.38632,15.6376 l -2.24,-0.35526 -3.34233,7.0053 c -6.73005,14.10577 -16.68783,20.85634 -26.19204,17.7561 z m 49.294,-31.38414 c 8.7291,-2.05361 11.59207,-7.44449 8.71143,-16.40332 -1.40372,-4.36557 -7.21193,-14.02241 -8.73196,-14.51793 -0.40749,-0.13284 -2.4574,1.35881 -4.55534,3.31476 -2.09795,1.95597 -4.93254,4.44336 -6.2991,5.52756 -3.08583,2.44822 -3.20197,2.66496 -3.74187,6.98342 -0.24205,1.936 -0.99904,5.93916 -1.68221,8.89589 -0.68318,2.95674 -1.08793,5.53009 -0.89947,5.71855 1.3518,1.35181 12.20676,1.65544 17.19852,0.48107 z m -58.73983,-3.58243 c 2.07911,-0.70782 4.17628,-1.43263 4.66037,-1.61069 0.50667,-0.18636 -1.93768,-2.03157 -5.76,-4.34815 -3.65209,-2.21342 -6.75771,-3.93908 -6.90135,-3.83481 -0.14365,0.10428 0.25307,2.64006 0.88158,5.63508 1.30292,6.20863 1.22731,6.16446 7.1194,4.15857 z m 35.24885,-2.87308 c 0.46415,-2.112 1.00091,-4.5113 1.19281,-5.33178 0.23926,-1.02296 0.0896,-1.42522 -0.47627,-1.28 -1.83424,0.47074 -12.6005,7.25108 -12.16922,7.66388 0.8167,0.78172 8.09885,3.04495 9.3764,2.91411 0.95633,-0.0979 1.42142,-0.98637 2.07628,-3.96621 z m -13.1088,-7.02291 c 4.09746,-2.2786 9.30586,-5.4403 11.57423,-7.02601 4.01001,-2.80319 4.13554,-2.9766 4.52955,-6.25708 0.51455,-4.2841 0.52489,-16.45843 0.0176,-20.67966 -0.37626,-3.13068 -0.51272,-3.30954 -4.63444,-6.0741 -6.19065,-4.15227 -18.0967,-10.86197 -19.25202,-10.84955 -2.97227,0.0319 -23.37284,12.71187 -23.95686,14.89032 -0.62432,2.32881 -0.44771,23.28461 0.21083,25.01671 0.82224,2.16266 9.78441,8.13425 20.19129,13.45368 1.76,0.89963 3.35074,1.64308 3.53497,1.65214 0.18423,0.009 3.68743,-1.84785 7.78489,-4.12645 z M 139.1781,148.35206 c -5.42603,-2.50247 -8.48095,-7.12539 -8.48095,-12.83393 0,-14.8653 20.28598,-18.48031 26.28453,-4.68398 1.88937,4.34545 0.2838,11.14442 -3.46097,14.65594 -3.64187,3.41503 -10.27398,4.73842 -14.34261,2.86197 z m 8.24909,-7.10002 c 3.66587,-1.8957 4.39654,-7.04273 1.42204,-10.01723 -2.5037,-2.50371 -6.13578,-2.59041 -8.96012,-0.21388 -1.66019,1.39696 -1.96911,2.10751 -1.96911,4.52923 0,5.27772 4.78171,8.14552 9.50719,5.70188 z M 112.96,135.71071 c 0,-3.90134 -0.24419,-6.99734 -0.54265,-6.88 -1.27122,0.49976 -7.13735,5.95714 -7.13735,6.64002 0,0.72402 6.59883,7.33331 7.32169,7.33331 0.19707,0 0.35831,-3.192 0.35831,-7.09333 z m 69.76879,1.00274 c 0.71854,-0.86577 0.43502,-1.424 -1.98527,-3.90895 -5.04813,-5.18298 -5.06351,-5.17388 -5.06351,2.99662 v 7.12211 l 3.10527,-2.59988 c 1.7079,-1.42994 3.48248,-3.05439 3.94351,-3.6099 z m -78.46314,-10.38941 c 2.14189,-2.024 5.10255,-4.688 6.57922,-5.92 l 2.68487,-2.24 1.56422,-8.64 c 0.86032,-4.752 1.66813,-9.04673 1.79513,-9.543827 0.35359,-1.38401 -4.00038,-2.09721 -11.28909,-1.84919 -7.552289,0.25697 -11.822478,1.938937 -14.301147,5.633017 -2.240384,3.33894 -1.717158,9.10145 1.390394,15.31309 2.240979,4.47945 6.554803,10.92691 7.310913,10.92691 0.20412,0 2.12359,-1.656 4.26549,-3.68 z M 128.8,108.25072 c 3.256,-1.93232 5.92,-3.7063 5.92,-3.94216 0,-0.68104 -9.81092,-3.79576 -10.28055,-3.26382 -0.51038,0.57812 -2.51945,8.63538 -2.51945,10.10416 0,1.25477 -0.40588,1.42574 6.88,-2.89818 z m 37.91501,3.35332 c -0.01,-0.91837 -2.3926,-10.45092 -2.68596,-10.74429 -0.42942,-0.42942 -10.74904,2.9763 -10.74904,3.54743 0,0.26486 0.792,0.81595 1.76,1.22464 0.968,0.40868 3.776,2.00693 6.24,3.55166 4.59024,2.87771 5.44371,3.25782 5.435,2.42056 z"
       id="path239" />
  </g>
</svg>
